<?xml version="1.0" encoding="utf-8"?>
<svg viewBox="0 0 500 500" xmlns="http://www.w3.org/2000/svg">
  <defs>
    <clipPath clipPathUnits="userSpaceOnUse" id="clipPath26">
      <path d="M 1.75,5.75 H 841.89 V 595.281 H 1.75 Z" id="path24"/>
    </clipPath>
  </defs>
  <g id="layer1" transform="matrix(2.32172, 0, 0, 2.32172, 1.892695, -109.339622)" style="">
    <g id="g22" clip-path="url(#clipPath26)" transform="matrix(0.35277777,0,0,-0.35277777,-46.31453,250.7222)">
      <g id="g28" transform="matrix(1.9234905,0,0,1.9234905,185.58625,320.11532)">
        <path d="M 0,0 H 8.291 L 6.972,21.576 Z m 28.643,-19.126 c 0.283,-2.356 -1.319,-4.429 -3.863,-4.429 H 14.322 c -2.921,0 -4.617,1.79 -4.9,4.522 L 8.951,-12.06 H -3.863 l -2.261,-7.066 c -0.942,-2.922 -2.921,-4.429 -5.936,-4.429 h -10.458 c -2.639,0 -3.581,2.262 -2.733,4.617 l 24.214,59.17 c 1.131,2.921 3.298,4.428 6.407,4.428 h 9.422 c 3.11,0 4.806,-1.507 5.277,-4.428 z" style="fill:#f36318;fill-opacity:1;fill-rule:nonzero;stroke:none" id="path30"/>
      </g>
      <g id="g32" transform="matrix(1.9234905,0,0,1.9234905,302.11803,283.32587)">
        <path d="m 0,0 c -1.131,-2.921 -3.203,-4.429 -6.313,-4.429 h -10.929 c -2.921,0 -4.9,1.885 -5.277,4.616 l -8.574,59.549 c -0.283,2.261 1.319,4.051 3.957,4.051 h 11.872 c 3.109,0 4.711,-1.413 4.899,-4.24 L -7.726,22.33 4.899,59.359 c 1.037,2.921 3.015,4.428 6.124,4.428 h 10.459 c 2.544,0 3.769,-2.073 2.732,-4.428 z" style="fill:#f36318;fill-opacity:1;fill-rule:nonzero;stroke:none" id="path34"/>
      </g>
      <g id="g36" transform="matrix(1.9234905,0,0,1.9234905,496.74277,349.0879)">
        <path d="m 0,0 3.391,24.887 c 0.376,3.015 2.449,4.711 5.37,4.711 h 9.328 c 2.921,0 4.428,-1.696 4.051,-4.711 l -7.631,-58.605 c -0.377,-3.015 -2.45,-4.9 -5.371,-4.9 H 1.293 c -2.175,0 -4.15,1.275 -5.045,3.258 l -13.208,29.236 -3.393,-27.594 c -0.376,-3.015 -2.449,-4.9 -5.37,-4.9 h -9.422 c -2.733,0 -4.334,1.885 -3.957,4.9 l 7.631,58.416 c 0.377,2.639 2.45,4.9 5.182,4.9 h 6.125 c 3.109,0 5.559,-1.131 7.254,-3.298 z" style="fill:#f36318;fill-opacity:1;fill-rule:nonzero;stroke:none" id="path38"/>
      </g>
      <g id="g40" transform="matrix(1.9234905,0,0,1.9234905,631.03396,406.01879)">
        <path d="m 0,0 c 2.731,0 4.239,-2.167 3.957,-4.805 l -0.849,-6.501 c -0.377,-2.639 -2.544,-4.806 -5.275,-4.806 h -10.364 l -6.219,-47.204 c -0.376,-2.638 -2.543,-4.899 -5.276,-4.899 h -9.516 c -2.732,0 -4.334,2.261 -3.958,4.899 l 6.219,47.204 h -10.365 c -2.732,0 -4.333,2.167 -3.958,4.806 l 0.849,6.501 C -44.378,-2.167 -42.211,0 -39.479,0 Z" style="fill:#f36318;fill-opacity:1;fill-rule:nonzero;stroke:none" id="path42"/>
      </g>
      <g id="g44" transform="matrix(1.9234905,0,0,1.9234905,668.18502,305.79724)">
        <path d="m 0,0 h 23.556 c 2.731,0 4.239,-1.884 3.862,-4.617 l -0.848,-6.689 c -0.377,-2.733 -2.26,-4.805 -5.181,-4.805 H -16.3 c -2.732,0 -4.24,2.355 -3.863,4.993 l 7.726,58.605 c 0.377,2.638 2.355,4.617 5.088,4.617 h 37.688 c 2.732,0 4.334,-1.885 3.957,-4.617 l -0.942,-6.972 c -0.471,-3.11 -2.167,-4.617 -5.087,-4.617 H 4.711 L 3.393,25.911 20.634,25.91 c 2.922,0 4.334,-1.884 3.957,-4.616 l -0.848,-6.69 C 23.272,11.401 21.576,9.799 18.467,9.799 H 1.319 Z" style="fill:#f36318;fill-opacity:1;fill-rule:nonzero;stroke:none" id="path46"/>
      </g>
      <g id="g48" transform="matrix(1.9234905,0,0,1.9234905,351.68831,222.03135)">
        <path d="M 0,0 C 0.006,-0.009 0.006,-0.015 0.012,-0.023 L 0.011,0.01 C 0.007,0.007 0.004,0.004 0,0" style="fill:#40aeb0;fill-opacity:1;fill-rule:nonzero;stroke:none" id="path50"/>
      </g>
      <g id="g52" transform="matrix(1.9234905,0,0,1.9234905,371.0142,333.00309)">
        <path d="M 0,0 C -0.239,0.566 -0.051,0.874 0.141,1.332 0.33,0.824 0.061,0.526 0,0 m -6.912,-56.206 c -0.439,0.567 -0.105,0.97 -0.077,1.496 0.252,-0.507 0.252,-0.507 0.74,-0.337 -0.228,-0.397 -0.417,-0.728 -0.663,-1.159 m -1.206,0.801 c 0.412,0.882 0.824,1.764 1.29,2.761 -0.614,-0.234 -0.415,-0.875 -0.905,-1.033 -0.265,0.701 -0.265,0.701 1.159,2.774 0.398,-1.764 -0.332,-3.205 -1.544,-4.502 m -0.573,-0.014 c -0.212,0.5 0.353,0.832 0.175,1.243 0.51,-0.471 0.389,-0.848 -0.175,-1.243 m -2.431,-1.876 c 0.345,-0.302 0.23,-0.676 0.412,-0.957 -0.694,0.11 -0.806,0.41 -0.412,0.957 m 0.492,9.917 c 0.067,-0.008 0.147,0.006 0.18,-0.024 0.287,-0.255 0.088,-0.456 -0.108,-0.771 -0.224,0.359 -0.194,0.576 -0.072,0.795 m -6.364,-16.784 c -0.036,0.318 -0.07,0.636 0.486,0.767 -0.204,-0.322 -0.345,-0.545 -0.486,-0.767 m -1.508,-2.377 c -0.045,0.27 0.018,0.407 0.26,0.44 0.064,-0.196 0.01,-0.334 -0.26,-0.44 m -1.4,-2.283 c 0.158,0.307 0.316,0.615 0.473,0.923 0.182,-0.459 -0.216,-0.653 -0.473,-0.923 m 0.279,2.045 c -0.095,0.253 0.01,0.424 0.179,0.688 0.093,-0.319 0.026,-0.499 -0.179,-0.688 m -0.176,2.093 c 0.284,0.056 0.436,-0.04 0.53,-0.389 -0.308,0.076 -0.449,0.179 -0.53,0.389 m -1.379,-6.512 c -0.142,0.344 0.015,0.586 0.362,0.897 0.058,-0.431 -0.191,-0.655 -0.362,-0.897 m 0.256,5.174 c 0.464,-0.224 0.292,-0.439 0.116,-0.761 -0.263,0.317 -0.183,0.504 -0.116,0.761 m -1.144,-6.397 c -0.161,0.31 0.076,0.369 0.318,0.556 0.046,-0.364 -0.075,-0.492 -0.318,-0.556 m -0.721,-2.215 c -1.007,-0.565 -1.254,-1.558 -1.84,-2.354 -0.117,0.156 -0.246,0.319 -0.11,0.509 0.724,1.011 1.031,2.254 2.034,3.147 0.676,-0.494 0.251,-1.114 -0.084,-1.302 m -2.669,-3.282 c 0.018,0.641 0.428,0.777 0.823,0.924 -0.383,-0.156 -0.485,-0.535 -0.823,-0.924 m 3.736,10.105 c 0.056,-0.037 0.137,-0.062 0.148,-0.103 0.082,-0.282 -0.043,-0.437 -0.347,-0.497 -0.219,0.322 -0.021,0.462 0.199,0.6 m -4.803,-11.774 c -0.289,0.292 -0.155,0.618 -0.126,0.932 0.7,-0.35 0.714,-0.438 0.126,-0.932 M -43.872,-91.62 c 0.101,0.581 0.391,1.053 0.928,1.508 0.154,-0.85 -0.796,-0.945 -0.928,-1.508 m -1.778,-2.376 c -0.274,0.683 0.363,0.789 0.482,1.28 0.442,-0.765 -0.265,-0.837 -0.482,-1.28 m -1.536,-4.367 c 0.072,0.276 0.22,0.457 0.588,0.663 -0.097,-0.353 -0.148,-0.623 -0.588,-0.663 m 11.545,86.843 c -0.133,-0.082 -0.234,0.115 -0.312,0.237 0.051,0.153 0.08,0.373 0.329,0.229 0.189,-0.109 0.102,-0.391 -0.017,-0.466 m -5.586,-19.286 c -0.038,0.345 0.066,0.524 0.474,0.596 -0.068,-0.286 -0.112,-0.503 -0.474,-0.596 m -6.917,-1.199 c -0.148,0.291 -0.213,0.419 -0.341,0.672 0.241,-0.193 0.511,-0.187 0.341,-0.672 m -1.505,-1.036 c 0.144,0.19 0.256,0.098 0.275,-0.104 0.008,-0.082 0.002,-0.165 0.003,-0.352 -0.238,0.187 -0.377,0.325 -0.278,0.456 m -4.636,2.287 c -0.324,0.181 -0.521,0.312 -0.386,0.57 0.067,0.126 0.223,0.14 0.348,0.078 0.358,-0.179 0.015,-0.381 0.038,-0.648 m -2.184,-3.153 c 0.346,0.289 0.493,0.413 0.703,0.588 0.016,-0.398 -0.207,-0.45 -0.703,-0.588 m 83.558,7.537 c 0.133,0.774 -0.36,1.742 0.608,2.328 -0.686,0.784 0.039,1.584 -0.058,2.384 -0.099,0.825 -0.063,1.666 -0.027,2.497 0.074,1.748 0.741,3.409 0.806,5.164 0.155,4.12 0.233,8.24 0.034,12.366 -0.07,1.462 -0.071,2.927 -0.166,4.388 -0.13,2.002 -0.623,3.988 -0.427,6.006 0.003,0.004 0.006,0.009 0.008,0.013 -0.002,10e-4 -0.005,0.004 -0.007,0.005 0,-0.002 -0.01,-0.034 -0.01,-0.034 -0.167,1.073 -0.627,2.203 -0.413,3.203 0.191,0.893 0.194,1.672 0.069,2.554 -0.565,3.995 -1.197,7.976 -2.207,11.907 -0.691,2.696 -1.791,5.345 -1.678,8.15 0.083,2.044 -1.369,3.098 -2.778,4.269 -0.386,0.321 -0.983,-0.044 -1.163,0.322 -0.371,0.758 -0.989,1.019 -1.806,1.166 -0.999,0.18 -1.855,0.744 -2.753,1.101 -1.176,0.466 -2.402,1.022 -3.7,1.222 C 10.583,42.77 9.736,43.021 8.951,42.29 6.869,40.351 5.742,37.882 4.507,35.496 3.375,33.311 2.19,31.152 1.027,28.981 0.502,28.001 -0.34,27.239 -0.96,26.329 c -0.51,-0.746 -0.887,-1.587 -1.494,-2.254 -1.287,-1.413 -2.409,-2.933 -3.57,-4.429 -0.647,-0.833 -1.109,-1.805 -1.759,-2.588 -1.121,-1.348 -2.216,-2.732 -3.451,-4.006 -0.254,-0.262 -0.78,-0.355 -0.792,-0.637 -0.038,-0.893 -0.675,-0.755 -1.212,-0.684 -0.362,-0.329 0.424,-0.542 0.035,-0.746 -0.614,-0.323 -0.814,-0.865 -1.17,-1.362 -0.665,-0.93 -1.615,-1.684 -2.447,-2.512 0.123,0.253 0.265,0.503 0.179,0.889 -0.408,-0.371 -1.063,-0.539 -0.535,-1.181 -0.433,-0.317 -0.755,-0.76 -1.38,-0.85 -0.293,-0.043 -0.508,-0.296 -0.504,-0.614 10e-4,-0.092 0.106,-0.116 0.214,-0.145 0.303,-0.079 0.332,-0.218 0.201,-0.233 -1.003,-0.114 -1.468,-0.635 -1.491,-1.54 0,-0.01 -0.067,-0.009 -0.085,-0.028 -0.608,-0.645 -1.362,-1.175 -1.957,-1.797 -0.404,-0.421 -1.08,-0.365 -1.087,-0.389 -0.347,-1.14 -0.346,-1.114 -1.431,-1.367 -0.213,-0.05 -0.525,-0.295 -0.492,-0.634 0.018,-0.182 0.051,-0.363 0.084,-0.544 0.084,-0.464 -0.171,-0.596 -0.565,-0.393 -0.826,0.426 -0.728,-0.101 -0.675,-0.533 0.079,-0.635 -0.941,-1.437 -1.745,-1.26 0.239,-0.539 -0.092,-0.94 -0.424,-1.23 -1.011,-0.886 -2.005,-1.772 -2.664,-2.927 -0.035,-0.062 -0.154,-0.084 -0.234,-0.124 -0.929,-0.478 -2.046,-0.753 -2.43,-1.829 -0.197,-0.552 -0.81,-0.653 -1.234,-0.795 -0.727,-0.245 -0.782,-0.158 -0.881,-0.866 -10e-4,10e-4 -10e-4,0.003 -0.002,0.004 -0.052,-0.65 -0.466,-0.36 -0.934,-0.127 0.286,-1.287 -1.292,-1.331 -1.499,-2.279 -0.032,-0.15 -0.589,-0.197 -0.62,-0.345 -0.296,-1.399 -1.973,-1.532 -2.743,-2.594 -0.73,-1.006 -1.955,-1.76 -2.686,-2.861 -0.365,-0.549 -0.883,-1.16 -1.466,-1.28 -0.781,-0.16 -1.059,-0.655 -1.486,-1.081 -0.332,-0.332 -0.58,-0.748 -0.951,-1.033 -1.192,-0.921 -2.438,-1.772 -3.429,-2.907 -0.949,-1.089 -1.935,-2.124 -2.646,-3.391 -0.247,-0.44 -0.879,-0.754 -1.054,-1.352 -0.071,-0.242 -0.272,-0.134 -0.472,-0.007 -0.272,0.173 -0.391,-0.129 -0.562,-0.244 -0.15,-0.101 -0.07,-0.197 0.031,-0.298 0.28,-0.282 0.286,0.15 0.455,0.137 0.216,-0.017 0.48,0.079 0.587,-0.156 -0.736,-1.324 -2.329,-1.942 -2.957,-3.245 0.8,-0.866 1.217,0.139 1.887,0.264 -0.798,-0.558 -1.125,-1.462 -1.931,-1.998 1.167,0.421 2.355,0.805 2.889,2.005 1.286,-0.578 1.646,0.924 2.745,0.994 -0.043,-0.335 0.24,-0.74 -0.505,-0.73 -0.385,0.006 -0.332,-0.458 -0.492,-0.698 -0.08,-0.12 0.117,-0.2 0.232,-0.249 0.316,-0.133 0.394,0.164 0.557,0.283 0.906,0.662 1.799,1.339 2.727,2.034 0.165,-1.034 0.303,-2.006 -0.461,-3.034 0.705,0.244 0.837,0.855 1.422,0.742 -0.406,-1.515 -2.137,-2.095 -2.801,-3.484 0.332,-0.028 0.346,0.446 0.673,0.309 0.072,-0.207 -0.255,-0.359 -0.114,-0.557 3.837,1.912 6.596,5.034 9.805,7.544 0.42,-0.282 0.017,-0.591 0.483,-0.699 0.313,0.558 0.934,0.821 1.504,1.155 0.278,0.163 0.375,0.016 0.468,-0.127 0.117,-0.178 0.1,-0.43 -0.196,-0.339 -0.39,0.119 -0.42,-0.092 -0.424,-0.302 -0.012,-0.588 -0.39,-0.911 -0.853,-1.25 -0.332,-0.242 -0.525,-0.646 -0.78,-0.977 0.058,-0.048 0.116,-0.093 0.174,-0.14 0.468,0.553 1.684,0.143 1.738,1.25 0.007,0.124 0.243,0.222 0.416,0.094 0.721,-0.532 1.176,0.019 1.574,0.381 0.466,0.424 1.29,0.685 1.311,1.332 0.032,0.971 0.631,1.341 1.574,1.725 -0.175,-0.327 -0.577,-0.395 -0.393,-0.761 1.304,0.798 2.413,1.726 2.747,3.215 0.44,-0.198 0.13,-0.469 0.432,-0.588 11.19,8.52 21.556,17.856 31.343,27.824 0.361,-0.722 -0.328,-1.37 0.253,-1.945 0.053,-0.052 -0.095,-0.398 -0.236,-0.473 -1.047,-0.563 -1.164,-1.704 -1.004,-2.437 0.137,-0.627 0.067,-1.028 -0.201,-1.431 0.077,0.142 0.09,0.292 -0.119,0.469 -0.335,-0.234 -0.452,-0.501 -0.231,-0.849 -0.071,-0.096 -0.225,-0.253 -0.201,-0.28 0.62,-0.721 0.023,-1.441 0.019,-2.153 -0.004,-0.762 -0.436,-0.164 -0.837,-0.03 0.433,-0.641 -0.691,-1.168 0.093,-1.783 0.03,-0.024 -0.058,-0.382 -0.296,-0.421 -0.194,-0.031 -0.448,0.033 -0.365,-0.265 0.095,-0.335 0.427,0.067 0.639,-0.211 -0.734,-0.258 -0.194,-1.44 -1.33,-1.47 -0.11,-0.003 -0.073,-0.273 -0.021,-0.425 0.064,-0.186 0.138,-0.302 -0.04,-0.547 -0.206,-0.283 -0.099,-0.761 -0.128,-1.154 l -0.05,0.036 c -0.008,-0.019 -0.014,-0.038 -0.021,-0.057 0.007,10e-4 0.013,0.004 0.02,0.006 0.123,-0.83 -0.542,-1.413 -0.595,-2.111 -0.441,0.025 -0.079,0.45 -0.733,0.44 0.612,-0.813 -0.395,-1.379 -0.065,-2.259 0.209,-0.558 -0.639,-1.167 -0.612,-1.88 0.001,-0.036 -0.092,-0.083 -0.15,-0.111 -0.535,-0.258 -0.564,-0.263 -0.474,-0.632 0.165,-0.677 0.09,-1.308 -0.197,-1.947 -0.444,-0.99 -1.12,-1.898 -1.247,-3.001 -0.018,-0.161 -0.012,-0.326 -0.208,-0.373 -0.27,-0.065 -0.227,0.275 -0.453,0.319 -0.094,-0.28 -0.545,-0.579 -0.115,-0.839 0.54,-0.326 0.352,-0.534 -0.04,-0.679 -0.896,-0.33 -0.269,-1.495 -1.188,-1.786 0.51,-1.058 -0.251,-1.966 -0.454,-2.919 -0.107,-0.504 -0.33,-1.102 -0.715,-1.609 -0.218,-0.285 -0.727,0.225 -0.6,-0.285 0.178,-0.713 0.073,-1.297 -0.613,-1.761 -0.495,-0.335 0.105,-0.953 -0.229,-1.33 -0.628,0.101 -0.312,0.616 -0.562,1.115 -0.181,-0.915 -0.444,-1.576 -0.598,-2.28 -0.123,-0.559 0.814,-2.074 -1.154,-1.668 0.544,-0.917 0.544,-0.917 -0.019,-1.45 -0.304,0.093 -0.058,0.472 -0.348,0.599 -0.172,-0.475 -0.211,-0.498 -0.099,-0.658 0.163,-0.234 0.253,-0.544 0.119,-0.704 -0.832,-0.998 -1.079,-2.196 -1.434,-3.365 -0.103,-0.342 -0.259,-0.828 -0.538,-0.935 -0.686,-0.263 -0.446,-0.617 -0.168,-1.023 -0.625,-0.133 -1.643,0.206 -1.129,-0.913 0.052,-0.113 -0.05,-0.304 -0.121,-0.441 -0.386,-0.75 -0.731,-1.53 -1.034,-2.296 -0.267,-0.672 -0.781,-0.821 -1.314,-1.113 0.295,-0.414 0.983,-0.897 0.449,-1.331 -0.895,-0.727 -1.477,-1.619 -2.085,-2.52 -0.222,-0.329 -0.367,-0.629 -0.427,-1.062 -0.166,-1.191 -1.174,-2.089 -1.566,-3.23 -0.082,-0.238 -0.553,-0.223 -0.619,-0.558 -0.282,-1.449 -1.233,-2.564 -2.132,-3.711 -0.154,-0.196 -0.295,-0.415 -0.354,-0.716 -0.128,-0.651 -0.134,-1.628 -0.909,-1.756 -0.942,-0.155 -0.809,-0.671 -0.907,-1.193 -0.036,-0.196 -0.112,-0.389 -0.17,-0.567 -0.234,-0.728 -1.304,-0.919 -1.353,-1.55 -0.071,-0.903 -0.974,-1.491 -0.775,-2.377 -0.312,-0.181 -0.431,0.231 -0.452,0.22 -0.702,-0.699 0.096,-1.938 -1.375,-2.021 -0.192,-0.01 -0.099,-0.261 -0.148,-0.397 -0.147,-0.403 -0.246,-1.086 -0.504,-1.142 -1.122,-0.244 -0.803,-1.028 -0.904,-1.669 -0.012,-0.08 -0.083,-0.152 -0.108,-0.197 -0.326,-0.129 -0.461,0.332 -0.686,0.175 -0.594,-0.541 0.198,-0.649 0.377,-1.023 -0.464,-0.093 -1.208,0.16 -1.071,-0.527 0.106,-0.535 -0.162,-0.698 -0.548,-0.902 -0.27,-0.142 -0.5,-0.365 -0.428,-0.678 0.107,-0.465 -0.473,-0.617 -0.565,-0.601 -0.791,0.13 -0.771,-0.185 -0.701,-0.766 0.102,-0.854 -0.199,-1.904 -0.981,-2.106 -0.824,-0.213 -0.619,-0.679 -0.886,-1.049 -0.364,-0.504 -0.144,-1.553 -1.339,-1.336 0.109,-1.143 -1.489,-1.676 -1.023,-2.835 -0.394,-0.259 -0.465,0.361 -0.856,0.147 0.263,-0.663 -0.184,-1.168 -0.433,-1.74 -0.417,-0.957 -1.165,-1.729 -1.67,-2.641 -0.261,-0.469 -0.347,-0.776 -0.375,-1.27 0.641,0.227 0.551,0.923 1.305,1.024 -0.906,-2.325 -3.372,-3.618 -4.148,-5.894 0.158,-0.01 0.378,0.032 0.515,-0.048 0.173,-0.101 -0.165,-0.43 0.229,-0.538 0.094,0.068 0.193,0.148 0.3,0.215 0.1,0.062 0.096,0.301 0.322,0.165 -0.413,-0.628 -0.413,-0.628 -0.408,-1.158 4.047,3.67 7.329,7.885 10.757,12.101 0.341,-0.673 -0.372,-1.067 -0.088,-1.571 -0.801,-0.351 -0.814,-0.373 -0.588,-0.958 0.546,0.131 0.128,0.774 0.589,0.954 0.608,0.282 1.063,0.69 1.237,1.313 0.105,0.378 0.372,0.605 0.675,0.868 0.656,0.568 1.476,1.149 1.742,1.88 0.322,0.89 0.843,1.576 1.524,2.156 1.131,0.963 1.725,2.262 2.643,3.355 0.777,0.925 1.15,2.093 1.771,3.123 0.456,0.757 1.488,1.079 1.591,2.052 0.032,0.3 0.052,0.662 0.304,0.944 1.057,1.183 1.619,2.741 3.135,3.572 0.5,0.273 0.346,0.632 0.187,1.007 0.353,0.053 0.595,-0.011 0.824,-0.125 0.02,-0.717 -0.664,-1.17 -0.807,-1.8 0.385,-0.195 0.277,0.439 0.638,0.219 -0.076,-0.912 -1.013,-1.348 -1.352,-2.148 -0.221,-0.52 -1.249,-0.706 -0.976,-1.588 0.003,-0.01 -0.12,-0.296 -0.347,-0.252 -0.123,0.023 -0.365,0.064 -0.304,-0.066 0.402,-0.868 -0.603,-1.326 -0.641,-2.053 -0.18,0.146 -0.357,0.292 -0.544,0.446 -0.222,-0.341 0.339,-0.577 -0.004,-0.966 -0.62,-0.701 -1.103,-1.504 -1.634,-2.27 -0.157,-0.227 -0.312,-0.475 0.021,-0.749 0.997,0.503 0.944,1.825 2.072,2.214 -0.883,-1.286 -1.424,-2.773 -2.765,-3.968 -0.006,0.625 -0.092,1.051 -0.923,1.414 0.674,-1.042 -0.103,-1.565 -0.366,-2.232 0.354,0.124 0.708,0.248 1.079,0.378 -0.338,-0.675 -0.925,-1.195 -1.116,-1.919 -0.148,-0.56 -0.089,-1.24 -1.024,-1.326 -0.206,-0.019 -0.333,-0.344 -0.203,-0.635 0.113,-0.252 0.157,-0.53 0.234,-0.806 -0.612,0.044 -0.618,0.048 -0.75,-0.153 -0.1,-0.152 -0.219,-0.406 -0.085,-0.488 0.617,-0.376 0.033,-0.577 -0.133,-0.474 -0.638,0.401 -0.411,-0.227 -0.589,-0.351 0.452,-0.299 -0.185,-0.75 0.263,-1.138 3.007,3.736 5.721,7.618 8.28,11.598 2.563,3.986 5.338,7.855 7.698,12.036 0.216,-0.239 0.333,-0.369 0.47,-0.522 0.02,1.378 1.058,2.377 1.229,3.614 0.568,0.018 0.551,-0.361 0.754,-0.676 0.088,0.504 0.788,0.879 -0.04,1.327 -0.241,0.131 -0.018,0.475 0.077,0.674 0.145,0.304 0.398,0.562 0.606,0.84 -0.053,-0.468 -0.106,-0.935 -0.159,-1.403 0.517,0.424 0.81,0.896 0.957,1.438 -0.252,-0.185 -0.525,-0.025 -0.789,-0.012 0.238,0.534 0.527,0.211 0.807,0.041 0.64,0.155 0.794,0.432 0.171,0.809 -0.318,0.193 -0.295,0.37 -0.127,0.605 0.082,0.114 0.17,0.225 0.24,0.319 0.349,-0.114 0.217,-0.472 0.428,-0.573 1.17,0.499 -0.252,1.133 0.127,1.759 0.187,-0.195 0.244,-0.454 0.523,-0.473 0.427,0.642 1.062,1.179 1.183,1.982 0.002,-0.002 0.002,-0.006 0.003,-0.008 0.22,0.186 0.44,0.378 0.659,0.571 -0.566,0.883 0.609,1.128 0.813,1.749 0.118,0.36 0.673,-0.105 1.109,-0.245 -0.431,-0.596 -0.991,-1.174 -0.266,-1.879 0.22,0.164 -0.043,0.379 0.057,0.577 0.126,0.252 0.288,0.302 0.558,0.245 0.412,-0.088 0.249,-0.401 0.155,-0.51 -0.701,-0.816 -0.907,-1.903 -1.707,-2.659 0.229,-0.154 -0.144,-0.413 0.187,-0.603 0.289,0.441 0.582,0.878 0.866,1.32 2.097,3.259 3.38,6.902 5.66,10.091 1.434,2.007 2.169,4.386 3.314,6.56 1.163,2.21 2.032,4.557 3.041,6.833 1.103,2.49 2.317,4.953 3.311,7.479 1.383,3.513 2.749,7.032 4.187,10.525 0.223,0.542 0.175,1.186 0.764,1.827 -0.105,-0.848 -0.301,-1.494 -0.24,-2.122 0.179,-1.825 -0.362,-3.582 -0.484,-5.377 -0.118,-1.736 -0.372,-3.462 -0.341,-5.217 0.01,-0.576 0.014,-1.205 -0.069,-1.724 -0.126,-0.779 -0.303,-1.599 -0.564,-2.38 -0.346,-1.038 -0.028,-2.141 -0.197,-3.201 -0.095,-0.591 -0.064,-1.067 0.847,-1.095 -0.631,-0.415 -0.683,-0.426 -0.621,-0.66 0.368,-1.403 0.335,-2.817 0.183,-4.226 -0.053,-0.495 0.557,-0.504 0.477,-1.057 0.257,0.368 0.184,0.782 0.658,0.633 0.287,-0.36 -0.168,-0.81 0.24,-1.175 0.595,0.194 0.464,0.868 0.959,1.194 0.805,0.531 0.935,-0.181 1.31,-0.448 0.475,0.474 0.1,1.52 1.214,1.532 0.434,-0.658 -0.371,-1.401 0.215,-1.991 0.42,0.023 0.17,0.608 0.637,0.5 0.276,-0.463 -0.288,-0.979 0.183,-1.465 0.133,0.292 -0.154,0.814 0.488,0.77 0.36,-0.472 -0.215,-0.98 0.097,-1.434 0.255,-0.065 0.223,0.446 0.596,0.141 -0.44,-1.134 -0.635,-2.319 -0.057,-3.757 0.837,1.896 0.818,3.77 1.579,5.456 0.272,-0.075 0.534,-0.147 0.789,-0.217 0.2,0.452 0.204,0.933 0.504,1.247 0.943,-0.481 0.839,-1.157 0.661,-1.877 -0.223,-0.899 -0.419,-1.805 -0.588,-2.715 -0.097,-0.523 0.436,-0.891 0.87,-0.562 0.244,0.185 0.565,-0.106 0.673,0.234 0.144,0.332 -0.538,0.29 -0.354,0.709 0.34,-0.019 0.542,0.093 0.702,0.497 0.368,0.929 0.431,1.915 0.741,2.858 0.389,1.182 1.114,2.256 1.261,3.516 0.072,0.608 0.094,1.217 0.28,1.828 0.304,1.001 0.748,1.955 1.054,2.942 0.289,0.931 0.012,1.982 0.461,2.927 0.3,0.632 0.168,1.35 0.296,2.024 0.231,1.221 0.414,2.473 0.627,3.704" style="fill:#40aeb0;fill-opacity:1;fill-rule:nonzero;stroke:none" id="path54"/>
      </g>
      <g id="g56" transform="matrix(1.9234905,0,0,1.9234905,311.71471,169.99766)">
        <path d="M 0,0 C 0.002,0.007 0.006,0.013 0.009,0.02 -0.006,0.014 -0.022,0.009 -0.036,0.003 Z" style="fill:#40aeb0;fill-opacity:1;fill-rule:nonzero;stroke:none" id="path58"/>
      </g>
      <g id="g60" transform="matrix(1.9234905,0,0,1.9234905,354.04843,221.02094)">
        <path d="m 0,0 c -0.052,0.517 -0.461,0.936 -0.26,1.468 -0.891,0.068 -0.048,-1.11 -0.932,-0.967 0.627,-0.801 0.626,-0.98 -0.003,-1.509 -0.352,0.26 0.136,0.48 0.042,0.741 -0.505,-0.504 -0.862,-1.247 -0.745,-1.532 0.179,-0.431 -0.58,-2.276 -1.018,-2.272 -0.859,0.009 -0.739,-0.57 -0.913,-1.016 -0.142,-0.361 0.17,-0.711 -0.059,-1.078 -0.904,-1.455 -1.506,-3.057 -2.507,-4.468 -0.206,-0.289 -0.478,-0.595 -0.229,-1.007 0.514,0.24 0.9,0.623 1.477,0.654 -0.077,0.293 -0.637,0.22 -0.433,0.574 0.244,0.424 0.365,0.9 0.734,1.275 0.492,0.499 1.093,0.961 1.032,1.752 -0.022,0.288 0.245,0.35 0.433,0.51 0.458,0.393 1.409,0.418 1.254,1.305 -0.045,-0.192 -0.153,-0.33 -0.436,-0.384 -0.104,0.42 0.209,0.612 0.47,0.827 -0.01,-0.152 -0.019,-0.304 -0.029,-0.456 0.11,0.184 0.541,0.166 0.377,0.504 -0.015,0.031 -0.186,10e-4 -0.308,-0.011 0.255,0.641 0.377,1.379 0.816,1.883 0.28,0.322 0.04,0.973 0.716,1.009 C -0.381,-1.463 0.082,-0.817 0,0" style="fill:#40aeb0;fill-opacity:1;fill-rule:nonzero;stroke:none" id="path62"/>
      </g>
      <g id="g64" transform="matrix(1.9234905,0,0,1.9234905,351.71081,221.98634)">
        <path d="M 0,0 C 0.01,-0.002 0.014,0.001 0.023,0 0.013,0.013 0.01,0.02 -0.001,0.032 Z" style="fill:#40aeb0;fill-opacity:1;fill-rule:nonzero;stroke:none" id="path66"/>
      </g>
      <g id="g68" transform="matrix(1.9234905,0,0,1.9234905,353.04629,216.79253)">
        <path d="M 0,0 C -0.001,-0.007 -0.004,-0.013 -0.006,-0.02 0.002,-0.013 0.006,-0.005 0.013,0.002 0.008,0.002 0.005,0 0,0" style="fill:#40aeb0;fill-opacity:1;fill-rule:nonzero;stroke:none" id="path70"/>
      </g>
      <g id="g72" transform="matrix(1.9234905,0,0,1.9234905,337.93458,193.41019)">
        <path d="M 0,0 C 0.25,-0.155 0.368,0 0.446,0.191 0.768,0.985 1.368,1.658 1.688,2.764 0.747,2.025 0.432,1.199 0.014,0.425 -0.084,0.244 -0.237,0.147 0,0" style="fill:#40aeb0;fill-opacity:1;fill-rule:nonzero;stroke:none" id="path74"/>
      </g>
      <g id="g76" transform="matrix(1.9234905,0,0,1.9234905,309.81277,168.2469)">
        <path d="M 0,0 C -0.752,-1.122 -1.175,-2.186 -2.041,-3.001 -1.115,-2.756 0.052,-1.076 0,0" style="fill:#40aeb0;fill-opacity:1;fill-rule:nonzero;stroke:none" id="path78"/>
      </g>
      <g id="g80" transform="matrix(1.9234905,0,0,1.9234905,345.48486,212.37638)">
        <path d="M 0,0 C 0.012,0.01 0.024,0.008 0.035,0.019 0.03,0.021 0.024,0.026 0.018,0.029 0.016,0.029 0.015,0.028 0.012,0.027 0.009,0.019 0.003,0.011 0,0" style="fill:#40aeb0;fill-opacity:1;fill-rule:nonzero;stroke:none" id="path82"/>
      </g>
      <g id="g84" transform="matrix(1.9234905,0,0,1.9234905,336.30308,189.84481)">
        <path d="M 0,0 C 0.782,1.038 0.806,1.124 0.458,1.638 0.218,1.128 -0.171,0.701 0,0" style="fill:#40aeb0;fill-opacity:1;fill-rule:nonzero;stroke:none" id="path86"/>
      </g>
      <g id="g88" transform="matrix(1.9234905,0,0,1.9234905,287.22502,264.92672)">
        <path d="M 0,0 C 0.458,0.318 0.985,0.574 1.203,1.108 0.659,0.866 0.151,0.594 0,0" style="fill:#40aeb0;fill-opacity:1;fill-rule:nonzero;stroke:none" id="path90"/>
      </g>
      <g id="g92" transform="matrix(1.9234905,0,0,1.9234905,311.7101,169.99766)">
        <path d="M 0,0 C 0.002,0 -0.034,0.003 -0.034,0.003 -0.032,-0.006 -0.035,-0.013 -0.033,-0.021 -0.022,-0.014 -0.01,-0.008 0,0" style="fill:#40aeb0;fill-opacity:1;fill-rule:nonzero;stroke:none" id="path94"/>
      </g>
      <g id="g96" transform="matrix(1.9234905,0,0,1.9234905,310.61121,168.16996)">
        <path d="M 0,0 C 0.374,0.255 0.624,0.505 0.538,0.929 0.233,0.712 -0.19,0.56 0,0" style="fill:#40aeb0;fill-opacity:1;fill-rule:nonzero;stroke:none" id="path98"/>
      </g>
      <g id="g100" transform="matrix(1.9234905,0,0,1.9234905,302.55101,153.5522)">
        <path d="M 0,0 0.204,-0.133 C 0.437,0.168 0.669,0.469 1.052,0.964 0.313,0.687 0.142,0.353 0,0" style="fill:#40aeb0;fill-opacity:1;fill-rule:nonzero;stroke:none" id="path102"/>
      </g>
      <g id="g104" transform="matrix(1.9234905,0,0,1.9234905,278.19731,147.72537)">
        <path d="M 0,0 C 0.232,0.216 0.464,0.433 0.696,0.648 0.646,0.698 0.596,0.749 0.546,0.799 0.285,0.62 0.023,0.441 -0.238,0.263 -0.159,0.176 -0.079,0.088 0,0" style="fill:#40aeb0;fill-opacity:1;fill-rule:nonzero;stroke:none" id="path106"/>
      </g>
      <g id="g108" transform="matrix(1.9234905,0,0,1.9234905,425.22316,350.89502)">
        <path d="m 0,0 c -0.125,-0.209 -0.221,-0.369 -0.315,-0.526 0.102,-0.068 0.269,-0.203 0.286,-0.188 C 0.211,-0.512 0.114,-0.285 0,0" style="fill:#40aeb0;fill-opacity:1;fill-rule:nonzero;stroke:none" id="path110"/>
      </g>
      <g id="g112" transform="matrix(1.9234905,0,0,1.9234905,424.92079,354.14841)">
        <path d="M 0,0 C -0.223,-0.344 -0.123,-0.481 0.121,-0.838 0.066,-0.457 0.046,-0.316 0,0" style="fill:#40aeb0;fill-opacity:1;fill-rule:nonzero;stroke:none" id="path114"/>
      </g>
      <g id="g116" transform="matrix(1.9234905,0,0,1.9234905,361.25594,304.3602)">
        <path d="M 0,0 C 0.265,0.029 0.302,0.195 0.358,0.345 0.185,0.293 -0.002,0.251 0,0" style="fill:#40aeb0;fill-opacity:1;fill-rule:nonzero;stroke:none" id="path118"/>
      </g>
      <g id="g120" transform="matrix(1.9234905,0,0,1.9234905,426.54941,335.08065)">
        <path d="M 0,0 C 0.021,-0.149 0.04,-0.29 0.059,-0.43 0.161,-0.253 0.235,-0.091 0,0" style="fill:#40aeb0;fill-opacity:1;fill-rule:nonzero;stroke:none" id="path122"/>
      </g>
      <g id="g124" transform="matrix(1.9234905,0,0,1.9234905,258.00355,264.81401)">
        <path d="M 0,0 C 0.353,0.056 0.392,0.27 0.429,0.538 0.123,0.44 -0.062,0.318 0,0" style="fill:#40aeb0;fill-opacity:1;fill-rule:nonzero;stroke:none" id="path126"/>
      </g>
      <g id="g128" transform="matrix(1.9234905,0,0,1.9234905,407.60649,243.42845)">
        <path d="M 0,0 C 0.084,0.106 0.5,0.245 0.089,0.434 0.058,0.282 0.029,0.141 0,0" style="fill:#40aeb0;fill-opacity:1;fill-rule:nonzero;stroke:none" id="path130"/>
      </g>
      <g id="g132" transform="matrix(1.9234905,0,0,1.9234905,334.75621,188.59204)">
        <path d="m 0,0 c -0.075,-0.089 -0.223,-0.166 -0.112,-0.297 0.028,-0.033 0.192,-0.014 0.248,0.03 0.061,0.048 0.109,0.161 0.091,0.23 C 0.197,0.082 0.087,0.035 0,0" style="fill:#40aeb0;fill-opacity:1;fill-rule:nonzero;stroke:none" id="path134"/>
      </g>
    </g>
  </g>
</svg>