<?xml version="1.0" encoding="utf-8"?>
<svg viewBox="0 0 500 500" xmlns="http://www.w3.org/2000/svg">
  <g id="layer1" transform="matrix(7.770781, 0, 0, 7.770781, -192.000198, -896.262512)" style="">
    <g id="g200" transform="matrix(0.26458333,0,0,0.26458333,-24.028765,97.205175)">
      <g id="Layer1007">
        <path d="m 289.0252,161.0281 a 13.7524,13.7235 0 0 1 13.7524,13.7235 13.7524,13.7235 0 1 1 -13.7524,-13.7235 z" style="fill:#0aa498;fill-rule:evenodd" id="path97"/>
        <g id="Layer1008">
          <g id="Layer1009">
            <path d="m 357.7859,224.3459 c 1.3106,0 2.4574,-0.2457 3.4403,-0.901 1.0648,-0.6552 1.884,-1.4744 2.4574,-2.6211 0.5733,-1.0649 0.901,-2.2936 0.901,-3.6043 0,-1.3924 -0.3277,-2.6211 -0.901,-3.686 -0.5734,-1.1468 -1.3926,-1.9659 -2.4574,-2.6212 -0.9829,-0.6553 -2.1297,-0.9829 -3.4403,-0.9829 -1.3106,0 -2.4574,0.3276 -3.5223,0.9829 -0.9829,0.6553 -1.8021,1.4744 -2.4573,2.6212 -0.5734,1.0649 -0.901,2.2936 -0.901,3.686 0,1.3107 0.3276,2.5394 0.901,3.6043 0.6552,1.1467 1.4744,1.9659 2.4573,2.6211 1.0649,0.6553 2.2117,0.901 3.5223,0.901 z m 0,-17.8569 c 1.9659,0 3.7679,0.4915 5.3243,1.3925 1.6382,0.983 2.8669,2.2117 3.8499,3.85 0.9011,1.6382 1.3925,3.4403 1.3925,5.488 v 8.519 c 0,0.5733 -0.1639,1.0648 -0.5734,1.3925 -0.3277,0.4095 -0.8191,0.5734 -1.3925,0.5734 -0.5734,0 -1.0649,-0.1639 -1.3925,-0.5734 -0.4096,-0.3277 -0.5734,-0.8192 -0.5734,-1.3925 v -1.3926 c -0.9011,1.0649 -1.9659,1.9659 -3.2765,2.5394 -1.2287,0.6552 -2.6212,0.9829 -4.0956,0.9829 -1.884,0 -3.5223,-0.4915 -5.0786,-1.3925 -1.4745,-0.9829 -2.6212,-2.2116 -3.5222,-3.8499 -0.8192,-1.6382 -1.3106,-3.4404 -1.3106,-5.4063 0,-2.0477 0.4914,-3.8498 1.3924,-5.488 0.983,-1.6383 2.2117,-2.867 3.85,-3.85 1.6382,-0.901 3.4403,-1.3925 5.4062,-1.3925 z" style="fill:#003047;fill-rule:evenodd" id="path99"/>
            <path d="m 342.1406,203.2125 c -0.6553,0 -1.3106,-0.2457 -1.8021,-0.7372 -0.4914,-0.4915 -0.7372,-1.0648 -0.7372,-1.802 0,-0.6554 0.2458,-1.2287 0.7372,-1.7202 0.4915,-0.5734 1.1468,-0.8191 1.8021,-0.8191 0.6553,0 1.3106,0.2457 1.8021,0.8191 0.4914,0.4915 0.7372,1.0648 0.7372,1.7202 0,0.7372 -0.2458,1.3105 -0.7372,1.802 -0.4915,0.4915 -1.1468,0.7372 -1.8021,0.7372 z" style="fill:#003047;fill-rule:evenodd" id="path101"/>
            <path d="m 342.1406,227.7044 c -0.5734,0 -1.0648,-0.2457 -1.3925,-0.5734 -0.4096,-0.4095 -0.5734,-0.8192 -0.5734,-1.3925 v -17.1198 c 0,-0.5733 0.1638,-1.0648 0.5734,-1.3925 0.3277,-0.4095 0.8191,-0.5734 1.3925,-0.5734 0.5734,0 1.0649,0.1639 1.3925,0.5734 0.4096,0.3277 0.5734,0.8192 0.5734,1.3925 v 17.1198 c 0,0.5733 -0.1638,0.983 -0.5734,1.3925 -0.3276,0.3277 -0.8191,0.5734 -1.3925,0.5734 z" style="fill:#003047;fill-rule:evenodd" id="path103"/>
            <path d="m 327.642,206.489 c 1.7202,0 3.2766,0.3277 4.751,1.1468 1.3925,0.7372 2.4574,1.884 3.2765,3.3585 0.8191,1.4744 1.2287,3.2764 1.2287,5.3242 v 9.42 c 0,0.5733 -0.2457,1.0648 -0.5734,1.3925 -0.4095,0.4095 -0.8192,0.5734 -1.3925,0.5734 -0.5734,0 -1.0649,-0.1639 -1.3926,-0.5734 -0.4095,-0.3277 -0.5733,-0.8192 -0.5733,-1.3925 v -9.42 c 0,-2.0478 -0.5734,-3.686 -1.7201,-4.7509 -1.0649,-1.0648 -2.5394,-1.5563 -4.4233,-1.5563 -1.0649,0 -2.0479,0.2457 -2.9489,0.6553 -0.9011,0.4095 -1.5563,0.9829 -2.0478,1.8021 -0.4915,0.7372 -0.7372,1.5563 -0.7372,2.4574 v 10.8124 c 0,0.5733 -0.1638,1.0648 -0.5734,1.3925 -0.3276,0.4095 -0.8191,0.5734 -1.3925,0.5734 -0.5734,0 -1.0649,-0.1639 -1.3925,-0.5734 -0.4096,-0.3277 -0.5734,-0.8192 -0.5734,-1.3925 v -17.1198 c 0,-0.5733 0.1638,-1.0648 0.5734,-1.3925 0.3276,-0.4095 0.8191,-0.5734 1.3925,-0.5734 0.5734,0 1.0649,0.1639 1.3925,0.5734 0.4096,0.3277 0.5734,0.8192 0.5734,1.3925 v 0.4097 c 0.8191,-0.8192 1.8021,-1.4745 2.8669,-1.8841 1.1468,-0.4095 2.3755,-0.6553 3.686,-0.6553 z" style="fill:#003047;fill-rule:evenodd" id="path105"/>
            <path d="m 303.7236,224.3459 c 1.2287,0 2.3755,-0.2457 3.4404,-0.901 1.0648,-0.6552 1.8839,-1.4744 2.4573,-2.6211 0.5734,-1.0649 0.9011,-2.2936 0.9011,-3.6043 0,-1.3924 -0.3277,-2.6211 -0.9011,-3.686 -0.5734,-1.1468 -1.3925,-1.9659 -2.4573,-2.6212 -1.0649,-0.6553 -2.2117,-0.9829 -3.4404,-0.9829 -1.3106,0 -2.4573,0.3276 -3.5222,0.9829 -1.0649,0.6553 -1.884,1.4744 -2.4574,2.6212 -0.5734,1.0649 -0.901,2.2936 -0.901,3.686 0,1.3107 0.3276,2.5394 0.901,3.6043 0.5734,1.1467 1.3925,1.9659 2.4574,2.6211 1.0649,0.6553 2.2116,0.901 3.5222,0.901 z m 0,-17.8569 c 1.9659,0 3.6861,0.4915 5.3243,1.3925 1.6382,0.983 2.8669,2.2117 3.768,3.85 0.983,1.6382 1.4745,3.4403 1.4745,5.488 v 8.519 c 0,0.5733 -0.2458,1.0648 -0.5735,1.3925 -0.4095,0.4095 -0.8191,0.5734 -1.3924,0.5734 -0.5735,0 -1.0649,-0.1639 -1.3926,-0.5734 -0.4095,-0.3277 -0.5733,-0.8192 -0.5733,-1.3925 v -1.3926 c -0.9011,1.0649 -1.9659,1.9659 -3.2766,2.5394 -1.3106,0.6552 -2.7031,0.9829 -4.1775,0.9829 -1.8021,0 -3.5223,-0.4915 -4.9967,-1.3925 -1.4744,-0.9829 -2.7031,-2.2116 -3.5222,-3.8499 -0.9011,-1.6382 -1.3106,-3.4404 -1.3106,-5.4063 0,-2.0477 0.4915,-3.8498 1.3925,-5.488 0.9011,-1.6383 2.2116,-2.867 3.8499,-3.85 1.6382,-0.901 3.4403,-1.3925 5.4062,-1.3925 z" style="fill:#003047;fill-rule:evenodd" id="path107"/>
            <path d="m 307.4916,174.8708 c 1.0649,4.0137 -2.2935,9.9114 -4.0137,11.9592 -2.1298,2.6212 -5.3244,5.3243 -9.6657,6.553 -14.6623,4.0957 -26.7854,-8.6827 -24.328,-21.7887 0.8191,-4.5871 3.2765,-7.9455 5.57,-10.4029 4.3414,-4.5871 11.9593,-6.3892 18.2665,-4.9966 1.8021,0.4095 4.5052,1.4744 5.3243,2.6211 -1.6382,2.867 -6.7168,6.4712 -11.4677,7.3722 -6.7987,1.2287 -13.0241,-4.0956 -14.4985,1.6382 1.1467,0.2457 3.768,1.3926 6.1434,1.9659 9.2561,2.1298 19.9048,-2.6212 24.328,-11.0582 0.3277,-0.6553 0.4096,-0.6553 -0.0819,-1.2287 -2.2117,-2.7031 -8.4369,-4.9966 -12.6964,-5.4062 -10.403,-1.0648 -17.6112,4.9967 -21.2973,10.6486 -4.7509,7.4541 -4.669,17.6932 0.3276,24.9015 4.9148,7.2082 12.8603,11.0582 21.9526,9.9113 8.437,-1.0648 15.072,-6.3072 18.1846,-14.007 0.8192,-1.9659 1.3925,-4.1775 1.6382,-6.553 0.1639,-1.3106 0.2458,-2.6211 0.082,-3.8498 -0.2458,-1.6383 -0.2458,-2.0479 -1.8021,-2.1298 -8.7646,-0.7372 -15.8091,4.5871 -20.1505,11.6316 -6.553,10.6487 0.2457,9.8295 0.4915,9.5838 0.2457,-0.3277 0.3276,-3.1946 2.1297,-6.9626 2.5393,-5.4063 8.8466,-10.4029 15.5634,-10.4029 z" style="fill:#003047;fill-rule:evenodd" id="path109"/>
            <path d="m 279.8052,224.3459 c 1.3106,0 2.4573,-0.2457 3.5222,-0.901 0.983,-0.6552 1.802,-1.4744 2.4574,-2.6211 0.5733,-1.0649 0.8191,-2.2936 0.8191,-3.6861 0,-1.3106 -0.2458,-2.5393 -0.8191,-3.6861 -0.6554,-1.0649 -1.4744,-1.884 -2.4574,-2.5393 -1.0649,-0.6553 -2.2116,-0.9829 -3.5222,-0.9829 -1.2287,0 -2.3755,0.3276 -3.4404,0.9829 -1.0649,0.6553 -1.8839,1.4744 -2.4573,2.5393 -0.6553,1.1468 -0.9011,2.3755 -0.9011,3.6861 0,1.3925 0.2458,2.6212 0.9011,3.6861 0.5734,1.1467 1.3924,1.9659 2.4573,2.6211 1.0649,0.6553 2.2117,0.901 3.4404,0.901 z m 8.6008,-29.7342 c 0.6552,0 1.0649,0.1639 1.4744,0.5734 0.3277,0.3277 0.4915,0.8192 0.4915,1.3925 v 20.5601 c 0,2.0477 -0.4096,3.8499 -1.3925,5.4881 -0.9011,1.5563 -2.2116,2.867 -3.768,3.8499 -1.6382,0.901 -3.4403,1.3925 -5.4062,1.3925 -1.9659,0 -3.7681,-0.4915 -5.4063,-1.3925 -1.5563,-0.9829 -2.8669,-2.2936 -3.768,-3.8499 -0.9829,-1.6382 -1.3925,-3.4404 -1.3925,-5.4881 0,-1.9659 0.4096,-3.768 1.3107,-5.4062 0.819,-1.6383 1.9659,-2.9489 3.5221,-3.85 1.4745,-0.901 3.1128,-1.3925 4.9967,-1.3925 1.4745,0 2.8669,0.3277 4.1776,0.983 1.2287,0.5734 2.3754,1.3925 3.1946,2.5393 v -13.4337 c 0,-0.5733 0.2457,-1.0648 0.5734,-1.3925 0.4095,-0.4095 0.8191,-0.5734 1.3925,-0.5734 z" style="fill:#003047;fill-rule:evenodd" id="path111"/>
            <path d="m 255.8048,224.3459 c 1.3106,0 2.4574,-0.2457 3.5222,-0.901 1.0649,-0.6552 1.8021,-1.4744 2.4574,-2.6211 0.5734,-1.0649 0.8191,-2.2936 0.8191,-3.6043 0,-1.3924 -0.2457,-2.6211 -0.8191,-3.686 -0.6553,-1.1468 -1.3925,-1.9659 -2.4574,-2.6212 -1.0648,-0.6553 -2.2116,-0.9829 -3.5222,-0.9829 -1.2287,0 -2.3755,0.3276 -3.4403,0.9829 -1.0649,0.6553 -1.8841,1.4744 -2.4574,2.6212 -0.5734,1.0649 -0.9011,2.2936 -0.9011,3.686 0,1.3107 0.3277,2.5394 0.9011,3.6043 0.5733,1.1467 1.3925,1.9659 2.4574,2.6211 1.0648,0.6553 2.2116,0.901 3.4403,0.901 z m 0,-17.8569 c 2.0478,0 3.7679,0.4915 5.4062,1.3925 1.5563,0.983 2.867,2.2117 3.768,3.85 0.9829,1.6382 1.3925,3.4403 1.3925,5.488 v 8.519 c 0,0.5733 -0.1639,1.0648 -0.4914,1.3925 -0.4097,0.4095 -0.9011,0.5734 -1.3926,0.5734 -0.5733,0 -1.0648,-0.1639 -1.4744,-0.5734 -0.3276,-0.3277 -0.4915,-0.8192 -0.4915,-1.3925 v -1.3926 c -0.901,1.0649 -2.0478,1.9659 -3.2765,2.5394 -1.3106,0.6552 -2.7031,0.9829 -4.1775,0.9829 -1.8021,0 -3.5223,-0.4915 -4.9967,-1.3925 -1.4744,-0.9829 -2.7031,-2.2116 -3.5223,-3.8499 -0.901,-1.6382 -1.3105,-3.4404 -1.3105,-5.4063 0,-2.0477 0.4915,-3.8498 1.3925,-5.488 0.901,-1.6383 2.2116,-2.867 3.8498,-3.85 1.5564,-0.901 3.3585,-1.3925 5.3244,-1.3925 z" style="fill:#003047;fill-rule:evenodd" id="path113"/>
            <path d="m 231.9683,224.3459 c 1.3105,0 2.4573,-0.2457 3.5221,-0.901 0.983,-0.6552 1.8022,-1.4744 2.3756,-2.6211 0.6552,-1.0649 0.901,-2.2936 0.901,-3.6861 0,-1.3106 -0.2458,-2.5393 -0.901,-3.6861 -0.5734,-1.0649 -1.3926,-1.884 -2.3756,-2.5393 -1.0648,-0.6553 -2.2116,-0.9829 -3.5221,-0.9829 -1.3107,0 -2.4574,0.3276 -3.4404,0.9829 -1.0649,0.6553 -1.884,1.4744 -2.4573,2.5393 -0.6554,1.1468 -0.9011,2.3755 -0.9011,3.6861 0,1.3925 0.2457,2.6212 0.9011,3.6861 0.5733,1.1467 1.3924,1.9659 2.4573,2.6211 0.983,0.6553 2.1297,0.901 3.4404,0.901 z m 8.6008,-26.7034 c 0.5733,0 1.0648,0.2457 1.4744,0.5734 0.3276,0.3276 0.4915,0.8191 0.4915,1.3925 v 17.5293 c 0,2.0477 -0.4915,3.8499 -1.3926,5.4881 -0.901,1.5563 -2.2116,2.867 -3.7679,3.8499 -1.6383,0.901 -3.4403,1.3925 -5.4062,1.3925 -1.9659,0 -3.768,-0.4915 -5.4063,-1.3925 -1.6383,-0.9829 -2.867,-2.2936 -3.768,-3.8499 -0.9829,-1.6382 -1.3924,-3.4404 -1.3924,-5.4881 0,-1.9659 0.4095,-3.768 1.2286,-5.4062 0.901,-1.6383 2.0478,-2.9489 3.6042,-3.85 1.4744,-0.901 3.1126,-1.3925 4.9967,-1.3925 1.4744,0 2.8669,0.3277 4.0956,0.983 1.3106,0.5734 2.3754,1.3925 3.2765,2.5393 v -10.4029 c 0,-0.5734 0.2457,-1.0649 0.5733,-1.3925 0.4096,-0.3277 0.8192,-0.5734 1.3926,-0.5734 z" style="fill:#003047;fill-rule:evenodd" id="path115"/>
            <path d="m 216.3229,203.2125 c -0.6553,0 -1.3105,-0.2457 -1.802,-0.7372 -0.4915,-0.4915 -0.7372,-1.0648 -0.7372,-1.802 0,-0.6554 0.2457,-1.2287 0.7372,-1.7202 0.4915,-0.5734 1.1467,-0.8191 1.802,-0.8191 0.7372,0 1.3106,0.2457 1.8021,0.8191 0.4915,0.4915 0.7372,1.0648 0.7372,1.7202 0,0.7372 -0.2457,1.3105 -0.7372,1.802 -0.4915,0.4915 -1.0649,0.7372 -1.8021,0.7372 z" style="fill:#003047;fill-rule:evenodd" id="path117"/>
            <path d="m 216.3229,227.7044 c -0.5733,0 -0.9829,-0.2457 -1.3925,-0.5734 -0.3277,-0.4095 -0.5734,-0.8192 -0.5734,-1.3925 v -17.1198 c 0,-0.5733 0.2457,-1.0648 0.5734,-1.3925 0.4096,-0.4095 0.8192,-0.5734 1.3925,-0.5734 0.5734,0 1.0649,0.1639 1.4744,0.5734 0.3277,0.3277 0.4915,0.8192 0.4915,1.3925 v 17.1198 c 0,0.5733 -0.1638,0.983 -0.4915,1.3925 -0.4095,0.3277 -0.901,0.5734 -1.4744,0.5734 z" style="fill:#003047;fill-rule:evenodd" id="path119"/>
            <path d="m 203.5446,227.8682 c -1.9659,0 -3.768,-0.4915 -5.4063,-1.3925 -1.6382,-0.9829 -2.8669,-2.2116 -3.7679,-3.8499 -0.9011,-1.6382 -1.3926,-3.4404 -1.3926,-5.4063 0,-2.0477 0.4097,-3.9318 1.3107,-5.57 0.901,-1.6382 2.1297,-2.8669 3.686,-3.768 1.6383,-0.901 3.4404,-1.3925 5.4063,-1.3925 3.0308,0 5.57,1.1468 7.5359,3.4404 0.2457,0.3276 0.4096,0.6552 0.4096,1.0649 0,0.5733 -0.3277,0.9829 -0.9011,1.3924 -0.2457,0.1638 -0.4915,0.2458 -0.8191,0.2458 -0.6553,0 -1.1468,-0.1638 -1.5563,-0.6553 -0.5734,-0.7372 -1.3107,-1.2287 -2.0479,-1.5564 -0.7372,-0.3276 -1.6382,-0.4914 -2.6211,-0.4914 -1.9659,0 -3.6042,0.7372 -4.8328,2.0478 -1.2287,1.3105 -1.8022,3.0307 -1.8022,5.2423 0,1.3926 0.2458,2.6213 0.9011,3.6861 0.5734,1.0649 1.3106,1.9659 2.3755,2.5393 1.0648,0.6553 2.2116,0.901 3.5222,0.901 1.8021,0 3.1945,-0.4095 4.2594,-1.3105 0.4915,-0.3277 0.983,-0.5734 1.3925,-0.5734 0.4096,0 0.7372,0.1638 1.0649,0.4095 0.4915,0.4096 0.7372,0.8192 0.7372,1.3926 0,0.3276 -0.1638,0.6553 -0.4914,0.9829 -1.884,1.7202 -4.1776,2.6212 -6.9626,2.6212 z" style="fill:#003047;fill-rule:evenodd" id="path121"/>
          </g>
          <path d="m 393.0082,223.1992 c -1.3105,-0.3277 -8.7646,-0.082 -10.7305,-0.082 -0.6552,0 -1.9659,0.082 -2.2936,-0.4914 -0.7372,-1.1468 3.1128,-3.6041 3.85,-4.0956 4.0137,-2.8669 9.9114,-5.3243 9.2561,-12.4507 -0.4095,-3.6042 -2.0479,-5.3244 -4.0956,-6.7169 -3.3585,-2.3754 -9.0923,-2.1296 -12.5326,0.4096 -2.2117,1.6383 -3.3585,4.0957 -3.85,6.8806 -0.5733,3.0308 -0.1638,2.7851 2.5393,2.7851 3.3584,0 2.2117,0.0819 2.9489,-2.5393 0.8192,-2.9489 2.7851,-5.0786 6.1434,-4.1776 1.3107,0.4097 2.3755,1.3926 2.8669,2.5393 3.1128,7.6179 -10.9762,9.9933 -14.3346,17.6112 -0.3277,0.8192 -1.2287,3.2765 -0.9011,4.4233 0.1639,0.8191 1.2287,0.5734 2.0479,0.5734 2.3754,0 18.3483,0.082 18.8398,-0.0819 0.7372,-0.2458 0.4915,-1.2287 0.5734,-2.0478 0,-1.0649 0.082,-1.7201 -0.3277,-2.5393 z m 2.5394,-4.9148 c -0.5735,2.9489 1.6382,6.553 3.1126,7.6179 2.4574,1.9659 5.2424,2.7851 8.6008,2.4574 3.2766,-0.2458 6.1435,-1.5564 7.6998,-3.2766 2.6212,-3.1126 3.5223,-8.9284 -0.3276,-11.7134 -0.3276,-0.2457 -1.3925,-0.7372 -1.5563,-1.1468 -0.4097,-0.8191 0.5733,-1.2286 1.0648,-1.6383 3.686,-3.0307 2.4574,-11.222 -5.4881,-12.6964 -3.4403,-0.5734 -6.6349,0.2458 -8.7647,1.884 -0.901,0.7372 -1.802,1.6383 -2.4574,2.9488 -0.4095,0.7372 -1.3925,3.2766 -1.2287,4.2595 0.1639,0.8192 1.2287,0.7372 2.0479,0.6553 3.5222,-0.0819 2.785,0.4096 3.5222,-1.9659 1.3106,-4.2594 6.7168,-4.2594 8.5189,-1.2287 1.3107,2.2936 0.1638,5.5701 -4.0956,5.9796 -0.9829,0 -1.6383,-0.0819 -1.8021,0.901 -0.4915,4.5872 1.4744,2.1298 4.5871,3.6043 4.1775,2.0477 2.7031,9.4198 -3.1127,8.9284 -5.0785,-0.4096 -4.587,-4.9966 -5.4062,-5.652 -0.7372,-0.5733 -4.2595,-0.2457 -4.9147,0.0819 z" style="fill:#0aa498;fill-rule:evenodd" id="path124"/>
        </g>
      </g>
    </g>
  </g>
</svg>