<?xml version="1.0" encoding="utf-8"?>
<!-- Generator: Adobe Illustrator 24.0.1, SVG Export Plug-In . SVG Version: 6.00 Build 0)  -->
<svg version="1.1"
	 id="svg101" xmlns:cc="http://creativecommons.org/ns#" xmlns:dc="http://purl.org/dc/elements/1.1/" xmlns:inkscape="http://www.inkscape.org/namespaces/inkscape" xmlns:rdf="http://www.w3.org/1999/02/22-rdf-syntax-ns#" xmlns:sodipodi="http://sodipodi.sourceforge.net/DTD/sodipodi-0.dtd" xmlns:svg="http://www.w3.org/2000/svg"
	 xmlns="http://www.w3.org/2000/svg" xmlns:xlink="http://www.w3.org/1999/xlink" x="0px" y="0px" viewBox="0 0 1085.2 894.2"
	 style="enable-background:new 0 0 1085.2 894.2;" xml:space="preserve">
<style type="text/css">
	.st0{fill:url(#path15-2_1_);}
	.st1{fill:url(#path26-2_1_);}
	.st2{fill:url(#path41-0_1_);}
	.st3{fill:url(#path54-8_1_);}
	.st4{fill-rule:evenodd;clip-rule:evenodd;}
	.st5{fill:url(#path76-8_1_);}
	.st6{fill:url(#path92-1_1_);}
</style>
<sodipodi:namedview  bordercolor="#666666" borderopacity="1" fit-margin-bottom="0" fit-margin-left="0" fit-margin-right="0.6" fit-margin-top="0" gridtolerance="10" guidetolerance="10" id="namedview60" inkscape:current-layer="Layer1001-6" inkscape:cx="959.89426" inkscape:cy="294.6434" inkscape:pageopacity="0" inkscape:pageshadow="2" inkscape:window-height="837" inkscape:window-maximized="1" inkscape:window-width="1600" inkscape:window-x="-8" inkscape:window-y="-8" inkscape:zoom="0.22627417" objecttolerance="10" pagecolor="#ffffff" showgrid="false">
	</sodipodi:namedview>
<g id="Layer1001-3" transform="matrix(2.174866,0,0,2.174866,-379.77953,-299.34422)" inkscape:export-filename="C:\Users\suitedoalex\sites\mdb-logo-partido.png" inkscape:export-xdpi="338.32001" inkscape:export-ydpi="338.32001">
	
		<linearGradient id="path15-2_1_" gradientUnits="userSpaceOnUse" x1="213.5974" y1="50.9879" x2="433.93" y2="50.9879" gradientTransform="matrix(5.6568 0 0 -0.8362 -1079.8683 455.6581)">
		<stop  offset="0" style="stop-color:#B5500B"/>
		<stop  offset="0.15" style="stop-color:#F07C00"/>
		<stop  offset="0.23" style="stop-color:#F07C00"/>
		<stop  offset="0.48" style="stop-color:#FFCB00"/>
		<stop  offset="1" style="stop-color:#FFEC00"/>
	</linearGradient>
	<path id="path15-2" inkscape:connector-curvature="0" class="st0" d="M701.5,406.8c-12.8,18.7-5.4,12.6-20.1,23.7
		c-98-13.8-404-6.6-541,24.4c-18.6,6.4-11.9-40.7-4.5-64c86.8-9.4,176.1-22,262.2-19.9C505.9,370.3,629.5,392.7,701.5,406.8
		L701.5,406.8z"/>
	
		<linearGradient id="path26-2_1_" gradientUnits="userSpaceOnUse" x1="213.4276" y1="73.0384" x2="441.5608" y2="73.0384" gradientTransform="matrix(5.5685 0 0 -0.8494 -1062.7034 463.2627)">
		<stop  offset="0" style="stop-color:#F07C00"/>
		<stop  offset="0.18" style="stop-color:#FFCB00"/>
		<stop  offset="1" style="stop-color:#FFEC00"/>
	</linearGradient>
	<path id="path26-2" inkscape:connector-curvature="0" class="st1" d="M707.9,373c6.6,12.6-4.6,38.1-21,51.6
		c-82-25.5-416.9-11.9-557.7,21.2c-7.5-26.1-1.8-52.4,6.3-73.4C253.9,357.8,512.1,345.7,707.9,373L707.9,373z"/>
	
		<linearGradient id="path41-0_1_" gradientUnits="userSpaceOnUse" x1="221.4163" y1="38.2924" x2="450.1682" y2="38.2924" gradientTransform="matrix(5.1854 0 0 -0.9122 -988.2424 499.2496)">
		<stop  offset="0" style="stop-color:#003912"/>
		<stop  offset="0.15" style="stop-color:#003912"/>
		<stop  offset="0.22" style="stop-color:#5D6E0A"/>
		<stop  offset="0.48" style="stop-color:#006828"/>
		<stop  offset="1" style="stop-color:#B1C900"/>
	</linearGradient>
	<path id="path41-0" inkscape:connector-curvature="0" class="st2" d="M705.3,440.8c-12.2,19.2-5.2,12.8-19.1,24.5
		c-93.2-9.8-384.5,9.8-514.8,46.4c-17.7,7.1-11.3-40.2-4.3-63.8c82.7-12.9,167.6-29.1,249.6-30.6
		C519.2,412.2,636.8,429.6,705.3,440.8L705.3,440.8z"/>
	
		<linearGradient id="path54-8_1_" gradientUnits="userSpaceOnUse" x1="221.6495" y1="66.2375" x2="461.5933" y2="66.2375" gradientTransform="matrix(5.049 0 0 -0.9368 -961.7253 513.3838)">
		<stop  offset="0" style="stop-color:#003912"/>
		<stop  offset="0.15" style="stop-color:#5D6E0A"/>
		<stop  offset="0.38" style="stop-color:#009035"/>
		<stop  offset="1" style="stop-color:#B1C900"/>
	</linearGradient>
	<path id="path54-8" inkscape:connector-curvature="0" class="st3" d="M713.2,407.1c5.2,17.3-6.1,37.9-21.7,52
		c-78.1-22.1-396.8,5-530.8,43.9c-7.1-25.8-1.7-52.3,6-73.6C279.4,410,526.8,387.8,713.2,407.1L713.2,407.1z"/>
</g>
<g id="Layer1000-0" transform="matrix(1.8668911,0,0,1.8668911,-30.890631,328.43869)">
	<g id="Layer1001-6">
		
			<path id="path56-2" inkscape:connector-curvature="0" inkscape:export-filename="C:\Users\suitedoalex\sites\mdb-logo-partido.png" inkscape:export-xdpi="338.32001" inkscape:export-ydpi="338.32001" sodipodi:nodetypes="ccccscccccccccccccccccscccscscccscccscccscccscccccscscsccccscscsccc" class="st4" d="
			M388.4,106l8.8-55.5c-5.7,13.5-12.5,24.2-20.4,32.3c-8.3,8.4-17.9,14.4-28.6,17.9c-10.7,3.5-27.6,5.3-50.4,5.3h-40.2h-3.4h-46.5
			l18.9-153.2L177.5,106h-39.1l-2.4-153.5L106.7,106H57L80.9,2.3c0,0,20-89.2,23.7-103.2h67.6l0.6,109.1l35.1-109.1h67.3L261.5,60
			l25.6-160.9h43.8c27.6,0,47.9,6.4,61,19.3c10.8,10.6,17.1,25.9,19,45.9l10.4-65.2h53.4c25.9,0,44.5,3.7,55.8,11.2
			c11.4,7.5,17,19.6,17,36.4c0,13.6-3.7,24.6-11.1,33c-7.4,8.4-18.4,14.2-33.1,17.4c10.8,3,19.3,8.4,25.2,16
			c5.9,7.6,8.9,16.9,8.9,27.8c0,9.7-2,18.9-6.1,27.6c-4.1,8.7-9.8,15.9-17.2,21.8c-6.8,5.6-14.8,9.6-24,12
			c-9.2,2.5-21.5,3.7-36.9,3.7L388.4,106z M320.5,55c0.4,0.1,0.8,0.1,1.2,0.2c0.4,0,1.1,0.1,1.9,0.1c3.4,0,6.6-0.8,9.7-2.4
			c3.1-1.6,5.7-3.8,7.7-6.7c3.4-4.5,6.7-13.7,9.8-27.7c3.1-13.9,4.7-27.8,4.7-41.6c0-9-1.5-15.5-4.3-19.7c-2.9-4.2-7.6-6.5-14-7
			L320.5,55z M452.3,62.7c1,0.2,1.9,0.3,3,0.4c1,0.1,2.3,0.1,4,0.1c6.8,0,11.9-2.3,15.5-6.8c3.5-4.5,5.3-11,5.3-19.5
			c0-6.5-1.6-11.4-4.8-14.7c-3.2-3.2-8-4.9-14.6-4.9H459L452.3,62.7z M465-21.2c0.7,0.1,1.6,0.1,2.4,0.2c0.9,0,2.2,0.1,4,0.1
			c6.4,0,11.5-1.8,15.2-5.5c3.7-3.6,5.6-8.6,5.6-14.8c0-5.3-1.5-9.3-4.5-11.9c-3-2.7-7.4-4.1-13.1-4.1c-0.5,0-1.2,0-2,0.1
			c-0.9,0.1-1.5,0.1-1.8,0.1L465-21.2z"/>
	</g>
</g>
<linearGradient id="path76-8_1_" gradientUnits="userSpaceOnUse" x1="643.9919" y1="909.1894" x2="643.9919" y2="722.6182" gradientTransform="matrix(0.9902 0 0 -2.564 -268.1044 2243.7859)">
	<stop  offset="0" style="stop-color:#FFCB00"/>
	<stop  offset="8.000000e-02" style="stop-color:#E30016"/>
	<stop  offset="0.32" style="stop-color:#F07C00"/>
	<stop  offset="0.58" style="stop-color:#FFCB00"/>
	<stop  offset="0.78" style="stop-color:#E30016"/>
	<stop  offset="0.94" style="stop-color:#000200"/>
	<stop  offset="1" style="stop-color:#000200"/>
</linearGradient>
<path id="path76-8" inkscape:connector-curvature="0" inkscape:export-filename="C:\Users\suitedoalex\sites\mdb-logo-partido.png" inkscape:export-xdpi="338.32001" inkscape:export-ydpi="338.32001" class="st5" d="
	M452.5-87.3c28.6,150.3-11.9,201.6-59.4,244c-54.5,48.8-104.6,127.6-89.2,234.3C248.1,214,289.5,130.8,340,88.6
	C376.8,57.9,446.8,34.3,452.5-87.3L452.5-87.3z"/>
<linearGradient id="path92-1_1_" gradientUnits="userSpaceOnUse" x1="644.9466" y1="915.4609" x2="644.9466" y2="732.4748" gradientTransform="matrix(0.9841 0 0 -2.5798 -267.8422 2258.8481)">
	<stop  offset="0" style="stop-color:#9D1012"/>
	<stop  offset="0.3" style="stop-color:#E30016"/>
	<stop  offset="0.41" style="stop-color:#E30016"/>
	<stop  offset="0.56" style="stop-color:#9D1012"/>
	<stop  offset="1" style="stop-color:#E30016"/>
</linearGradient>
<path id="path92-1" inkscape:connector-curvature="0" inkscape:export-filename="C:\Users\suitedoalex\sites\mdb-logo-partido.png" inkscape:export-xdpi="338.32001" inkscape:export-ydpi="338.32001" class="st6" d="
	M450.4-102.9c23.1,152.7-19.1,209.6-61.4,248.7c-42.2,39-102.9,106.5-92.8,223.4c-44.3-170.1-5.4-232.8,44.4-281.9
	C388.8,39.6,447.3,4.7,450.4-102.9z"/>
</svg>
