<?xml version="1.0" encoding="utf-8"?>
<svg viewBox="0 0 500 500" xmlns="http://www.w3.org/2000/svg">
  <g id="g10" transform="matrix(0.600449, 0, 0, -0.600449, -166.555573, 472.588501)" style="">
    <g id="g12" transform="scale(0.1)">
      <path d="m 7130.76,3835.58 c 0,-91.92 -74.46,-166.26 -166.18,-166.26 h -758.17 c -91.77,0 -166.29,74.34 -166.29,166.26 v 392.53 c 0,91.72 74.52,166.26 166.29,166.26 h 758.17 c 91.72,0 166.18,-74.54 166.18,-166.26 z m -166.18,894.78 h -758.17 c -277.09,0 -502.52,-225.28 -502.52,-502.25 v -392.53 c 0,-276.99 225.43,-502.28 502.52,-502.28 h 758.17 c 277,0 502.14,225.29 502.14,502.28 v 392.53 c 0,276.97 -225.14,502.25 -502.14,502.25" style="fill:#f25c19;fill-opacity:1;fill-rule:nonzero;stroke:none" id="path14"/>
      <path d="m 10737.3,3835.58 c 0,-91.92 -74.5,-166.26 -166.2,-166.26 h -758.14 c -91.77,0 -166.29,74.34 -166.29,166.26 v 392.53 c 0,91.72 74.52,166.26 166.29,166.26 h 758.14 c 91.7,0 166.2,-74.54 166.2,-166.26 z m -166.2,894.78 h -758.14 c -277.09,0 -502.52,-225.28 -502.52,-502.25 v -392.53 c 0,-276.99 225.43,-502.28 502.52,-502.28 h 758.14 c 277,0 502.2,225.29 502.2,502.28 v 392.53 c 0,276.97 -225.2,502.25 -502.2,502.25" style="fill:#f25c19;fill-opacity:1;fill-rule:nonzero;stroke:none" id="path16"/>
      <path d="M 4999.44,4730.55 H 3271.7 l -477.59,-0.11 c 0,-235.7 164.35,-337.18 363.59,-335.53 0.32,0 597.57,0.09 597.57,0.09 v -194.82 l -695.64,-0.05 c 0,-235.69 164.35,-337.17 363.59,-335.52 0.18,0 172.53,0.03 332.05,0.05 v -194.51 l -343.1,-0.05 c -0.38,-8.32 -0.51,-8.65 -0.51,-8.84 0.09,-192.65 156.83,-341.07 343.61,-341.07 192.51,0 333.69,147.12 333.69,341.78 l -0.09,565.93 c 0,91.86 74.84,167.01 166.99,167.01 h 737.75 c 92.15,0 166.99,-75.15 166.99,-167.01 l -0.19,-894.03 h 338.4 l -0.61,894.03 c 0,275.2 -224.25,498.14 -498.76,502.65" style="fill:#f25c19;fill-opacity:1;fill-rule:nonzero;stroke:none" id="path18"/>
      <path d="m 8923.25,4730.55 -481.97,-1035.5 -0.03,-0.03 c -8.67,-20.21 -28.74,-34.4 -52.14,-34.4 0,0 -0.41,-0.02 -0.52,-0.02 v -0.05 l -0.02,0.05 c -0.11,0 -0.52,0.02 -0.52,0.02 -23.39,0 -43.46,14.19 -52.14,34.4 l -0.02,0.03 -481.98,1035.5 h -370.74 l 558.74,-1198.22 0.2,-0.02 c 61.81,-129.41 193.54,-219.08 346.47,-219.08 152.93,0 284.66,89.67 346.48,219.08 l 0.19,0.02 558.74,1198.22 h -370.74" style="fill:#f25c19;fill-opacity:1;fill-rule:nonzero;stroke:none" id="path20"/>
    </g>
  </g>
</svg>