<?xml version="1.0" encoding="UTF-8" standalone="no"?>
<svg
   xmlns:ooo="http://xml.openoffice.org/svg/export"
   xmlns:dc="http://purl.org/dc/elements/1.1/"
   xmlns:cc="http://creativecommons.org/ns#"
   xmlns:rdf="http://www.w3.org/1999/02/22-rdf-syntax-ns#"
   xmlns:svg="http://www.w3.org/2000/svg"
   xmlns="http://www.w3.org/2000/svg"
   xmlns:sodipodi="http://sodipodi.sourceforge.net/DTD/sodipodi-0.dtd"
   xmlns:inkscape="http://www.inkscape.org/namespaces/inkscape"
   version="1.2"
   width="200"
   height="70.296623"
   viewBox="0 0 5644.4446 1983.9269"
   preserveAspectRatio="xMidYMid"
   clip-path="url(#presentation_clip_path)"
   xml:space="preserve"
   id="svg2"
   inkscape:version="0.48.4 r9939"
   sodipodi:docname="marca_mono_h.svg"
   style="fill-rule:evenodd;stroke-width:28.22200012;stroke-linejoin:round"><metadata
     id="metadata120"><rdf:RDF><cc:Work
         rdf:about=""><dc:format>image/svg+xml</dc:format><dc:type
           rdf:resource="http://purl.org/dc/dcmitype/StillImage" /></cc:Work></rdf:RDF></metadata><sodipodi:namedview
     pagecolor="#ffffff"
     bordercolor="#666666"
     borderopacity="1"
     objecttolerance="10"
     gridtolerance="10"
     guidetolerance="10"
     inkscape:pageopacity="0"
     inkscape:pageshadow="2"
     inkscape:window-width="1440"
     inkscape:window-height="876"
     id="namedview118"
     showgrid="false"
     fit-margin-top="0"
     fit-margin-left="0"
     fit-margin-right="0"
     fit-margin-bottom="0"
     inkscape:zoom="0.63"
     inkscape:cx="227.16141"
     inkscape:cy="-65.515749"
     inkscape:window-x="0"
     inkscape:window-y="24"
     inkscape:window-maximized="1"
     inkscape:current-layer="svg2" /><defs
     class="ClipPathGroup"
     id="defs4"><clipPath
       id="presentation_clip_path"
       clipPathUnits="userSpaceOnUse"><rect
         x="0"
         y="0"
         width="29700"
         height="21000"
         id="rect7" /></clipPath></defs><defs
     class="TextShapeIndex"
     id="defs9"><g
       ooo:slide="id1"
       ooo:id-list="id3 id4 id5 id6 id7 id8 id9 id10 id11 id12 id13 id14"
       id="g11" /></defs><defs
     class="EmbeddedBulletChars"
     id="defs13"><g
       id="bullet-char-template(57356)"
       transform="scale(4.8828125e-4,-4.8828125e-4)"><path
         d="M 580,1141 1163,571 580,0 -4,571 580,1141 z"
         id="path16"
         inkscape:connector-curvature="0" /></g><g
       id="bullet-char-template(57354)"
       transform="scale(4.8828125e-4,-4.8828125e-4)"><path
         d="m 8,1128 1129,0 L 1137,0 8,0 8,1128 z"
         id="path19"
         inkscape:connector-curvature="0" /></g><g
       id="bullet-char-template(10146)"
       transform="scale(4.8828125e-4,-4.8828125e-4)"><path
         d="M 174,0 602,739 174,1481 1456,739 174,0 z m 1184,739 -1049,607 350,-607 699,0 z"
         id="path22"
         inkscape:connector-curvature="0" /></g><g
       id="bullet-char-template(10132)"
       transform="scale(4.8828125e-4,-4.8828125e-4)"><path
         d="M 2015,739 1276,0 717,0 l 543,543 -1086,0 0,393 1086,0 -543,545 557,0 741,-742 z"
         id="path25"
         inkscape:connector-curvature="0" /></g><g
       id="bullet-char-template(10007)"
       transform="scale(4.8828125e-4,-4.8828125e-4)"><path
         d="m 0,-2 c -7,16 -16,29 -25,39 l 381,530 c -94,256 -141,385 -141,387 0,25 13,38 40,38 9,0 21,-2 34,-5 21,4 42,12 65,25 l 27,-13 111,-251 280,301 64,-25 24,25 c 21,-10 41,-24 62,-43 C 886,937 835,863 770,784 769,783 710,716 594,584 L 774,223 c 0,-27 -21,-55 -63,-84 l 16,-20 C 717,90 699,76 672,76 641,76 570,178 457,381 L 164,-76 c -22,-34 -53,-51 -92,-51 -42,0 -63,17 -64,51 -7,9 -10,24 -10,44 0,9 1,19 2,30 z"
         id="path28"
         inkscape:connector-curvature="0" /></g><g
       id="bullet-char-template(10004)"
       transform="scale(4.8828125e-4,-4.8828125e-4)"><path
         d="M 285,-33 C 182,-33 111,30 74,156 52,228 41,333 41,471 c 0,78 14,145 41,201 34,71 87,106 158,106 53,0 88,-31 106,-94 l 23,-176 c 8,-64 28,-97 59,-98 l 735,706 c 11,11 33,17 66,17 42,0 63,-15 63,-46 l 0,-122 c 0,-36 -10,-64 -30,-84 L 442,47 C 390,-6 338,-33 285,-33 z"
         id="path31"
         inkscape:connector-curvature="0" /></g><g
       id="bullet-char-template(9679)"
       transform="scale(4.8828125e-4,-4.8828125e-4)"><path
         d="M 813,0 C 632,0 489,54 383,161 276,268 223,411 223,592 c 0,181 53,324 160,431 106,107 249,161 430,161 179,0 323,-54 432,-161 108,-107 162,-251 162,-431 0,-180 -54,-324 -162,-431 C 1136,54 992,0 813,0 z"
         id="path34"
         inkscape:connector-curvature="0" /></g><g
       id="bullet-char-template(8226)"
       transform="scale(4.8828125e-4,-4.8828125e-4)"><path
         d="m 346,457 c -73,0 -137,26 -191,78 -54,51 -81,114 -81,188 0,73 27,136 81,188 54,52 118,78 191,78 73,0 134,-26 185,-79 51,-51 77,-114 77,-187 0,-75 -25,-137 -76,-188 -50,-52 -112,-78 -186,-78 z"
         id="path37"
         inkscape:connector-curvature="0" /></g><g
       id="bullet-char-template(8211)"
       transform="scale(4.8828125e-4,-4.8828125e-4)"><path
         d="m -4,459 1139,0 0,147 -1139,0 0,-147 z"
         id="path40"
         inkscape:connector-curvature="0" /></g></defs><defs
     class="TextEmbeddedBitmaps"
     id="defs42" /><g
     id="g44"
     transform="translate(-8439,-6667.073)"><g
       id="id2"
       class="Master_Slide"><g
         id="bg-id2"
         class="Background" /><g
         id="bo-id2"
         class="BackgroundObjects" /></g></g><g
     id="g58"
     class="com.sun.star.drawing.ClosedBezierShape"
     transform="matrix(0.45871146,0,0,0.45871146,-3871.066,-1984.3859)"><g
       id="id3"><path
         style="fill:#e30016;stroke:none"
         inkscape:connector-curvature="0"
         id="path61"
         d="m 8887,8633 -448,-438 972,-972 c 286,199 633,317 1008,317 257,0 505,-57 725,-157 l -1383,-1387 -657,661 -665,-657 1324,-1319 1317,1 -878,878 1460,1466 c 323,-318 513,-753 513,-1241 0,-610 -305,-1145 -777,-1459 830,234 1435,989 1435,1894 0,549 -220,1045 -581,1404 l 582,572 -438,437 -647,-641 c -268,135 -570,210 -889,210 -437,0 -838,-138 -1164,-378 l -809,809 z" /></g></g><g
     id="g63"
     class="com.sun.star.drawing.ClosedBezierShape"
     transform="matrix(0.45871146,0,0,0.45871146,-3871.066,-1984.3859)"><g
       id="id4"><path
         style="fill:#e30016;stroke:none"
         inkscape:connector-curvature="0"
         id="path66"
         d="m 14167,6456 c 0,120 -99,220 -220,220 l -219,0 0,-1536 221,-1 c 121,0 218,98 218,220 l 0,1097 z m 0,0 0,0 z m 439,-1 c 0,369 -290,660 -658,660 l -220,0 0,1535 -449,1 1,-3953 440,0 217,2 c 367,0 669,292 669,659 l 0,1096 z" /></g></g><g
     id="g68"
     class="com.sun.star.drawing.ClosedBezierShape"
     transform="matrix(0.45871146,0,0,0.45871146,-3871.066,-1984.3859)"><g
       id="id5"><path
         style="fill:#e30016;stroke:none"
         inkscape:connector-curvature="0"
         id="path71"
         d="m 15262,7992 c 0,123 96,220 219,220 124,0 220,-97 220,-220 l 0,-877 439,0 0,877 c 0,362 -294,659 -659,659 -363,0 -657,-297 -657,-658 l 0,-2633 c 0,-365 296,-662 659,-662 362,0 657,295 657,660 l 0,878 -439,0 0,-877 c 0,-124 -95,-226 -218,-226 -123,0 -221,102 -221,225 l 0,2634 z" /></g></g><g
     id="g73"
     class="com.sun.star.drawing.ClosedBezierShape"
     transform="matrix(0.45871146,0,0,0.45871146,-3871.066,-1984.3859)"><g
       id="id6"><path
         style="fill:#e30016;stroke:none"
         inkscape:connector-curvature="0"
         id="path76"
         d="m 16796,6895 c 0,-119 86,-217 219,-220 l 221,0 0,1537 -221,0 c -124,-1 -220,-103 -219,-219 l 0,-1098 z m 0,0 0,0 z m 878,1756 -656,0 c -392,0 -660,-331 -660,-659 l 0,-1097 c 0,-335 323,-658 657,-658 l 221,0 0,-1098 438,0 0,3512 z" /></g></g><g
     id="g78"
     class="com.sun.star.drawing.ClosedBezierShape"
     transform="matrix(0.45871146,0,0,0.45871146,-3871.066,-1984.3859)"><g
       id="id7"><path
         style="fill:#e30016;stroke:none"
         inkscape:connector-curvature="0"
         id="path81"
         d="m 18331,6895 c 0,-120 86,-220 219,-221 114,0 219,93 220,221 l 0,1097 c -2,112 -118,221 -220,220 -124,-1 -221,-103 -219,-220 l 0,-1097 z m 0,0 0,0 z m 878,1097 c 1,370 -342,659 -659,659 -316,0 -662,-284 -657,-658 l 0,-1098 c 0,-383 283,-658 657,-659 355,-1 661,282 659,659 l 0,1097 z" /></g></g><g
     id="g83"
     class="com.sun.star.drawing.ClosedBezierShape"
     transform="matrix(0.45871146,0,0,0.45871146,-3871.066,-1984.3859)"><g
       id="id8"><path
         style="fill:#e30016;stroke:none"
         inkscape:connector-curvature="0"
         id="path86"
         d="m 20744,6017 c 0,239 -193,439 -439,439 246,0 439,195 439,440 l 0,1096 c 0,367 -291,659 -658,659 l -659,0 0,-3953 658,0 c 368,0 659,294 659,661 l 0,658 z m 0,0 0,0 z m -439,-1 0,-658 c 0,-121 -98,-219 -220,-219 l -219,0 0,1097 219,0 c 121,0 220,-99 220,-220 z m 0,0 -219,660 -220,0 0,1536 219,0 c 122,0 220,-98 220,-220 l 0,-1097 c 0,-100 -116,-219 -219,-219 l 219,-660 z" /></g></g></svg>