<svg xmlns="http://www.w3.org/2000/svg" viewBox="0 0 660.47 980.3"><path d="M575.58,280.44c-19.74-18.66-34.42-27.74-47.26-34.94a215.11,215.11,0,0,0-38.66-16.57,50,50,0,0,1-6.68,8l-.43.4c-4.15,3.95-9.3,8.86-16.22,12.11-7.87,3.85-17.92,5.67-29.67,5.35a129.14,129.14,0,0,1-25.48-3.55l-8.58,1a43.3,43.3,0,0,1-4.17,2.06c-4.58,2-9,3.44-13.33,4.87a109.89,109.89,0,0,0-11.74,4.34l-.36.16a101.46,101.46,0,0,0-9.18,4.8,122.08,122.08,0,0,1-13.34,6.79,77,77,0,0,1-8.16,2.78,124.57,124.57,0,0,0-4.77,25.39h4.54c49.15,0,113.58.22,113.58.22l11.61,0v11.61s0,48.1,0,61.26v.52l.1.05a65.22,65.22,0,0,1,6.7,2.31,216.43,216.43,0,0,0,54.24-20.86c12.84-7.21,27.52-16.29,47.26-34.95,4.93-4.65,19.24-21.12,19.7-21.62C594.82,301.56,580.51,285.08,575.58,280.44Z" fill="#05542b"/><path d="M84.87,323.68c19.75,18.66,34.43,27.74,47.26,34.95a216.92,216.92,0,0,0,46.56,18.92c68-60.31,68.9-60.89,69.7-61.44,7.52-5.09,19.95-11.92,41.14-12.41,5.28-.12,18.73-.19,40-.21a121.26,121.26,0,0,0-3.94-22.59c-1.29.06-2.6.09-3.92.05-1.12,0-2.26-.1-3.35-.2-20.91-1.71-36.54-6.92-47.44-15.85l-8.55-1.06c-.75,0-1.87,0-3.24,0-12-.34-35-2.49-54.4-13.17-3.75-2-18.29-10.55-28.33-23.4a216.85,216.85,0,0,0-44.22,18.27c-12.83,7.2-27.51,16.28-47.26,34.94-4.91,4.64-19.25,21.12-19.69,21.62C65.62,302.56,80,319,84.87,323.68Z" fill="#05542b"/><path d="M385.89,754.74C365.81,743.92,343.28,743,320,743l-14.66,0h-53.2l-28.09,0h-4.5v4.51q0,65.9,0,132,0,48.09,0,96.18v4.5h4.49q19.41,0,38.79,0l57.89,0h2.84c21.28,0,40.79-3.39,58.28-10.23,22.05-10.3,40.17-31.11,48.52-55.72,4-12.07,5.23-24.73,6-36.62,1.55-24.13-.31-45.14-5.65-64.18C423.57,787.06,407.2,765.63,385.89,754.74ZM288,795.67a4,4,0,0,1,1.15-2.77,4.57,4.57,0,0,1,2.9-1.14h1.25c2.09,0,4.2,0,6.35,0,13.65-.15,28.23-.31,41.72,5.84,11.22,4.62,19.78,15.79,22.91,29.91,3.84,16.4,4.6,34.8,2.37,58-1.6,17.32-7.4,29.95-17.29,37.59a1.54,1.54,0,0,1-.28.19c-11.3,7.07-24.46,8-37,8-2.16,0-4.31,0-6.46,0h-.31c-4.45-.05-8.73-.11-13.41.1a3.87,3.87,0,0,1-3.91-3.9v-22Q288,850.56,288,795.67Z" fill="#24397a"/><path d="M171.14,754.27c-12.35-7.47-28-11-49.19-11.18q-20.78,0-41.64,0H31.62L0,743l0,237.2,4.53,0q11.35,0,22.73-.05l41.83,0,0-4.49q0-20,0-40,0-21.09,0-42.19A3.94,3.94,0,0,1,73,889.6c7-.16,14,0,21.09.08l1.75,0c4,.07,8.11.12,12.16.12,12.59,0,27.36-.51,41.62-4.38C166.46,881,180.79,871,188.9,858c12.31-19.1,12.31-42.48,10.12-58.71C196.62,780.23,186.21,763.37,171.14,754.27Zm-37.78,63.1c-.33,10.37-5.42,19.25-13.58,23.74-9.71,5.17-20.47,5.88-30.64,5.88-1.91,0-3.8,0-5.7,0H83c-1.75,0-3.49-.05-5.23-.05-1.56,0-3.14,0-4.82.07a3.79,3.79,0,0,1-2.7-1.11A3.88,3.88,0,0,1,69.1,843c.07-9.16.06-18.33,0-27.49,0-8.58,0-17.15,0-25.72a4,4,0,0,1,1.2-2.82A4.11,4.11,0,0,1,73.24,786h0c3.74.14,7.55.07,11.38,0,2.16,0,4.34-.08,6.49-.08,9.7,0,20,.7,29.42,5.72l.28.15C128.89,796.9,133.7,806.72,133.36,817.37Z" fill="#24397a"/><path d="M660.46,761.2V743H656q-38.34,0-76.64,0H438v19.74l0,2.44c0,9,0,17.89,0,26.83l0,4.42,4.41.1c7.75.18,15.1.21,19.95.21,4.42,0,8.83,0,13.23-.06s8.85,0,13.27,0c8.93,0,16.08.09,22.53.27a3.88,3.88,0,0,1,3.79,3.9v3c-.06,56.28-.12,114.46,0,171.79l0,4.54,4.52,0c7.31-.07,14.61,0,21.92.06l1.61,0c4.83,0,9.68.08,14.51.08,8.37,0,15.2-.11,21.53-.37l4.35-.19,0-4.34c-.17-39-.14-78.53-.11-116.79v-2.74c0-18.38,0-36.76,0-55.14a3.91,3.91,0,0,1,3.9-3.91l14,0c18.15,0,36.31-.08,54.46,0l4.51,0,0-4.51C660.48,781.89,660.47,771.4,660.46,761.2Z" fill="#24397a"/><path d="M96.13,308.79a231.6,231.6,0,0,0,24.73,22.42c5.3-3.62,14.18-10.81,17.75-20.33C123.15,310.2,108.7,309.47,96.13,308.79Z" fill="#207f3e"/><path d="M166.09,311.66c-5.15,9.41-13,20.4-24.44,26.86,4.28,2.8,8.28,5.09,12,7.17a169.6,169.6,0,0,0,30.39,12.81,31.55,31.55,0,0,0,7-2.31c24.75-11.5,33.15-32.9,35.82-42.87C206.67,313,185.88,312.41,166.09,311.66Z" fill="#207f3e"/><path d="M166,292.31c19.79-.74,40.58-1.36,60.87-1.66a65.68,65.68,0,0,0-35.79-42.73,32.58,32.58,0,0,0-7-2.3,169.56,169.56,0,0,0-30.39,12.82c-3.76,2.08-7.76,4.36-12,7.15C153,272,160.86,282.94,166,292.31Z" fill="#207f3e"/><path d="M138.56,293.1c-3.59-9.45-12.42-16.6-17.7-20.19a231.77,231.77,0,0,0-24.59,22.26C108.8,294.48,123.17,293.76,138.56,293.1Z" fill="#207f3e"/><path d="M568.66,308.79a230.64,230.64,0,0,1-24.73,22.42c-5.29-3.62-14.2-10.81-17.76-20.33C541.64,310.2,556.09,309.47,568.66,308.79Z" fill="#207f3e"/><path d="M498.78,292.31c-19.8-.74-40.58-1.36-60.86-1.66a65.63,65.63,0,0,1,35.77-42.73,32.65,32.65,0,0,1,7.05-2.3,171.66,171.66,0,0,1,30.38,12.82c3.76,2.08,7.74,4.36,12,7.15C511.79,272,503.92,282.94,498.78,292.31Z" fill="#207f3e"/><path d="M526.25,293.1c3.58-9.45,12.42-16.6,17.68-20.19a226.08,226.08,0,0,1,24.57,22.26C556,294.48,541.63,293.76,526.25,293.1Z" fill="#207f3e"/><path d="M270.87,266,262.32,265c-.75,0-1.87,0-3.24,0a152.68,152.68,0,0,1-21.6-2.19,81.2,81.2,0,0,1,15.63,27.73c19.62-.06,38.3.18,54.87.81a53.08,53.08,0,0,0-3.68-11.22C290.26,277.46,279.19,272.84,270.87,266Z" fill="#207f3e"/><path d="M411.18,251.25l-8.58,1a43.3,43.3,0,0,1-4.17,2.06c-4.58,2-9,3.44-13.33,4.87a109.89,109.89,0,0,0-11.74,4.34l-.36.16c-.91.39-1.86.89-2.79,1.37a57.9,57.9,0,0,0-13.4,26.19c16.59-.63,35.26-.87,54.87-.81a80.45,80.45,0,0,1,23.59-35.74A131.05,131.05,0,0,1,411.18,251.25Z" fill="#207f3e"/><path d="M462.32,110c-4.82-11.26,1.92-26.54-6.21-46.07C453,50.87,438.93,40.47,434.44,37c-8.68-6.58-19.9-10.54-33.41-11.8a138.47,138.47,0,0,0-14.76.65c-3.41.39-7.12.42-10.24-1-6.17-2.91-7.78-9.23-12.53-12.71a54.52,54.52,0,0,0-11.24-6.32C345.54,2.41,336.12.3,326.21,0a66.34,66.34,0,0,0-19.15,2.09l-.66.2C288.63,8,277.91,18,271.47,28.77c-2.16,3.6-2.22,7.74-5.11,10.89-1.43,1.57-4.77,1.42-8.06.89s-11-1.26-17.2,0c-15.57,3.36-29.29,12-40.28,25.63-10,12-14.22,28.63-13.62,48-.35,7.21,4,12.11,2.07,17.33s-10,8.74-14,14.68c-16.47,24.37-10.45,46.9-8.12,55.68l.37,1.36c5.62,22.32,31.94,37.72,37.17,40.57,19.44,10.68,42.41,12.82,54.4,13.17,1.37,0,2.49,0,3.24,0l8.55,1.07c10.9,8.92,26.53,14.12,47.44,15.84,1.09.1,2.23.17,3.35.21,13.15.36,25.4-4.24,28.82-5.65a122.07,122.07,0,0,0,13.34-6.78,101.69,101.69,0,0,1,9.18-4.81l.36-.16a114.4,114.4,0,0,1,11.74-4.34c4.31-1.42,8.75-2.89,13.33-4.87a41.09,41.09,0,0,0,4.17-2.06l8.58-1A127.48,127.48,0,0,0,436.66,248h0c11.75.32,21.8-1.5,29.67-5.35,6.92-3.25,12.07-8.15,16.22-12.1l.43-.41c4.18-3.95,17.88-19.07,18.84-47.89.43-12.08-2.68-24.79-8.7-36.83C484.19,128.77,466.43,119.17,462.32,110Z" fill="#9e1e25"/><path d="M342.56,142.33c-10.78,5-19.92,7.28-29.62,7.28a72.92,72.92,0,0,1-8.74-.56c7.64,8.83,21.83,14.74,36.91,14.74a50.42,50.42,0,0,0,14.08-1.94c17.42-5.12,24.7-22.9,27.74-35.8-7.6,5.87-16,8.28-24.14,10.64A107.68,107.68,0,0,0,342.56,142.33Z" fill="#ec1c24"/><path d="M396.87,85.25c8.12,8.2,27.43,13.65,40.21,17.27q3.24.9,5.77,1.65c1.43-11.52-.13-19.22-1.82-23.78-4.52-12.2-15.29-23.25-18.5-25.68-7.32-5.56-18-8.37-31.87-8.37-2.76,0-5.37.1-7.74.25.12.61.21,1.24.35,1.87C385.57,61.05,388.45,76.73,396.87,85.25Z" fill="#ec1c24"/><path d="M332.36,100.3c-6.85,0-13-2.6-18.9-5.13,7.83,10,20.8,20.18,32.48,20.5.35,0,.66,0,1,0,18.74,0,29.3-14.8,33.08-20.34-.1-.18-.17-.35-.26-.54-1.34-3-2.08-4.63-6.23-5.07-8-.85-20.5,3.38-28.71,7.49A27.26,27.26,0,0,1,332.36,100.3Z" fill="#ec1c24"/><path d="M304.7,64.46a15.37,15.37,0,0,0-5.28-.82,28.27,28.27,0,0,0-3.82.28A45.38,45.38,0,0,1,299,69.17a26.29,26.29,0,0,0,3.34,5c2.92,3,6.63,4.44,11.64,4.44a35.21,35.21,0,0,0,3.6-.2C315.21,72.64,313.06,67.7,304.7,64.46Z" fill="#ec1c24"/><path d="M344.35,78.28c5,.37,11.08-1.46,15.62-3.9-7-3.74-11.29-8.59-14.86-12.66-2.5-2.81-4.63-5.24-7.16-6.79-5.35-3.13-11.59-3.7-19.88-1.94,5.12,4.18,8.9,9,12.67,15.89C333.94,74.33,339.05,77.88,344.35,78.28Z" fill="#ec1c24"/><path d="M318.31,35c13.12.37,26.77,2.5,37.76,15.46a51.09,51.09,0,0,0,12.25,10.33C366.69,47.26,359.74,32,344.08,25.7l-.4-.18c-4.41-2.39-12.47-4-20.1-4a47,47,0,0,0-12,1.45c-11.89,3.79-20.1,10.35-24.76,19.86C292.9,38.77,302.09,35,316.07,35Z" fill="#ec1c24"/><path d="M218.61,123.12c11-34.33,34.69-54.09,47.73-62.76a39.94,39.94,0,0,0-11.24-1.6c-10.06,0-25,3.71-39.27,21.41-7.58,9-10.61,30.47-7,45.89A45.28,45.28,0,0,1,218.61,123.12Z" fill="#ec1c24"/><path d="M218.87,212c-14.34-25.25-9.33-56.54-6.32-69.42-7.65,2.91-14.76,7.71-18.86,12.95-13.32,17.05-9.31,32-7.17,40l.45,1.65c3,11.87,20.66,23.82,27.22,27.42a94.15,94.15,0,0,0,26.58,9.73A61.14,61.14,0,0,1,218.87,212Z" fill="#ec1c24"/><path d="M333.55,199.34c5.58-5.54,10.16-10.63,13.56-16.22-2.06.15-4.38.26-6.89.26a73.82,73.82,0,0,1-39.53-11.06c-10.9-6.8-19-13.73-25.62-27.3-8.56-17.52-9.59-38.28-10.34-53.44-.07-1.62-.15-3.18-.24-4.65-16.19,20.17-26.21,39.91-31.31,61.53-4,21.76.53,37.63,3,46.15.28,1,.54,1.91.74,2.7a48.11,48.11,0,0,0,16.82,22.61,36.6,36.6,0,0,0,10.26,5,49.53,49.53,0,0,0,14.55,2.17c17.79,0,37.11-9.64,54.39-27.12Z" fill="#ec1c24"/><path d="M307.27,132.79a56.52,56.52,0,0,0,6.21.37,38.08,38.08,0,0,0,16-3.33c-28.1-11.45-41.52-31.24-47.72-44.81-1.25,11-.1,23.33,4.87,32C294.83,131.25,307.14,132.78,307.27,132.79Z" fill="#ec1c24"/><path d="M400.24,111.65c1.05,34.34-9.13,46-21.76,60.43-2.39,2.73-4.86,5.56-7.39,8.68-6.45,8-11,14.83-15.46,21.49-6,9-11.14,16.76-19.17,24.44-13.92,13.32-34.15,16.6-48.28,17.5,7.74,4.39,18.56,7.16,32.34,8.3,1.06.1,2.08.15,3.12.15,9.46,0,18.92-3.78,20-4.21a99.79,99.79,0,0,0,11.15-5.72A118.8,118.8,0,0,1,365.81,237a124.93,124.93,0,0,1,13.78-5.13c4.08-1.36,7.94-2.63,11.73-4.27,5.65-2.36,16.74-10.52,22.66-22.45C430.38,173.39,423.83,132.65,400.24,111.65Z" fill="#ec1c24"/><path d="M464.6,140c-10.25-11.81-24.57-19-35.19-23.13a99.74,99.74,0,0,1,10.06,22.22l.2.64a4.25,4.25,0,0,1,.14.51l.15.45c.09.44.22.88.34,1.32l.18.58a94,94,0,0,1,.5,46.68,37.19,37.19,0,0,1-1,3.9l-.1.37c-.19.67-.42,1.34-.62,2l-.26.85c-5.84,15.1-12.27,23.57-17.16,28.25a100.37,100.37,0,0,0,18,1.83c7.63,0,13.95-1.18,18.72-3.51,4-1.9,7.4-5.11,11-8.5l.34-.34c1.86-1.76,11.16-11.55,11.87-32.17C482.16,168.36,475.91,153.06,464.6,140Z" fill="#ec1c24"/><path d="M467.29,315.35v37.4a67.72,67.72,0,0,0,6.4,3.44,31.62,31.62,0,0,0,7.05,2.31,171.7,171.7,0,0,0,30.38-12.81c3.76-2.08,7.74-4.37,12-7.17-11.42-6.46-19.33-17.45-24.44-26.86-10.29.39-20.83.74-31.43,1Z" fill="#207f3e"/><path d="M518,572.29a42.24,42.24,0,0,0-21.34-36.86,41.92,41.92,0,0,0-8.45-74.86,41.41,41.41,0,0,0-4.5-61.35c-9.15-8.55-20.43-12-30.91-12.84a18.21,18.21,0,0,0,2.85-9.78c0-13.16,0-61.25,0-61.25s-144.9-.48-165.84,0c-18,.42-28.39,6-34.87,10.41-1.08.73-76.89,67.95-76.89,67.95C167.4,401,156.92,407.44,149,411c-5.9,2.6-21,3.52-27.77,3.81-13.73.6-26.61,10.28-26.92,28.9l0,156.56c.78,16.69,8.36,25,23.16,25.57l11.31.09c34.82.08,46.47,13,47.93,14.64,3.29,3.8,29.52,29.54,37.44,36.62v.11c9.57,8.6,15.4,12,24.63,12q104.49,0,209,0c1.71,0,3.45.18,5.17,0h6.2c22.25,0,40.29-24.12,40.29-46.77A41.24,41.24,0,0,0,487.12,613,42,42,0,0,0,518,572.29Z" fill="#24397a"/><path d="M494.91,572.29a25.75,25.75,0,0,1-25.51,26h-110a25.74,25.74,0,0,1-25.51-26h0a25.74,25.74,0,0,1,25.51-26h110a25.74,25.74,0,0,1,25.51,26Z" fill="#fff"/><path d="M489.65,500a25.74,25.74,0,0,1-25.51,26H358.6a25.76,25.76,0,0,1-25.53-26h0a25.75,25.75,0,0,1,25.53-26H464.14a25.74,25.74,0,0,1,25.51,26Z" fill="#fff"/><path d="M475,431.53a25.39,25.39,0,0,1-25.16,25.61H363.2A25.39,25.39,0,0,1,338,431.53h0a25.39,25.39,0,0,1,25.16-25.6h86.61A25.38,25.38,0,0,1,475,431.53Z" fill="#fff"/><path d="M476.92,642.48a25.74,25.74,0,0,1-25.51,26H363.55a25.75,25.75,0,0,1-25.53-26h0a25.75,25.75,0,0,1,25.53-26h87.86a25.74,25.74,0,0,1,25.51,26Z" fill="#fff"/><path d="M430.55,332.35H306.73c-2,0-3.79,0-5.51.12h-1v0c-17.87.89-21,5.49-25.82,8.77-1.08.73-76.89,67.95-76.89,67.95-10.64,7.24-20.69,17.2-28.66,20.71-5.9,2.61-21.44,5.87-28.2,6.17-9.26.4-22.3,7.43-22.93,16.66l0,1.67c-.08.56-.24,1.09-.27,1.69,0,.06,0,8.16,0,20.39v.59c0,38.57,0,111.28.11,113.92.5,10.26,6.41,14.86,38.67,15.39,16.3.27,28.2,10.71,39.47,22.78,8,8.54,15.92,15.17,16.9,16.35C213.7,647,234.37,668.87,252,668c6.34-.29,6.87,0,13.22,0h59.08a41.4,41.4,0,0,1,8-58.82,42.51,42.51,0,0,1-3-72A41.73,41.73,0,0,1,306.69,500h0a41.71,41.71,0,0,1,17.22-33.84c-12.22-12.34-17.11-30-12.94-43.28-.49.25-1,.49-1.4.67,0,0-17.91,3.15-16.87-12.89.23-3.71,3.54-13.59,28.59-20.08,13.11-3.4,40.92-4.37,47.1-4.35,14.7,0,30.36.1,46.72,0,6.35-.05,13.63-3.66,15-12.12l.44,0Z" fill="#fff"/></svg>