<?xml version="1.0" encoding="utf-8"?>
<svg viewBox="0 0 500 500" xmlns="http://www.w3.org/2000/svg">
  <defs>
    <clipPath id="clipPath90" clipPathUnits="userSpaceOnUse">
      <path id="path88" d="M 0,0 H 841.89 V 595.276 H 0 Z"/>
    </clipPath>
  </defs>
  <g transform="matrix(1.333333, 0, 0, -1.333333, -13.923436, 757.793696)" id="g10">
    <g id="g84">
      <g clip-path="url(#clipPath90)" id="g86">
        <g transform="matrix(2.471411, 0, 0, 2.471411, 132.971085, 340.820526)" id="g92" style="">
          <path id="path94" style="fill:#ffffff;fill-opacity:1;fill-rule:nonzero;stroke:none" d="m 0,0 c -0.041,-0.584 -0.481,-1.057 -1.06,-1.057 -0.581,0 -0.955,0.473 -0.914,1.057 0.041,0.584 0.481,1.056 1.062,1.056 C -0.333,1.056 0.04,0.584 0,0"/>
        </g>
        <g transform="matrix(2.471411, 0, 0, 2.471411, 134.613358, 283.919006)" id="g184" style="">
          <path id="path186" style="fill:#f78f22;fill-opacity:1;fill-rule:nonzero;stroke:none" d="m 0,0 h 23.23 c 1.045,0 2.036,0.854 2.194,1.898 l 3.163,20.948 H 5.357 c -1.044,0 -2.035,-0.854 -2.193,-1.898 z"/>
        </g>
        <g transform="matrix(2.471411, 0, 0, 2.471411, 291.795624, 397.117767)" id="g188" style="">
          <path id="path190" style="fill:#f78f22;fill-opacity:1;fill-rule:nonzero;stroke:none" d="m 0,0 c -0.421,0.723 -1.415,1.32 -2.991,1.797 -1.572,0.471 -3.534,0.711 -5.885,0.711 -2.146,0 -4.014,-0.22 -5.603,-0.651 -1.587,-0.437 -2.785,-1.038 -3.586,-1.806 -0.808,-0.77 -1.346,-1.992 -1.62,-3.656 -0.189,-1.154 -0.111,-2.105 0.249,-2.846 0.355,-0.744 0.868,-1.326 1.523,-1.748 0.663,-0.422 2.04,-1.096 4.135,-2.031 2.089,-0.922 3.396,-1.578 3.902,-1.972 0.492,-0.393 0.634,-1.233 0.423,-2.513 -0.096,-0.581 -0.316,-1.023 -0.657,-1.316 -0.343,-0.297 -0.813,-0.444 -1.413,-0.444 -0.602,0 -0.999,0.119 -1.203,0.349 -0.197,0.233 -0.226,0.756 -0.093,1.57 l 0.435,2.647 h -8.388 l -0.235,-1.422 c -0.093,-0.567 -0.148,-1.09 -0.162,-1.568 -0.02,-0.667 0.037,-1.246 0.169,-1.736 0.046,-0.169 0.099,-0.326 0.163,-0.474 0.381,-0.885 1.383,-1.614 3.003,-2.188 1.612,-0.571 3.632,-0.861 6.049,-0.861 2.206,0 4.174,0.253 5.918,0.748 1.738,0.495 2.961,1.115 3.659,1.847 0.7,0.734 1.181,1.876 1.437,3.427 0.35,2.13 0.084,3.676 -0.806,4.636 -0.89,0.958 -3.215,2.181 -6.992,3.676 -1.313,0.523 -2.099,0.964 -2.339,1.328 -0.255,0.37 -0.317,0.919 -0.198,1.642 0.092,0.566 0.3,0.989 0.625,1.262 0.325,0.28 0.758,0.418 1.299,0.418 0.506,0 0.848,-0.101 1.028,-0.308 0.177,-0.205 0.208,-0.688 0.085,-1.44 l -0.265,-1.609 h 8.388 l 0.142,0.858 C 0.48,-1.944 0.418,-0.719 0,0 m -33.612,-20.092 v 4.158 c 0.176,0.293 0.351,0.871 0.519,1.739 0.04,0.203 0.08,0.425 0.118,0.663 l 1.644,9.993 c 0.167,1.012 0.186,1.659 0.049,1.944 -0.129,0.279 -0.473,0.421 -1.029,0.421 -0.476,0 -0.854,-0.115 -1.141,-0.343 -0.056,-0.043 -0.109,-0.102 -0.16,-0.176 v 4.136 c 0.597,0.043 1.218,0.065 1.862,0.065 1.863,0 3.5,-0.194 4.917,-0.572 1.419,-0.381 2.519,-0.952 3.294,-1.711 0.527,-0.517 0.879,-1.066 1.059,-1.643 0.083,-0.274 0.131,-0.556 0.137,-0.843 0.004,-0.156 0.004,-0.333 -0.004,-0.531 -0.036,-0.932 -0.21,-2.321 -0.513,-4.173 l -0.612,-3.719 c -0.361,-2.188 -0.696,-3.733 -1.006,-4.64 -0.319,-0.914 -0.968,-1.742 -1.956,-2.496 -0.989,-0.751 -2.256,-1.328 -3.795,-1.732 -0.72,-0.189 -1.487,-0.333 -2.3,-0.434 -0.353,-0.044 -0.714,-0.079 -1.083,-0.106 m 0,22.535 v -4.136 c -0.21,-0.304 -0.385,-0.875 -0.531,-1.712 -0.009,-0.044 -0.015,-0.09 -0.024,-0.134 l -1.669,-10.155 c -0.209,-1.263 -0.248,-2.044 -0.137,-2.337 0.114,-0.297 0.477,-0.444 1.077,-0.444 0.616,0 1.032,0.168 1.263,0.507 l 0.021,0.034 v -4.158 c -0.6,-0.044 -1.223,-0.066 -1.868,-0.066 -1.86,0 -3.5,0.193 -4.916,0.572 -1.426,0.382 -2.518,0.951 -3.295,1.713 -0.775,0.76 -1.174,1.592 -1.201,2.484 -0.022,0.899 0.15,2.467 0.516,4.705 l 0.612,3.719 c 0.362,2.187 0.696,3.731 1.013,4.644 0.312,0.909 0.961,1.739 1.958,2.491 0.986,0.751 2.247,1.33 3.792,1.734 0.72,0.187 1.486,0.333 2.299,0.432 0.355,0.044 0.718,0.08 1.09,0.107 m -22.796,-22.631 v 6.825 l 0.113,0.717 c 0.19,1.216 0.155,1.967 -0.091,2.26 l -0.022,0.023 v 4.066 c 0.057,0.011 0.112,0.023 0.165,0.036 0.135,0.034 0.252,0.071 0.354,0.114 0.441,0.182 0.739,0.776 0.897,1.775 l 0.196,1.242 c 0.114,0.723 -0.01,1.193 -0.37,1.418 -0.25,0.155 -0.664,0.259 -1.242,0.307 V 2.49 c 2.699,-0.04 4.606,-0.141 5.719,-0.301 1.475,-0.217 2.618,-0.766 3.432,-1.647 0.813,-0.883 1.068,-2.293 0.762,-4.229 -0.279,-1.767 -0.802,-2.953 -1.573,-3.561 -0.762,-0.609 -2.146,-0.971 -4.143,-1.09 1.742,-0.293 2.889,-0.68 3.428,-1.169 0.531,-0.482 0.851,-0.927 0.933,-1.334 0.09,-0.407 -0.014,-1.526 -0.302,-3.36 l -0.944,-5.987 h -5.848 z m 0,22.678 v -3.895 c -0.093,0.008 -0.189,0.014 -0.289,0.019 -0.177,0.01 -0.366,0.014 -0.569,0.014 l -0.796,-5.048 c 0.68,0 1.232,0.04 1.654,0.123 v -4.066 c -0.269,0.272 -1.007,0.412 -2.211,0.412 l -1.615,-10.237 h -8.064 -0.88 v 0.608 l 0.517,3.287 2.965,18.801 h 6.396 c 0.796,0 1.542,-0.002 2.24,-0.01 z m 0,-15.853 -1.079,-6.825 h 1.079 z m -12.77,10.375 c 0.117,0.996 0.126,1.76 0.025,2.296 -0.007,0.041 -0.016,0.081 -0.025,0.121 z m 0,2.417 v -2.417 c -0.032,-0.268 -0.072,-0.552 -0.119,-0.854 l -0.312,-1.975 c -0.005,-0.037 -0.012,-0.073 -0.019,-0.109 -0.23,-1.394 -0.617,-2.415 -1.161,-3.059 -0.567,-0.665 -1.49,-1.171 -2.77,-1.531 -1.162,-0.321 -2.608,-0.497 -4.339,-0.528 -0.176,-10e-4 -0.354,-0.004 -0.537,-0.004 h -0.041 v 3.995 c 0.071,0.016 0.137,0.034 0.2,0.055 0.19,0.061 0.35,0.139 0.48,0.233 0.365,0.268 0.613,0.822 0.746,1.66 l 0.294,1.866 c 0.123,0.776 0.019,1.283 -0.318,1.512 -0.246,0.171 -0.712,0.282 -1.402,0.329 v 3.906 c 2.37,-0.006 4.184,-0.131 5.43,-0.378 1.255,-0.247 2.177,-0.599 2.765,-1.054 0.016,-0.014 0.032,-0.024 0.047,-0.036 0.555,-0.449 0.909,-0.989 1.056,-1.611 m 0,-19.009 v -0.608 h -0.096 z m -9.298,22.088 v -3.906 c -0.102,0.007 -0.21,0.012 -0.323,0.016 -0.168,0.007 -0.346,0.01 -0.535,0.01 l -0.911,-5.775 c 0.256,-0.011 0.474,-0.014 0.657,-0.014 0.437,0 0.807,0.036 1.112,0.108 v -3.995 h -2.384 l -1.441,-9.14 h -9.04 l 3.578,22.696 h 8.601 0.499 z"/>
        </g>
        <g transform="matrix(2.471411, 0, 0, 2.471411, 153.911377, 409.959045)" id="g192" style="">
          <path id="path194" style="fill:#16489b;fill-opacity:1;fill-rule:nonzero;stroke:none" d="m 0,0 h 23.299 c 1.047,0 2.041,0.855 2.2,1.901 l 3.173,20.976 H 5.373 c -1.047,0 -2.041,-0.855 -2.2,-1.901 z"/>
        </g>
        <g transform="matrix(2.471411, 0, 0, 2.471411, 183.752686, 288.757996)" id="g196" style="">
          <path id="path198" style="fill:#ffffff;fill-opacity:1;fill-rule:nonzero;stroke:none" d="M 0,0 V 2.777 L 0.521,3.985 0.606,4.064 2.509,6.083 C 2.917,6.513 2.982,7.134 2.66,7.527 L 1.109,9.42 1.279,9.57 c 0.163,0.144 0.36,0.211 0.546,0.207 0.099,-10e-4 1.976,0.004 2.081,0 0.069,0 0.135,-0.012 0.197,-0.032 L 6.604,8.899 6.391,7.488 3.868,8.295 3.251,4.498 3.889,-1.544 3.89,-1.546 C 3.694,-1.625 3.488,-1.675 3.279,-1.69 H 2.367 L 1.797,3.283 0.07,-0.65 Z m 0,4.088 c 0.116,0.047 0.226,0.121 0.32,0.22 L 2.225,6.325 C 2.488,6.603 2.529,6.996 2.322,7.25 L 0.255,9.769 C 0.187,9.852 0.099,9.912 0,9.947 V 7.628 L 0.756,6.704 0,5.902 Z M 0,6.448 0.215,6.673 0,6.934 Z m 2.7,3.602 c 0.718,0 1.3,0.583 1.3,1.301 0,0.718 -0.582,1.301 -1.3,1.301 -0.719,0 -1.301,-0.583 -1.301,-1.301 0,-0.718 0.582,-1.301 1.301,-1.301 M 0,9.947 V 7.628 L -0.327,8.027 -0.819,4.991 c 0.034,0.064 0.076,0.123 0.129,0.179 L 0,5.902 V 4.088 C -0.249,3.988 -0.526,4.012 -0.717,4.176 -0.815,4.257 -0.875,4.367 -0.903,4.485 L -0.242,-1.69 H -1.849 L -2.142,0.857 V 5.61 l 0.569,0.603 c 0.43,0.455 0.498,1.11 0.159,1.524 l -0.728,0.887 v 1.363 c 0.565,0 1.818,-0.002 1.899,-10e-4 C -0.158,9.987 -0.076,9.975 0,9.947 M 0,6.934 -0.082,7.034 -0.216,6.222 0,6.448 Z M 0,2.777 -0.24,2.223 0,0 Z m -2.142,3.379 0.284,0.301 c 0.286,0.302 0.33,0.728 0.106,1.002 l -0.39,0.475 z m 0,4.351 v 2.099 c 0.215,0.158 0.481,0.251 0.768,0.251 0.719,0 1.301,-0.582 1.301,-1.301 0,-0.718 -0.582,-1.3 -1.301,-1.3 -0.287,0 -0.553,0.093 -0.768,0.251 M -4.275,7.873 -3.451,6.868 -4.275,5.995 V 4.029 c 0.128,0.051 0.249,0.13 0.352,0.238 l 1.781,1.889 v 1.778 l -1.851,2.259 c -0.075,0.092 -0.173,0.158 -0.282,0.195 z m 2.133,4.733 v -2.099 c -0.323,0.236 -0.532,0.618 -0.532,1.049 0,0.431 0.209,0.813 0.532,1.05 m 0,-2.619 V 8.624 l -0.887,1.081 0.072,0.064 c 0.164,0.143 0.36,0.213 0.547,0.217 z m 0,-4.377 V 0.857 l -0.272,2.362 -1.836,-4.173 -0.025,0.237 v 3.44 l 0.511,1.184 0.126,0.118 z m -2.133,0.931 v 0.638 l 0.278,-0.343 z m -0.886,-1.532 0.535,3.292 0.351,-0.428 v 2.515 c -0.082,0.029 -0.169,0.042 -0.258,0.04 -0.113,-0.001 -2.232,0.005 -2.353,0 -0.203,-0.001 -0.416,-0.083 -0.593,-0.235 L -8.298,9.478 V 7.57 L -7.46,8.301 -7.996,5.009 C -8.009,5.077 -8.033,5.143 -8.071,5.205 L -8.298,5.571 V 4.198 c 0.089,0.077 0.16,0.167 0.213,0.262 L -8.298,3.967 v -4.079 l 1.408,3.198 0.55,-4.776 h 1.748 L -5.25,4.46 C -5.222,4.332 -5.156,4.215 -5.051,4.124 -4.844,3.948 -4.546,3.922 -4.275,4.029 V 5.995 L -5.021,5.205 C -5.079,5.143 -5.124,5.077 -5.161,5.009 m 0.886,2.17 V 6.541 L -4.553,6.246 -4.382,7.31 Z m 0,-4.456 v -3.44 L -4.57,2.04 Z M -8.298,6.4 V 7.073 L -8.029,7.31 -8.202,6.246 Z m 2.611,4.301 c 0.718,0 1.301,0.582 1.301,1.3 0,0.719 -0.583,1.301 -1.301,1.301 -0.718,0 -1.3,-0.582 -1.3,-1.301 0,-0.718 0.582,-1.3 1.3,-1.3 M -8.298,9.478 V 7.57 L -8.846,7.092 v 1.907 z m 0,-2.405 V 6.4 l -0.268,0.436 z m 0,-1.502 -0.548,0.884 V 3.967 c 0.151,0.01 0.307,0.061 0.451,0.157 0.035,0.023 0.067,0.047 0.097,0.074 z m 0,-1.604 V -0.112 L -8.846,-1.358 V 2.698 Z M -8.846,9.494 V 9.93 C -8.764,9.894 -8.69,9.84 -8.631,9.769 L -8.59,9.717 Z m 0,1.724 v 0.676 c 0.029,-0.108 0.044,-0.221 0.044,-0.338 0,-0.116 -0.015,-0.23 -0.044,-0.338 m 0,0.676 V 11.218 C -8.975,10.739 -9.37,10.37 -9.863,10.278 v 2.557 c 0.493,-0.092 0.888,-0.462 1.017,-0.941 m 0,-1.964 V 9.494 L -9.863,8.605 v 1.381 h 0.732 c 0.1,10e-4 0.197,-0.017 0.285,-0.056 m 0,-0.931 L -9.863,8.11 V 4.896 l 0.389,-0.629 c 0.131,-0.211 0.372,-0.316 0.628,-0.3 v 2.488 l -0.256,0.413 0.256,0.224 z m 0,-6.301 V -1.358 L -8.992,-1.69 H -9.863 V 0.344 Z M -9.863,1.321 v 2.745 l 0.025,-0.041 0.112,-0.144 0.19,-1.802 z m 0,11.514 v -2.557 c -0.078,-0.014 -0.158,-0.022 -0.239,-0.022 -0.719,0 -1.301,0.582 -1.301,1.3 0,0.719 0.582,1.301 1.301,1.301 0.081,0 0.161,-0.008 0.239,-0.022 m 0,-2.849 V 8.605 l -0.995,-0.868 c -0.479,-0.419 -0.621,-1.06 -0.337,-1.524 L -9.863,4.066 V 1.321 l -0.964,-2.232 -0.475,4.13 -1.506,-3.422 v 3.746 l 0.406,0.942 C -12.469,4.367 -12.564,4.257 -12.689,4.176 -12.727,4.15 -12.768,4.127 -12.808,4.108 v 1.738 l 0.417,-0.676 c 0.034,-0.056 0.058,-0.115 0.071,-0.179 l 0.494,3.036 -0.982,-0.859 v 1.759 l 0.964,0.842 c 0.163,0.143 0.36,0.213 0.546,0.217 0.068,10e-4 0.832,10e-4 1.435,0 m 0,-1.876 -0.746,-0.651 c -0.312,-0.274 -0.406,-0.7 -0.22,-1.002 l 0.966,-1.561 z m 0,-7.766 -0.879,-2.034 h 0.879 z m -2.945,6.323 0.283,-0.445 0.129,0.812 -0.412,-0.358 z m 0,2.754 0.003,0.003 -0.003,0.004 z m 0,0.007 V 9.421 l -2.17,-1.894 c -0.455,-0.399 -0.588,-1.005 -0.318,-1.444 l 1.249,-2.019 0.065,-0.09 0.186,-1.739 -1.241,-2.872 -0.451,3.92 -2.175,-4.973 h -1.529 c 0.01,0.037 0.023,0.073 0.039,0.11 l 2.609,6.078 0.616,3.797 -2.223,-0.706 0.214,1.42 2.245,0.734 c 0.069,0.022 0.139,0.034 0.207,0.034 0.106,0.004 1.981,-10e-4 2.082,0 0.187,0.004 0.362,-0.063 0.479,-0.207 z m 0,-0.501 -1.922,-1.677 c -0.288,-0.254 -0.374,-0.647 -0.202,-0.925 l 1.249,-2.017 c 0.171,-0.278 0.544,-0.356 0.875,-0.2 v 1.738 l -0.53,0.858 0.53,0.464 z m 0,-2.251 -0.004,-0.003 0.004,-0.006 z m 0,-3.133 -2.262,-5.233 h 1.607 l 0.655,1.487 z m -1.436,6.507 c 0.718,0 1.301,0.583 1.301,1.301 0,0.718 -0.583,1.301 -1.301,1.301 -0.718,0 -1.3,-0.583 -1.3,-1.301 0,-0.718 0.582,-1.301 1.3,-1.301"/>
        </g>
        <g transform="matrix(2.471411, 0, 0, 2.471411, 310.647797, 290.267792)" id="g200" style="">
          <path id="path202" style="fill:#16489b;fill-opacity:1;fill-rule:nonzero;stroke:none" d="M 0,0 V 0.649 H 0.526 L 0.21,2.07 0,1.664 v 1.302 h 0.764 l 0.95,-3.84 H 0.876 L 0.679,0 Z M 1.896,-0.874 2.48,2.934 H 3.257 L 2.772,-0.225 H 4.698 L 4.599,-0.874 Z M 0,2.966 V 1.664 L -0.526,0.649 H 0 V 0 H -0.862 L -1.315,-0.874 H -1.89 v 0.457 l 1.833,3.383 z M -1.89,1.354 -1.643,2.966 H -1.89 Z m 0,1.612 V 1.354 l -0.341,-2.228 h -0.763 v 0.098 l 0.574,3.742 z m 0,-3.383 -0.247,-0.457 h 0.247 z m -1.104,2.323 0.015,0.003 c -0.004,0.034 -0.009,0.067 -0.015,0.099 z m 0,0.102 V 1.906 L -3.774,1.727 C -3.789,1.926 -3.86,2.083 -3.986,2.198 -4.113,2.314 -4.279,2.371 -4.485,2.371 -4.77,2.371 -5.018,2.269 -5.226,2.064 -5.435,1.86 -5.574,1.529 -5.644,1.072 -5.718,0.587 -5.684,0.241 -5.541,0.036 c 0.143,-0.207 0.355,-0.31 0.634,-0.31 0.207,0 0.395,0.066 0.564,0.197 0.168,0.132 0.307,0.337 0.414,0.619 l 0.716,-0.231 c -0.18,-0.423 -0.421,-0.736 -0.72,-0.942 -0.3,-0.205 -0.655,-0.307 -1.068,-0.307 -0.51,0 -0.902,0.174 -1.178,0.522 -0.274,0.349 -0.366,0.825 -0.273,1.431 0.098,0.639 0.34,1.136 0.724,1.49 0.384,0.354 0.845,0.531 1.383,0.531 0.471,0 0.831,-0.14 1.081,-0.418 0.134,-0.146 0.224,-0.349 0.27,-0.61 m 0,-2.784 -0.015,-0.098 h 0.015 z M -6.853,0.342 V 2.38 C -6.639,2.041 -6.575,1.594 -6.66,1.04 -6.699,0.785 -6.764,0.552 -6.853,0.342 m 0,5.793 v 0.664 c 0.228,0.039 0.432,0.145 0.613,0.317 0.233,0.224 0.383,0.558 0.452,1.004 0.067,0.441 0.021,0.77 -0.139,0.986 -0.16,0.217 -0.401,0.325 -0.722,0.325 -0.07,0 -0.138,-0.005 -0.204,-0.016 v 0.665 c 0.096,0.011 0.195,0.017 0.297,0.017 0.567,0 0.993,-0.177 1.279,-0.528 C -4.991,9.217 -4.896,8.728 -4.992,8.102 -5.087,7.48 -5.331,6.994 -5.721,6.644 -6.04,6.357 -6.418,6.188 -6.853,6.135 m 0,3.945 V 9.415 C -7.087,9.378 -7.294,9.273 -7.473,9.103 -7.702,8.883 -7.851,8.552 -7.919,8.11 -7.986,7.674 -7.936,7.344 -7.769,7.119 c 0.167,-0.224 0.405,-0.337 0.714,-0.337 0.07,0 0.137,0.006 0.202,0.017 V 6.135 C -6.951,6.123 -7.051,6.117 -7.155,6.117 c -0.571,0 -0.999,0.174 -1.282,0.524 -0.031,0.037 -0.058,0.075 -0.084,0.115 v 2.065 c 0.038,0.089 0.08,0.172 0.126,0.249 0.117,0.196 0.263,0.372 0.439,0.528 0.174,0.155 0.357,0.271 0.549,0.347 0.172,0.068 0.356,0.113 0.554,0.135 m 0,-7.7 V 0.342 C -6.981,0.042 -7.16,-0.211 -7.39,-0.417 -7.709,-0.704 -8.086,-0.873 -8.521,-0.926 v 0.664 c 0.227,0.038 0.432,0.144 0.613,0.317 0.233,0.224 0.383,0.558 0.452,1.004 0.067,0.441 0.021,0.77 -0.14,0.986 -0.16,0.218 -0.399,0.326 -0.72,0.326 -0.071,0 -0.139,-0.006 -0.205,-0.016 v 0.664 c 0.096,0.011 0.195,0.017 0.298,0.017 0.566,0 0.991,-0.177 1.278,-0.528 0.033,-0.041 0.064,-0.083 0.092,-0.128 M -8.521,8.821 V 6.756 c -0.218,0.336 -0.286,0.779 -0.201,1.327 0.042,0.278 0.109,0.524 0.201,0.738 m 0,-5.802 V 2.355 C -8.755,2.317 -8.962,2.213 -9.141,2.042 -9.371,1.822 -9.519,1.491 -9.587,1.049 -9.654,0.613 -9.603,0.283 -9.437,0.058 c 0.167,-0.224 0.405,-0.337 0.715,-0.337 0.068,0 0.136,0.006 0.201,0.017 v -0.664 c -0.098,-0.012 -0.199,-0.018 -0.302,-0.018 -0.571,0 -0.999,0.174 -1.283,0.524 -0.283,0.349 -0.378,0.829 -0.285,1.443 0.06,0.391 0.17,0.72 0.328,0.987 0.116,0.195 0.263,0.371 0.438,0.527 0.175,0.156 0.358,0.271 0.549,0.347 0.172,0.068 0.357,0.113 0.555,0.135 m -5.825,4.042 V 7.71 h 0.525 l -0.315,1.421 -0.21,-0.405 v 1.301 h 0.764 l 0.95,-3.84 h -0.838 l -0.198,0.874 z m 1.874,-0.874 0.589,3.84 h 0.752 l 1.186,-2.574 0.394,2.574 h 0.719 L -9.42,6.187 h -0.777 l -1.169,2.524 -0.387,-2.524 z m -1.385,-5.817 0.768,0.075 c 0.006,-0.253 0.069,-0.438 0.19,-0.557 0.12,-0.119 0.297,-0.177 0.533,-0.177 0.248,0 0.444,0.052 0.586,0.158 0.142,0.105 0.225,0.228 0.246,0.37 0.014,0.091 -10e-4,0.168 -0.044,0.232 -0.043,0.064 -0.127,0.119 -0.252,0.165 -0.086,0.033 -0.283,0.088 -0.593,0.169 -0.397,0.103 -0.668,0.23 -0.812,0.381 -0.203,0.212 -0.281,0.471 -0.234,0.775 0.03,0.196 0.114,0.38 0.25,0.551 0.137,0.171 0.316,0.3 0.538,0.39 0.222,0.089 0.479,0.134 0.774,0.134 0.481,0 0.826,-0.106 1.036,-0.32 0.21,-0.214 0.293,-0.498 0.251,-0.855 l -0.782,-0.027 c -0.002,0.199 -0.051,0.341 -0.146,0.427 -0.095,0.087 -0.251,0.131 -0.467,0.131 -0.224,0 -0.406,-0.046 -0.547,-0.139 -0.09,-0.06 -0.143,-0.14 -0.159,-0.24 -0.013,-0.091 0.013,-0.169 0.08,-0.233 0.085,-0.083 0.309,-0.169 0.671,-0.258 0.363,-0.089 0.627,-0.182 0.792,-0.277 0.166,-0.095 0.287,-0.225 0.364,-0.39 0.076,-0.166 0.096,-0.37 0.059,-0.612 -0.034,-0.22 -0.126,-0.426 -0.278,-0.618 -0.153,-0.193 -0.347,-0.336 -0.584,-0.429 -0.238,-0.093 -0.525,-0.14 -0.858,-0.14 -0.485,0 -0.841,0.112 -1.067,0.336 -0.226,0.224 -0.33,0.55 -0.315,0.978 m -0.489,9.657 V 8.726 L -14.873,7.71 h 0.527 V 7.061 h -0.862 l -0.453,-0.874 h -0.625 v 0.364 l 1.882,3.476 z m -1.94,-10.901 v 1.911 l 0.169,1.112 -0.169,-0.419 v 1.236 h 1.016 l -0.589,-3.84 z m 0,9.799 0.198,0.045 c -0.032,0.244 -0.098,0.442 -0.198,0.596 z m 0,0.641 V 8.925 l -0.598,-0.137 c -0.015,0.198 -0.085,0.356 -0.212,0.471 -0.127,0.116 -0.293,0.172 -0.499,0.172 -0.285,0 -0.532,-0.101 -0.74,-0.306 -0.21,-0.204 -0.349,-0.535 -0.419,-0.992 -0.074,-0.485 -0.04,-0.831 0.103,-1.036 0.144,-0.207 0.355,-0.309 0.635,-0.309 0.206,0 0.394,0.065 0.563,0.196 0.168,0.131 0.307,0.337 0.415,0.618 l 0.715,-0.23 c -0.18,-0.423 -0.42,-0.736 -0.72,-0.942 -0.3,-0.205 -0.655,-0.307 -1.067,-0.307 -0.511,0 -0.903,0.174 -1.179,0.522 -0.09,0.115 -0.161,0.244 -0.211,0.387 v 1.353 c 0.121,0.492 0.342,0.886 0.662,1.181 0.384,0.354 0.846,0.531 1.384,0.531 0.47,0 0.83,-0.14 1.081,-0.417 0.032,-0.035 0.061,-0.073 0.087,-0.114 m 0,-3.015 -0.198,-0.364 h 0.198 z m 0,-3.585 V 1.73 l -1.051,-2.604 h -0.748 l -0.29,3.023 -0.466,-3.023 H -19.5 v 0.385 l 0.529,3.455 h 1.165 l 0.287,-2.619 1.081,2.619 z m 0,-1.929 -0.291,-1.911 h 0.291 z M -19.5,2.58 -19.441,2.966 H -19.5 Z m 0,10.912 v 1.004 c 0.101,0.188 0.172,0.416 0.213,0.685 0.067,0.441 0.021,0.77 -0.14,0.986 -0.022,0.031 -0.047,0.06 -0.073,0.087 v 0.836 c 0.299,-0.081 0.54,-0.234 0.724,-0.46 0.287,-0.352 0.381,-0.841 0.285,-1.468 -0.095,-0.621 -0.339,-1.107 -0.729,-1.457 -0.089,-0.08 -0.182,-0.151 -0.28,-0.213 m 0,3.598 v -0.836 c -0.157,0.159 -0.372,0.239 -0.647,0.239 -0.071,0 -0.139,-0.006 -0.205,-0.016 v 0.664 c 0.096,0.011 0.196,0.016 0.298,0.016 0.203,0 0.387,-0.022 0.554,-0.067 m 0,-2.594 v -1.004 c -0.254,-0.159 -0.538,-0.258 -0.852,-0.296 v 0.664 c 0.228,0.038 0.432,0.144 0.613,0.317 0.093,0.089 0.172,0.195 0.239,0.319 m 0,-6.111 V 7.032 c -0.104,0.29 -0.124,0.638 -0.062,1.044 0.017,0.107 0.037,0.21 0.062,0.309 m 0,-5.419 V 2.58 l -0.041,-0.263 h -0.811 v 0.649 z m 0,-3.455 v -0.385 h -0.06 z m -0.852,-0.385 v 0.649 h 0.497 l -0.1,-0.649 z m 0,1.689 v 0.65 h 0.535 l -0.099,-0.65 z m 0,5.372 h 0.154 l 0.589,3.84 h -0.743 z m 0,10.954 v -0.664 c -0.234,-0.038 -0.441,-0.143 -0.62,-0.313 -0.229,-0.22 -0.378,-0.551 -0.446,-0.994 -0.067,-0.435 -0.016,-0.765 0.15,-0.99 0.167,-0.224 0.405,-0.337 0.715,-0.337 0.069,0 0.136,0.006 0.201,0.017 v -0.664 c -0.097,-0.012 -0.198,-0.018 -0.301,-0.018 -0.572,0 -1,0.174 -1.284,0.524 -0.283,0.349 -0.378,0.829 -0.284,1.442 0.06,0.392 0.169,0.721 0.327,0.987 0.117,0.196 0.264,0.372 0.439,0.528 0.175,0.155 0.357,0.271 0.549,0.347 0.172,0.068 0.356,0.113 0.554,0.135 m 0,-7.114 v -3.84 h -0.623 l 0.588,3.84 z m 0,-7.061 V 2.317 h -1.253 l -0.132,-0.852 h 1.385 v -0.65 h -1.484 l -0.159,-1.04 h 1.643 v -0.649 h -2.52 l 0.588,3.84 z m -3.806,-3.694 V 0.04 c 0.067,0.075 0.129,0.175 0.187,0.301 0.079,0.172 0.141,0.407 0.186,0.704 0.046,0.297 0.055,0.524 0.026,0.683 -0.027,0.159 -0.081,0.282 -0.162,0.372 -0.061,0.068 -0.14,0.119 -0.237,0.153 v 0.702 c 0.16,-0.011 0.288,-0.032 0.386,-0.062 0.215,-0.066 0.39,-0.184 0.524,-0.354 0.135,-0.169 0.224,-0.377 0.271,-0.623 0.046,-0.244 0.041,-0.548 -0.014,-0.907 -0.049,-0.316 -0.13,-0.588 -0.243,-0.817 -0.139,-0.279 -0.31,-0.506 -0.515,-0.678 -0.113,-0.097 -0.249,-0.177 -0.409,-0.242 m 0,9.633 v 0.577 c 0.049,-0.126 0.061,-0.266 0.038,-0.42 -0.008,-0.053 -0.021,-0.106 -0.038,-0.157 m 0,4.36 v 0.649 c 0.044,0.005 0.081,0.011 0.113,0.019 0.131,0.032 0.243,0.085 0.336,0.16 0.095,0.075 0.181,0.199 0.259,0.37 0.079,0.172 0.141,0.407 0.187,0.704 0.045,0.297 0.054,0.524 0.026,0.683 -0.028,0.159 -0.082,0.282 -0.162,0.371 -0.081,0.089 -0.19,0.15 -0.33,0.182 -0.08,0.018 -0.223,0.029 -0.429,0.034 v 0.651 h 0.19 c 0.319,0 0.558,-0.024 0.718,-0.073 0.214,-0.067 0.389,-0.184 0.523,-0.354 0.135,-0.169 0.225,-0.377 0.271,-0.623 0.046,-0.245 0.042,-0.548 -0.014,-0.907 -0.048,-0.316 -0.129,-0.588 -0.243,-0.817 -0.139,-0.28 -0.31,-0.506 -0.514,-0.678 -0.154,-0.132 -0.351,-0.234 -0.591,-0.307 -0.097,-0.03 -0.21,-0.051 -0.34,-0.064 m 0.208,-7.078 0.584,3.808 h 0.777 l -0.484,-3.159 h 1.926 l -0.1,-0.649 z m -0.208,10.901 v -0.651 c -0.06,10e-4 -0.127,0.002 -0.199,0.002 h -0.347 l -0.39,-2.542 h 0.577 c 0.147,0 0.267,0.006 0.359,0.017 v -0.649 c -0.107,-0.012 -0.226,-0.017 -0.357,-0.017 h -1.405 v 0.335 l 0.538,3.505 z m 0,-7.606 V 8.905 c -0.038,-0.119 -0.099,-0.232 -0.182,-0.336 -0.12,-0.15 -0.268,-0.262 -0.445,-0.337 0.222,-0.069 0.383,-0.185 0.484,-0.35 0.1,-0.164 0.133,-0.357 0.099,-0.58 -0.027,-0.175 -0.093,-0.345 -0.2,-0.51 -0.107,-0.166 -0.238,-0.298 -0.394,-0.397 -0.156,-0.098 -0.338,-0.159 -0.548,-0.182 -0.095,-0.01 -0.287,-0.017 -0.576,-0.022 v 0.645 c 0.237,0.002 0.39,0.009 0.46,0.023 0.119,0.021 0.221,0.072 0.305,0.154 0.086,0.082 0.138,0.19 0.159,0.327 0.018,0.116 0.006,0.214 -0.038,0.294 -0.044,0.08 -0.116,0.139 -0.216,0.176 -0.099,0.037 -0.322,0.055 -0.67,0.055 v 0.639 c 0.283,0 0.462,0.004 0.534,0.013 0.134,0.015 0.246,0.061 0.334,0.137 0.087,0.076 0.14,0.175 0.159,0.298 0.018,0.119 0,0.215 -0.054,0.289 -0.054,0.074 -0.145,0.119 -0.271,0.134 -0.075,0.01 -0.295,0.014 -0.659,0.014 h -0.043 v 0.638 h 0.453 c 0.305,0 0.529,-0.012 0.675,-0.038 0.146,-0.026 0.271,-0.078 0.377,-0.158 0.106,-0.081 0.188,-0.187 0.246,-0.32 z m 0,-6.527 V 2.253 c -0.029,0.011 -0.06,0.02 -0.093,0.027 -0.103,0.024 -0.313,0.037 -0.628,0.037 h -0.347 l -0.389,-2.542 h 0.576 c 0.216,0 0.373,0.012 0.472,0.036 0.131,0.032 0.243,0.085 0.337,0.16 0.025,0.02 0.049,0.043 0.072,0.069 v -0.768 c -0.057,-0.024 -0.118,-0.045 -0.181,-0.065 -0.179,-0.054 -0.411,-0.081 -0.697,-0.081 h -0.884 v 3.737 l 0.016,0.103 h 1.414 c 0.123,0 0.234,-0.003 0.332,-0.011 m -1.762,13.798 0.052,0.335 h -0.052 z m 0,0.335 v -0.335 l -0.537,-3.505 h -0.595 v 1.193 l 0.406,2.647 z m 0,-3.505 -0.051,-0.335 h 0.051 z m 0,-3.556 V 9.389 h -0.402 l -0.136,-0.885 h 0.507 0.031 V 7.865 h -0.01 -0.626 l -0.158,-1.029 h 0.719 0.075 V 6.191 l -0.363,-0.004 h -0.769 v 3.52 l 0.049,0.32 z m 0,-7.164 v -3.737 h -0.572 z m -1.132,-3.737 v 0.834 l 0.04,-0.085 0.354,-0.749 z m 0,1.934 v 1.817 l 0.041,-0.015 c 0.176,-0.069 0.305,-0.191 0.39,-0.367 0.085,-0.177 0.11,-0.378 0.075,-0.605 C -26.59,1.601 -26.71,1.363 -26.908,1.176 -26.953,1.134 -27,1.095 -27.052,1.06 m 0,15.379 h 0.084 l 0.099,0.649 h -0.183 z m 0,0 h -0.529 v 0.649 h 0.529 z m 0,-1.998 v -1.193 h -0.183 z m 0,-4.734 v -3.52 h -0.529 v 0.067 z m 0,-6.83 V 1.06 c -0.147,-0.1 -0.323,-0.171 -0.529,-0.215 v 0.61 c 0.039,0.026 0.075,0.059 0.105,0.096 0.065,0.077 0.106,0.173 0.123,0.289 0.021,0.129 0.001,0.233 -0.055,0.313 -0.041,0.058 -0.098,0.099 -0.173,0.126 v 0.679 c 0.227,-0.012 0.404,-0.039 0.529,-0.081 m 0,-2.917 v -0.834 h -0.529 v 1.596 c 0.089,-0.07 0.164,-0.144 0.225,-0.223 0.082,-0.106 0.183,-0.285 0.304,-0.539 m -0.529,10 v 0.067 h 0.01 z m 0,7.128 V 16.439 H -28.1 l -0.489,-3.191 h -0.778 l 0.489,3.191 h -1.137 l 0.1,0.649 z m 0,-7.061 V 9.96 L -27.88,8.008 C -27.951,7.546 -28.021,7.22 -28.093,7.03 -28.164,6.839 -28.265,6.679 -28.398,6.547 -28.53,6.416 -28.696,6.312 -28.896,6.234 c -0.2,-0.078 -0.451,-0.117 -0.754,-0.117 -0.366,0 -0.637,0.042 -0.812,0.127 -0.176,0.085 -0.308,0.195 -0.397,0.331 -0.09,0.136 -0.139,0.277 -0.151,0.426 -0.017,0.22 0.008,0.545 0.073,0.975 l 0.315,2.051 h 0.778 l -0.32,-2.081 c -0.05,-0.331 -0.073,-0.544 -0.07,-0.642 0.01,-0.157 0.068,-0.284 0.177,-0.379 0.109,-0.096 0.271,-0.143 0.486,-0.143 0.217,0 0.388,0.045 0.513,0.135 0.125,0.09 0.207,0.2 0.25,0.332 0.043,0.131 0.087,0.348 0.134,0.653 l 0.325,2.125 z m 0,-3.773 -0.01,-0.067 h 0.01 z m 0,-3.296 V 2.279 c -0.029,0.011 -0.061,0.019 -0.095,0.024 -0.063,0.01 -0.25,0.014 -0.564,0.014 h -0.606 l -0.149,-0.976 h 0.574 c 0.371,0 0.606,0.016 0.703,0.047 0.05,0.016 0.096,0.039 0.137,0.067 v -0.61 c -0.044,-0.009 -0.091,-0.018 -0.139,-0.025 0.05,-0.031 0.096,-0.064 0.139,-0.098 v -1.596 h -0.004 l -0.428,0.838 c -0.154,0.298 -0.261,0.486 -0.324,0.563 -0.061,0.077 -0.131,0.131 -0.209,0.16 -0.078,0.028 -0.207,0.042 -0.385,0.042 h -0.158 l -0.246,-1.603 h -0.777 l 0.588,3.84 h 1.633 c 0.112,0 0.216,-0.003 0.31,-0.008 m -4.327,-3.866 c 0.384,0.068 0.72,0.231 1.008,0.491 0.391,0.35 0.634,0.836 0.729,1.457 0.096,0.627 0.002,1.116 -0.284,1.468 -0.287,0.351 -0.712,0.528 -1.279,0.528 -0.059,0 -0.117,-0.002 -0.174,-0.006 V 2.368 c 0.027,0.002 0.054,0.003 0.081,0.003 0.322,0 0.561,-0.108 0.721,-0.326 0.161,-0.216 0.207,-0.545 0.139,-0.986 -0.068,-0.446 -0.219,-0.78 -0.452,-1.004 -0.147,-0.141 -0.31,-0.237 -0.489,-0.289 z m 0,8.712 v 2.189 c 0.048,-0.007 0.087,-0.015 0.118,-0.023 0.21,-0.058 0.375,-0.183 0.494,-0.377 0.118,-0.193 0.155,-0.442 0.108,-0.748 -0.037,-0.236 -0.109,-0.433 -0.219,-0.594 -0.111,-0.161 -0.238,-0.287 -0.383,-0.379 -0.04,-0.025 -0.079,-0.047 -0.118,-0.068 m 0,6.577 v 1.085 c 0.229,0.005 0.379,0.021 0.453,0.044 0.097,0.031 0.178,0.086 0.242,0.163 0.064,0.077 0.105,0.173 0.123,0.289 0.02,0.129 0.001,0.233 -0.056,0.313 -0.056,0.08 -0.146,0.13 -0.268,0.15 -0.058,0.009 -0.222,0.013 -0.494,0.014 v 0.649 h 0.28 c 0.41,0 0.703,-0.035 0.879,-0.104 0.176,-0.068 0.306,-0.191 0.39,-0.367 0.085,-0.177 0.11,-0.378 0.076,-0.605 -0.045,-0.289 -0.165,-0.527 -0.363,-0.715 -0.198,-0.187 -0.468,-0.305 -0.812,-0.355 0.153,-0.097 0.274,-0.204 0.364,-0.321 0.091,-0.118 0.206,-0.326 0.345,-0.624 l 0.353,-0.749 h -0.928 l -0.427,0.838 c -0.059,0.115 -0.111,0.213 -0.157,0.295 m 0,2.707 v -0.649 h -0.07 -0.605 l -0.125,-0.815 v 1.464 z m 0,-1.622 v -1.085 c -0.072,0.131 -0.128,0.221 -0.167,0.268 -0.061,0.077 -0.131,0.131 -0.208,0.16 -0.079,0.028 -0.208,0.042 -0.386,0.042 h -0.039 v 0.612 h 0.549 c 0.092,0 0.176,0.001 0.251,0.003 m 0,-5.473 V 7.804 C -32.013,7.75 -32.117,7.712 -32.22,7.69 -32.347,7.666 -32.51,7.65 -32.708,7.641 v 0.652 c 0.142,0.009 0.247,0.027 0.315,0.052 0.109,0.04 0.199,0.102 0.27,0.189 0.072,0.086 0.116,0.185 0.134,0.299 0.021,0.141 -0.002,0.256 -0.07,0.348 -0.068,0.091 -0.162,0.148 -0.284,0.171 -0.068,0.013 -0.189,0.021 -0.365,0.024 v 0.651 h 0.005 c 0.366,0 0.631,-0.011 0.795,-0.034 m 0,-6.963 V 2.368 c -0.285,-0.017 -0.534,-0.126 -0.743,-0.326 -0.02,-0.019 -0.039,-0.039 -0.057,-0.059 v 0.846 c 0.04,0.02 0.081,0.038 0.123,0.055 0.207,0.082 0.432,0.131 0.677,0.146 m 0,-3.264 v -0.674 c -0.136,-0.024 -0.278,-0.036 -0.425,-0.036 -0.133,0 -0.258,0.01 -0.375,0.028 v 0.756 c 0.133,-0.079 0.291,-0.119 0.475,-0.119 0.114,0 0.222,0.015 0.325,0.045 m -0.8,17.322 v -1.464 l -0.025,-0.161 h 0.025 v -0.612 h -0.119 l -0.246,-1.603 h -0.777 l 0.589,3.84 z m 0,-7.061 V 9.376 l -0.187,0.002 h -0.373 l -0.168,-1.094 h 0.423 c 0.115,0 0.217,0.003 0.305,0.009 V 7.641 c -0.099,-0.004 -0.207,-0.006 -0.323,-0.006 h -0.504 l -0.222,-1.448 h -0.724 v 0.35 l 0.535,3.49 z m 0,-7.198 V 1.983 c -0.198,-0.219 -0.327,-0.53 -0.39,-0.934 -0.066,-0.436 -0.016,-0.766 0.151,-0.991 0.067,-0.091 0.147,-0.164 0.239,-0.218 v -0.756 c -0.388,0.063 -0.691,0.227 -0.908,0.496 -0.284,0.349 -0.379,0.829 -0.285,1.443 0.06,0.391 0.17,0.72 0.328,0.987 0.116,0.195 0.263,0.371 0.438,0.527 0.137,0.122 0.28,0.219 0.427,0.292 m -1.773,6.849 0.054,0.349 h -0.054 z m 0,3.57 v 1.902 l 0.47,-1.902 z m 0,1.902 v -1.902 h -0.367 l -0.198,0.874 h -0.679 v 0.649 h 0.527 l -0.316,1.421 -0.211,-0.406 v 1.302 h 0.764 z m 0,-5.123 V 9.678 l -0.046,-0.3 h -1.198 v 0.649 z m 0,-3.49 v -0.35 h -0.054 z m -1.244,-7.411 v 0.981 l 0.243,-0.981 z m 0,7.061 v 0.649 h 0.883 l -0.099,-0.649 z m 0,1.689 v 0.649 h 0.923 l -0.1,-0.649 z m -1.721,9.068 c 0.116,-0.068 0.212,-0.165 0.289,-0.29 0.118,-0.193 0.155,-0.442 0.108,-0.748 -0.037,-0.236 -0.11,-0.433 -0.22,-0.594 -0.054,-0.08 -0.113,-0.152 -0.177,-0.214 z m 1.721,0.144 h -0.057 l -1.664,-3.072 v -0.768 h 0.407 l 0.453,0.874 h 0.861 v 0.649 h -0.526 l 0.526,1.015 z m 0,-7.061 V 9.378 h -0.867 l -0.131,-0.853 h 0.998 V 7.876 h -1.097 l -0.16,-1.04 h 1.257 V 6.187 h -1.721 v 2.694 l 0.176,1.146 z m 0,-9.92 v -0.981 h -0.594 L -36.517,0 h -0.929 v 0.649 h 0.776 l -0.316,1.421 -0.46,-0.888 V 2.61 l 0.193,0.356 h 0.821 z m -2.127,16.957 c 0.086,-0.009 0.153,-0.02 0.2,-0.033 0.074,-0.021 0.143,-0.05 0.206,-0.087 v -1.846 c -0.064,-0.064 -0.133,-0.119 -0.206,-0.165 -0.067,-0.042 -0.134,-0.078 -0.2,-0.107 v 1.058 l 10e-4,0.011 c 0.011,0.071 0.011,0.135 -10e-4,0.193 z m 0.406,-3.048 v -0.768 h -0.406 v 0.017 z m 0,-5.135 V 6.187 h -0.406 v 0.042 z m 0,-6.271 V 1.182 l -0.276,-0.533 h 0.276 V 0 h -0.406 v 1.86 z m -1.124,14.478 h 0.006 c 0.309,0 0.547,-0.008 0.712,-0.024 v -0.976 c -0.012,0.057 -0.034,0.108 -0.067,0.153 -0.069,0.091 -0.163,0.149 -0.286,0.172 -0.067,0.013 -0.189,0.021 -0.365,0.024 z m 0.718,-2.262 c -0.077,-0.034 -0.153,-0.059 -0.229,-0.074 -0.128,-0.025 -0.29,-0.042 -0.489,-0.05 v 0.652 c 0.143,0.009 0.248,0.027 0.315,0.052 0.11,0.04 0.2,0.102 0.271,0.189 0.069,0.083 0.113,0.179 0.132,0.289 z m 0,-1.561 v -0.017 h -0.01 z m 0,-7.036 V 6.187 h -0.007 z m 0,-4.369 V 0 h -0.205 l -0.453,-0.874 h -0.06 v 1.409 z m -0.718,4.327 v 1.132 c 0.058,-0.104 0.122,-0.232 0.192,-0.383 l 0.354,-0.749 z m 0,1.846 v 1.944 c 0.075,-0.015 0.139,-0.033 0.192,-0.054 0.176,-0.068 0.306,-0.191 0.391,-0.367 0.084,-0.177 0.11,-0.378 0.075,-0.606 -0.044,-0.288 -0.165,-0.526 -0.363,-0.713 -0.084,-0.081 -0.183,-0.149 -0.295,-0.204 m -0.604,9.055 h 0.604 v -0.651 l -0.186,0.002 h -0.373 l -0.045,-0.289 z m 0.604,-2.386 c -0.098,-0.004 -0.206,-0.006 -0.322,-0.006 h -0.282 v 0.649 h 0.3 c 0.116,0 0.217,0.003 0.304,0.009 z m 0,-4.725 V 8.033 c -0.148,-0.073 -0.32,-0.124 -0.516,-0.151 0.152,-0.098 0.273,-0.205 0.364,-0.322 0.045,-0.058 0.095,-0.138 0.152,-0.241 V 6.187 h -0.382 l -0.222,0.435 V 8.43 c 0.038,0.006 0.067,0.012 0.09,0.019 0.097,0.032 0.178,0.086 0.242,0.163 0.065,0.077 0.106,0.173 0.123,0.289 0.02,0.129 10e-4,0.233 -0.055,0.314 -0.057,0.079 -0.147,0.129 -0.269,0.15 -0.024,0.003 -0.068,0.006 -0.131,0.008 v 0.654 c 0.248,-0.004 0.449,-0.02 0.604,-0.05 m 0,-9.442 v -1.409 h -0.604 v 0.294 z m -0.604,-0.022 c 0.049,0.151 0.087,0.317 0.114,0.496 0.055,0.359 0.06,0.663 0.014,0.907 -0.027,0.146 -0.07,0.277 -0.128,0.396 z m -0.362,16.575 h 0.362 V 16.15 l -0.123,-0.805 h 0.123 v -0.649 h -0.223 l -0.139,-0.91 z m 0.362,-7.061 V 9.373 c -0.085,0.003 -0.206,0.005 -0.362,0.005 v 0.649 h 0.279 z m 0,-1.597 V 6.622 l -0.205,0.403 c -0.059,0.115 -0.111,0.213 -0.157,0.295 v 1.085 c 0.158,0.004 0.279,0.012 0.362,0.025 m 0,-6.118 V 0.513 c -0.037,-0.115 -0.079,-0.222 -0.129,-0.321 -0.069,-0.14 -0.147,-0.267 -0.233,-0.38 v 2.934 c 0.082,-0.057 0.155,-0.126 0.219,-0.207 0.055,-0.07 0.103,-0.145 0.143,-0.227 m 0,-2.892 v -0.294 h -0.159 z m -1.222,13.828 0.589,3.84 h 0.271 v -3.302 l -0.083,-0.538 z m 0.86,-3.221 V 9.378 h -0.071 -0.605 l -0.149,-0.976 h 0.574 c 0.092,0 0.176,0.001 0.251,0.003 V 7.32 c -0.073,0.131 -0.129,0.221 -0.167,0.268 -0.062,0.077 -0.131,0.131 -0.209,0.16 -0.079,0.028 -0.207,0.042 -0.386,0.042 h -0.157 l -0.246,-1.603 h -0.046 v 3.84 z m 0,-7.281 v -2.934 c -0.086,-0.113 -0.18,-0.212 -0.281,-0.298 -0.154,-0.132 -0.352,-0.234 -0.591,-0.307 -0.097,-0.03 -0.21,-0.051 -0.339,-0.064 v 0.649 c 0.043,0.005 0.08,0.012 0.112,0.019 0.131,0.032 0.242,0.085 0.337,0.16 0.094,0.075 0.18,0.199 0.258,0.37 0.079,0.172 0.141,0.407 0.187,0.704 0.045,0.297 0.054,0.524 0.026,0.683 -0.028,0.159 -0.082,0.282 -0.162,0.372 -0.081,0.088 -0.19,0.149 -0.33,0.18 -0.08,0.019 -0.223,0.03 -0.428,0.035 v 0.651 h 0.189 c 0.319,0 0.558,-0.024 0.718,-0.073 0.112,-0.035 0.213,-0.084 0.304,-0.147 m -1.211,7.281 v -3.84 h -0.731 l 0.588,3.84 z m 0,-7.061 V 2.315 c -0.062,10e-4 -0.128,0.002 -0.2,0.002 h -0.347 l -0.39,-2.542 h 0.576 c 0.147,0 0.268,0.006 0.361,0.017 v -0.649 c -0.109,-0.012 -0.228,-0.017 -0.358,-0.017 h -1.456 l 0.589,3.84 z"/>
        </g>
      </g>
    </g>
  </g>
</svg>