<?xml version="1.0" encoding="UTF-8"?>
<svg xmlns="http://www.w3.org/2000/svg" xmlns:xlink="http://www.w3.org/1999/xlink" width="595pt" height="339.3pt" viewBox="0 0 595 339.3" version="1.1">
<defs>
<clipPath id="clip1">
  <path d="M 109 172 L 224 172 L 224 339.300781 L 109 339.300781 Z M 109 172 "/>
</clipPath>
</defs>
<g id="surface1">
<path style=" stroke:none;fill-rule:evenodd;fill:rgb(90.234375%,19.213867%,12.939453%);fill-opacity:1;" d="M 424.351563 59.53125 C 427.761719 63.316406 432.125 64.007813 437.105469 61.585938 L 437.105469 91.796875 C 436.417969 104.453125 431.210938 118.316406 427.285156 125.753906 C 426.863281 126.554688 427.613281 127.246094 427.269531 127.972656 C 437.625 121.527344 438.867188 116.449219 439.238281 105.101563 C 439.371094 101.019531 439.253906 96.933594 439.238281 92.113281 L 439.238281 66.339844 C 441.859375 67.683594 444.558594 68.742188 447.597656 69.367188 C 455.707031 71.039063 461.886719 70.148438 466.980469 63.101563 C 469.351563 59.8125 470.730469 55.789063 471.542969 51.121094 C 464.410156 57.316406 463.105469 56.496094 454.433594 57.222656 C 452.433594 57.390625 450.375 57.902344 448.011719 59.539063 C 445.316406 61.40625 443.121094 63.933594 439.238281 65.550781 L 439.238281 52.664063 C 454.1875 54.160156 465.605469 40.652344 461.632813 26.242188 C 460.84375 31.324219 459.050781 35.390625 454.554688 36.761719 C 447.960938 38.773438 442.804688 43.1875 439.238281 50.242188 L 439.238281 38.914063 C 443.480469 35.050781 446.3125 30.953125 447.800781 26.652344 C 449.976563 20.347656 449.460938 12.828125 445.296875 7.441406 C 442.730469 4.128906 439.101563 1.871094 435.136719 -0.0507813 C 436.175781 6.121094 435.839844 10.851563 433.824219 16.699219 C 433.0625 18.910156 432.261719 21.074219 431.898438 23.574219 C 431.046875 29.453125 432.421875 34.945313 437.105469 39.570313 L 437.105469 60.882813 C 433.992188 59.339844 432.15625 56.6875 431.003906 53.640625 C 429.277344 49.085938 429.582031 46.421875 426.511719 41.824219 C 423.671875 37.574219 419.714844 34.347656 416.125 32.109375 C 418.792969 38.222656 418.359375 43.496094 419.1875 48.46875 C 419.8125 52.234375 421.789063 56.679688 424.351563 59.53125 Z M 424.351563 59.53125 "/>
<path style=" stroke:none;fill-rule:evenodd;fill:rgb(90.234375%,19.213867%,12.939453%);fill-opacity:1;" d="M 60.25 286.746094 C 58.808594 286.746094 56.167969 286.746094 53.050781 286.511719 L 43.6875 335.949219 L 0 335.949219 L 30.726563 175.507813 C 45.609375 174.789063 61.691406 174.316406 80.894531 174.316406 C 112.339844 174.316406 135.382813 188.105469 135.382813 218.53125 C 135.382813 254.898438 104.65625 286.746094 60.25 286.746094 Z M 74.414063 210.210938 C 71.53125 210.210938 69.851563 210.210938 67.933594 210.449219 L 60.492188 249.664063 C 61.929688 249.90625 62.890625 249.90625 63.371094 249.90625 C 79.214844 249.90625 89.535156 237.070313 89.535156 223.757813 C 89.535156 216.390625 85.214844 210.210938 74.414063 210.210938 Z M 74.414063 210.210938 "/>
<g clip-path="url(#clip1)" clip-rule="nonzero">
<path style=" stroke:none;fill-rule:evenodd;fill:rgb(90.234375%,19.213867%,12.939453%);fill-opacity:1;" d="M 215.792969 213.300781 C 208.832031 210.921875 200.433594 209.023438 192.992188 209.023438 C 177.148438 209.023438 171.867188 214.488281 171.867188 222.09375 C 171.867188 239.203125 214.355469 239.917969 214.355469 278.902344 C 214.355469 311.945313 184.589844 339.277344 142.101563 339.277344 C 129.621094 339.277344 118.097656 338.085938 109.214844 336.425781 L 116.898438 295.304688 C 125.78125 298.632813 135.140625 300.535156 144.503906 300.535156 C 159.144531 300.535156 166.105469 296.257813 166.105469 286.984375 C 166.105469 269.871094 123.617188 270.347656 123.617188 232.316406 C 123.617188 199.515625 145.941406 172.179688 193.472656 172.179688 C 204.273438 172.179688 214.355469 173.128906 223.476563 174.554688 Z M 215.792969 213.300781 "/>
</g>
<path style=" stroke:none;fill-rule:evenodd;fill:rgb(90.234375%,19.213867%,12.939453%);fill-opacity:1;" d="M 317.570313 250.617188 L 317.570313 250.855469 C 328.128906 254.417969 334.132813 266.070313 334.132813 278.902344 C 334.132813 310.039063 303.886719 336.425781 258.757813 336.425781 C 246.996094 336.425781 228.753906 335.949219 201.871094 335.949219 L 232.59375 175.742188 C 248.917969 174.789063 276.28125 174.316406 293.566406 174.316406 C 323.808594 174.316406 345.171875 183.351563 345.171875 209.023438 C 345.171875 228.746094 334.371094 242.0625 317.570313 250.617188 Z M 272.203125 270.347656 C 267.160156 270.347656 260.917969 270.347656 258.039063 270.585938 L 252.757813 299.820313 C 255.15625 300.058594 259.960938 300.292969 262.359375 300.292969 C 278.683594 300.292969 287.082031 291.027344 287.082031 281.519531 C 287.082031 274.386719 281.804688 270.347656 272.203125 270.347656 Z M 282.523438 209.972656 C 277.242188 209.972656 273.640625 210.210938 269.800781 210.449219 L 264.519531 237.546875 C 266.921875 237.78125 269.320313 237.78125 271.722656 237.78125 C 287.5625 237.78125 297.40625 230.175781 297.40625 219.480469 C 297.40625 213.0625 292.125 209.972656 282.523438 209.972656 Z M 282.523438 209.972656 "/>
<path style=" stroke:none;fill-rule:evenodd;fill:rgb(90.234375%,19.213867%,12.939453%);fill-opacity:1;" d="M 466.855469 298.15625 L 445.253906 298.15625 L 437.8125 335.949219 L 402.527344 335.949219 L 409.726563 298.15625 L 348.515625 298.15625 L 348.996094 267.257813 L 421.730469 175.507813 L 468.535156 175.507813 L 451.492188 264.878906 L 473.097656 264.878906 Z M 427.25 210.449219 L 384.042969 265.832031 C 391.964844 265.59375 409.96875 265.59375 416.929688 265.59375 L 427.488281 210.449219 Z M 427.25 210.449219 "/>
<path style=" stroke:none;fill-rule:evenodd;fill:rgb(90.234375%,19.213867%,12.939453%);fill-opacity:1;" d="M 513.421875 338.328125 C 481.496094 338.328125 463.734375 320.976563 463.734375 284.609375 C 463.734375 225.898438 495.898438 173.367188 544.386719 173.367188 C 580.875 173.367188 595.277344 194.285156 595.277344 226.609375 C 595.277344 275.578125 570.550781 338.328125 513.421875 338.328125 Z M 541.746094 203.554688 C 510.542969 203.554688 501.417969 263.214844 501.417969 285.085938 C 501.417969 300.292969 506.941406 307.421875 517.503906 307.421875 C 542.945313 307.421875 557.589844 258.699219 557.589844 225.898438 C 557.589844 210.683594 552.066406 203.554688 541.746094 203.554688 Z M 541.746094 203.554688 "/>
<path style=" stroke:none;fill-rule:evenodd;fill:rgb(90.234375%,19.213867%,12.939453%);fill-opacity:1;" d="M 308.792969 118.035156 C 308.792969 118.035156 327.695313 127.449219 346.183594 110.007813 C 364.679688 92.570313 374.476563 59.097656 426.453125 71.429688 C 426.453125 71.429688 419.75 94.761719 415.953125 119.132813 C 412.152344 143.496094 404.585938 191.964844 350.507813 222.089844 L 342.0625 234.96875 C 342.0625 234.96875 379.710938 226.65625 399.644531 187.28125 C 419.574219 147.90625 421.550781 117.546875 425.507813 99.425781 C 429.464844 81.308594 436.402344 72.414063 443.8125 67.3125 C 443.8125 67.3125 409.011719 57.121094 388.328125 62.359375 C 367.644531 67.597656 358.742188 89.140625 347.863281 99.914063 C 336.984375 110.6875 327.585938 121.464844 308.792969 118.035156 Z M 308.792969 118.035156 "/>
<path style=" stroke:none;fill-rule:evenodd;fill:rgb(90.234375%,19.213867%,12.939453%);fill-opacity:1;" d="M 412.9375 77.921875 C 412.9375 80.683594 410.675781 82.921875 407.890625 82.921875 C 405.097656 82.921875 402.832031 80.683594 402.832031 77.921875 C 402.832031 75.160156 405.097656 72.921875 407.890625 72.921875 C 410.675781 72.921875 412.9375 75.160156 412.9375 77.921875 Z M 412.9375 77.921875 "/>
<path style=" stroke:none;fill-rule:evenodd;fill:rgb(90.234375%,19.213867%,12.939453%);fill-opacity:1;" d="M 268.996094 125.050781 C 268.996094 125.050781 229.78125 163.34375 195.597656 154.496094 C 161.417969 145.644531 184.886719 120.011719 184.886719 120.011719 C 184.886719 120.011719 163.488281 126.164063 158.3125 117.960938 C 153.132813 109.757813 173.152344 98.820313 173.152344 98.820313 C 173.152344 98.820313 141.246094 107.871094 136.222656 101.898438 C 131.195313 95.925781 175.566406 79.339844 175.566406 79.339844 C 175.566406 79.339844 129.320313 81.734375 126.902344 69.089844 C 124.488281 56.445313 163.140625 55.078125 163.140625 55.078125 C 163.140625 55.078125 128.53125 48.085938 127.6875 38.046875 C 126.847656 28.011719 186.507813 32.882813 234.121094 46.507813 C 291.53125 62.9375 371.285156 119.414063 371.285156 119.414063 C 371.285156 119.414063 338.472656 83.101563 265.648438 49.269531 C 192.824219 15.433594 114.132813 22.269531 109.300781 32.863281 C 104.46875 43.453125 134.148438 53.027344 134.148438 53.027344 C 134.148438 53.027344 108.265625 60.890625 111.714844 71.484375 C 115.167969 82.074219 146.230469 84.808594 146.230469 84.808594 C 146.230469 84.808594 112.65625 98.355469 121.035156 109.414063 C 127.25 117.617188 147.414063 111.484375 147.414063 111.484375 C 147.414063 111.484375 138.390625 133.808594 170.613281 129.132813 C 170.613281 129.132813 155.894531 159.996094 195.929688 163.757813 C 235.964844 167.519531 268.996094 125.050781 268.996094 125.050781 Z M 268.996094 125.050781 "/>
</g>
</svg>
