<?xml version="1.0" encoding="utf-8"?>
<svg viewBox="0 0 500 500" xmlns="http://www.w3.org/2000/svg">
  <g style="" transform="matrix(1.179468, 0, 0, 1.179468, -35.270966, -44.940411)">
    <path d="M 430.621 197.463 L 416.048 182.89 C 405.199 197.8 392.717 211.445 378.853 223.545 C 334.277 189.477 278.581 169.219 218.151 169.219 C 157.726 169.219 102.027 189.477 57.455 223.545 L 41.569 236.692 L 57.455 249.836 C 102.027 283.907 157.726 304.154 218.151 304.154 C 278.581 304.154 334.277 283.907 378.853 249.836 C 392.473 261.72 404.766 275.1 415.478 289.706 L 430.043 275.141 C 419.555 261.194 407.723 248.308 394.739 236.692 C 407.959 224.857 419.993 211.712 430.621 197.463 M 362.398 236.692 C 321.959 266.292 272.096 283.781 218.151 283.781 C 164.212 283.781 114.344 266.292 73.909 236.692 C 114.344 207.094 164.212 189.6 218.151 189.6 C 272.096 189.6 321.959 207.094 362.398 236.692" style="fill: rgb(0, 111, 65); fill-opacity: 1; fill-rule: nonzero; stroke: none;"/>
    <path d="M 143.588 261.097 L 151.048 211.308 L 171.533 211.308 C 178.568 211.308 183.76 212.578 187.094 215.112 C 190.428 217.643 192.097 221.556 192.097 226.827 C 192.097 232.936 190.283 237.499 186.675 240.517 C 183.049 243.532 177.59 245.046 170.287 245.046 L 161.562 245.046 L 159.306 261.097 L 143.588 261.097 Z M 163.092 233.279 L 168.622 233.279 C 171.674 233.279 173.823 232.843 175.069 231.977 C 176.32 231.106 176.947 229.677 176.947 227.671 C 176.947 226.058 176.405 224.881 175.318 224.138 C 174.246 223.41 172.519 223.043 170.146 223.043 L 164.747 223.043 L 163.092 233.279 Z" style="fill: rgb(0, 111, 65); fill-opacity: 1; fill-rule: nonzero; stroke: none;"/>
    <path d="M 193.076 245.245 L 208.529 245.245 L 208.529 245.376 C 208.529 247.206 209.164 248.612 210.433 249.599 C 211.712 250.577 213.533 251.061 215.925 251.061 C 217.686 251.061 219.033 250.709 219.951 250.032 C 220.87 249.341 221.34 248.345 221.34 247.031 C 221.34 245.419 219.26 243.721 215.112 241.967 C 214.102 241.543 213.316 241.19 212.747 240.947 C 206.916 238.374 202.955 235.943 200.863 233.639 C 198.775 231.315 197.741 228.479 197.741 225.097 C 197.741 220.368 199.495 216.666 203.003 214.006 C 206.497 211.342 211.403 210.012 217.686 210.012 C 223.981 210.012 228.952 211.424 232.63 214.24 C 236.307 217.056 238.329 221.025 238.711 226.141 L 223.837 226.141 C 223.61 224.454 222.975 223.19 221.917 222.371 C 220.854 221.553 219.341 221.134 217.394 221.134 C 216.076 221.134 215.005 221.463 214.161 222.121 C 213.316 222.775 212.89 223.583 212.89 224.553 C 212.89 226.024 215.398 227.788 220.385 229.859 C 222.374 230.694 223.971 231.372 225.158 231.889 C 229.169 233.643 232.126 235.703 234.017 238.049 C 235.903 240.406 236.857 243.195 236.857 246.422 C 236.857 251.477 234.986 255.398 231.251 258.196 C 227.5 261.004 222.233 262.419 215.446 262.419 C 208.402 262.419 202.905 260.905 198.968 257.887 C 195.04 254.872 193.076 250.659 193.076 245.245" style="fill: rgb(0, 111, 65); fill-opacity: 1; fill-rule: nonzero; stroke: none;"/>
    <path d="M 277.486 242.138 L 292.797 242.138 C 291.692 248.534 288.969 253.538 284.615 257.139 C 280.268 260.751 274.829 262.554 268.287 262.554 C 260.738 262.554 254.798 260.408 250.468 256.129 C 246.141 251.841 243.984 245.966 243.984 238.512 C 243.984 234.811 244.603 231.243 245.832 227.809 C 247.059 224.382 248.823 221.324 251.121 218.666 C 253.595 215.808 256.545 213.635 259.954 212.155 C 263.372 210.686 267.168 209.94 271.334 209.94 C 278.19 209.94 283.519 211.671 287.347 215.149 C 291.183 218.624 293.339 223.679 293.817 230.298 L 278.942 230.264 C 278.867 227.716 278.163 225.745 276.827 224.324 C 275.491 222.903 273.634 222.185 271.268 222.185 C 267.817 222.185 265.027 223.771 262.897 226.94 C 260.766 230.106 259.704 234.267 259.704 239.425 C 259.704 242.942 260.39 245.599 261.741 247.387 C 263.104 249.174 265.126 250.077 267.783 250.077 C 270.05 250.077 272.038 249.385 273.709 248.013 C 275.398 246.635 276.652 244.679 277.486 242.138" style="fill: rgb(0, 111, 65); fill-opacity: 1; fill-rule: nonzero; stroke: none;"/>
  </g>
</svg>