<?xml version="1.0" encoding="utf-8"?>
<svg viewBox="0 0 500 500" xmlns="http://www.w3.org/2000/svg">
  <g id="layer1" transform="matrix(7.937396, 0, 0, 7.937396, -593.562805, -1140.412964)" style="">
    <g fill-rule="nonzero" transform="matrix(0.26458333,0,0,0.26458333,62.387805,109.8361)" id="g24">
      <path d="m 108.43,231.82 c 0.64,-7.33 -0.77,-12.46 -7.7,-12.46 -3.595,0 -6.082,0.12 -8.476,0.49 l -2.923,33.48 c 2.453,0.24 5.397,0.6 8.373,0.6 6.936,0 9.256,-5.37 9.896,-12.58 z m -12.419,41.41 c -1.978,0 -5.787,-0.36 -8.36,-0.73 l -1.793,20.53 c -0.118,1.34 -1.341,2.56 -2.704,2.56 H 64.568 c -1.358,0 -2.616,-1.22 -2.499,-2.56 l 7.538,-86.13 c 0.182,-2.07 1.011,-3.05 4.803,-3.9 6.556,-1.35 16.872,-3.07 28.02,-3.07 20.32,0 31.59,11.25 29.79,31.89 l -0.84,9.53 c -1.7,19.43 -13.44,31.88 -35.369,31.88" fill="#254890" id="path12"/>
      <path d="m 156.45,273.23 c -8.8,0 -17.11,-1.33 -22.67,-2.92 -1.44,-0.37 -2.24,-1.23 -2.11,-2.7 l 1.1,-12.57 c 0.13,-1.47 1.09,-2.57 2.83,-2.57 h 0.49 c 7.23,0.97 17.05,1.95 21.14,1.95 4.7,0 5.93,-1.22 6.13,-3.54 0.12,-1.35 -0.53,-2.45 -3.36,-4.03 l -14.41,-8.07 c -7.44,-4.15 -10.86,-10.38 -10.08,-19.3 1.09,-12.46 10.5,-19.55 28.96,-19.55 9.42,0 16.72,1.47 22.54,3.07 1.45,0.36 2.37,1.21 2.23,2.68 l -1.12,12.95 c -0.13,1.46 -0.97,2.44 -2.33,2.44 h -0.36 c -3.55,-0.49 -15.57,-1.95 -21.14,-1.95 -3.22,0 -4.65,0.73 -4.82,2.69 -0.1,0.97 0.7,1.84 2.48,2.81 l 13.81,7.69 c 9.7,5.38 11.95,12.22 11.35,19.05 -1.09,12.35 -10.59,21.87 -30.66,21.87" fill="#70c846" id="path14"/>
      <path d="m 233.21,219.85 c -2.46,-0.25 -5.41,-0.49 -8.38,-0.49 -6.94,0 -9.39,5.26 -10.02,12.46 l -0.83,9.53 c -0.64,7.32 0.89,12.58 7.82,12.58 3.6,0 6.09,-0.24 8.48,-0.6 z m 14.92,50.33 c -6.56,1.34 -16.87,3.05 -28.02,3.05 -20.31,0 -31.59,-11.23 -29.79,-31.88 l 0.84,-9.53 c 1.7,-19.42 13.44,-31.89 35.37,-31.89 1.98,0 5.78,0.5 8.34,0.86 l 1.81,-20.64 c 0.12,-1.35 1.33,-2.45 2.7,-2.45 h 18.45 c 1.36,0 2.63,1.1 2.51,2.45 l -7.53,86.12 c -0.18,2.07 -0.89,3.05 -4.68,3.91" fill="#f9af1e" id="path16"/>
      <path d="m 250.74,292.33 c 0,0.54 -0.12,0.98 -0.36,1.29 -0.23,0.32 -0.58,0.49 -1.05,0.49 -0.45,0 -0.8,-0.17 -1.04,-0.49 -0.23,-0.31 -0.35,-0.75 -0.35,-1.29 v -1.06 c 0,-0.54 0.12,-0.97 0.35,-1.29 0.24,-0.32 0.59,-0.48 1.04,-0.48 0.47,0 0.82,0.16 1.05,0.48 0.24,0.32 0.36,0.75 0.36,1.29 z m 1.52,-2.36 c -0.13,-0.4 -0.33,-0.75 -0.59,-1.03 -0.27,-0.29 -0.59,-0.52 -0.97,-0.68 -0.39,-0.17 -0.85,-0.25 -1.37,-0.25 -0.51,0 -0.96,0.1 -1.35,0.25 -0.39,0.16 -0.71,0.39 -0.98,0.68 -0.25,0.28 -0.45,0.63 -0.58,1.03 -0.14,0.39 -0.22,0.83 -0.22,1.3 v 1.06 c 0,0.47 0.1,0.91 0.22,1.31 0.13,0.39 0.33,0.73 0.58,1.02 0.27,0.29 0.59,0.52 0.98,0.68 0.39,0.17 0.84,0.25 1.35,0.25 0.52,0 0.98,-0.1 1.37,-0.25 0.38,-0.16 0.7,-0.39 0.97,-0.68 0.26,-0.29 0.46,-0.63 0.59,-1.02 0.14,-0.4 0.21,-0.84 0.21,-1.31 v -1.06 c 0,-0.47 -0.1,-0.91 -0.21,-1.3 m -7.18,-1.79 c -0.15,-0.1 -0.36,-0.1 -0.65,-0.12 -0.3,-0.1 -0.64,-0.1 -1.04,-0.1 -0.43,0 -0.82,0.1 -1.19,0.2 -0.35,0.13 -0.67,0.33 -0.94,0.59 -0.26,0.27 -0.47,0.6 -0.62,1 -0.16,0.39 -0.23,0.86 -0.23,1.4 v 1.21 c 0,0.53 0.1,0.99 0.23,1.39 0.15,0.4 0.36,0.74 0.62,1 0.27,0.26 0.59,0.47 0.94,0.6 0.37,0.13 0.76,0.19 1.19,0.19 0.4,0 0.74,0 1.04,-0.1 0.29,-0.1 0.5,-0.1 0.65,-0.11 0.11,0 0.19,-0.1 0.23,-0.11 0.1,-0.1 0.1,-0.13 0.1,-0.23 v -0.86 c 0,-0.1 0,-0.11 -0.1,-0.15 -0.1,-0.1 -0.1,-0.1 -0.17,-0.1 h -0.1 c -0.13,0 -0.25,0.1 -0.36,0.1 h -0.36 -0.41 -0.55 c -0.16,0 -0.31,0 -0.47,-0.1 -0.14,-0.1 -0.28,-0.14 -0.39,-0.26 -0.12,-0.13 -0.21,-0.31 -0.29,-0.53 -0.1,-0.22 -0.12,-0.5 -0.12,-0.85 v -1.21 c 0,-0.34 0.1,-0.63 0.12,-0.84 0.1,-0.23 0.17,-0.4 0.29,-0.53 0.11,-0.12 0.25,-0.22 0.39,-0.27 0.16,-0.1 0.31,-0.1 0.47,-0.1 h 0.55 0.41 0.36 c 0.11,0 0.23,0 0.36,0.1 h 0.1 c 0.1,0 0.12,0 0.17,-0.1 0.1,-0.1 0.1,-0.1 0.1,-0.15 v -0.85 c 0,-0.11 0,-0.18 -0.1,-0.23 -0.1,-0.1 -0.12,-0.1 -0.23,-0.11 m -6.18,0 h -1.21 c -0.1,0 -0.12,0.1 -0.18,0.1 -0.1,0.1 -0.1,0.11 -0.1,0.18 v 6.85 c 0,0.1 0,0.14 0.1,0.19 0.1,0.1 0.11,0.1 0.18,0.1 h 1.21 c 0.1,0 0.13,0 0.18,-0.1 0.1,-0.1 0.1,-0.12 0.1,-0.19 v -6.85 c 0,-0.1 0,-0.12 -0.1,-0.18 -0.1,-0.1 -0.12,-0.1 -0.18,-0.1 m 0.1,-2.66 h -1.27 c -0.1,0 -0.13,0 -0.19,0.1 -0.1,0.1 -0.1,0.12 -0.1,0.18 v 1.16 c 0,0.1 0,0.13 0.1,0.18 0.1,0.1 0.13,0.1 0.19,0.1 H 239 c 0.1,0 0.13,0 0.19,-0.1 0.1,-0.1 0.1,-0.11 0.1,-0.18 v -1.16 c 0,-0.1 0,-0.12 -0.1,-0.18 -0.1,-0.1 -0.12,-0.1 -0.19,-0.1 m -3.15,8.8 h -0.7 -0.28 c -0.1,0 -0.11,-0.1 -0.15,-0.1 -0.1,-0.1 -0.1,-0.13 -0.1,-0.23 v -0.39 -4.11 h 1.18 c 0.1,0 0.13,0 0.18,-0.1 0.1,-0.1 0.1,-0.12 0.1,-0.19 v -0.77 c 0,-0.1 0,-0.13 -0.1,-0.19 -0.1,-0.1 -0.11,-0.1 -0.18,-0.1 h -1.18 v -1.35 c 0,-0.12 -0.1,-0.19 -0.21,-0.19 h -0.1 l -1.21,0.21 c -0.1,0 -0.13,0.1 -0.18,0.1 -0.1,0.1 -0.1,0.1 -0.1,0.17 v 1.07 h -1.23 c -0.1,0 -0.13,0.1 -0.19,0.1 -0.1,0.1 -0.1,0.12 -0.1,0.19 v 0.59 c 0,0.1 0,0.13 0.1,0.18 0.1,0.1 0.12,0.1 0.19,0.1 l 1.23,0.19 v 4.11 c 0,0.45 0.1,0.8 0.12,1.07 0.1,0.27 0.19,0.49 0.36,0.63 0.17,0.16 0.38,0.25 0.64,0.31 0.27,0.1 0.58,0.1 0.95,0.1 h 0.44 c 0.14,0 0.29,-0.1 0.45,-0.1 0.17,0 0.25,-0.11 0.25,-0.23 v -0.84 c 0,-0.12 -0.1,-0.19 -0.28,-0.19 m -6.87,-0.44 c -0.2,0.11 -0.42,0.2 -0.64,0.27 -0.24,0.1 -0.47,0.1 -0.71,0.1 -0.33,0 -0.57,-0.1 -0.72,-0.16 -0.16,-0.11 -0.23,-0.33 -0.23,-0.66 v -0.1 c 0,-0.19 0,-0.35 0.1,-0.49 0.1,-0.14 0.1,-0.25 0.22,-0.34 0.11,-0.1 0.26,-0.16 0.44,-0.22 0.2,-0.1 0.44,-0.1 0.74,-0.1 h 0.83 v 1.61 z m -1.16,-5.84 c -0.45,0 -0.86,0 -1.24,0.1 -0.37,0.1 -0.69,0.1 -0.95,0.14 -0.16,0.1 -0.25,0.12 -0.25,0.28 v 0.82 c 0,0.1 0,0.16 0.1,0.19 0.1,0 0.1,0.1 0.17,0.1 h 0.1 c 0.22,0 0.51,-0.1 0.91,-0.1 0.4,0 0.8,-0.1 1.22,-0.1 0.39,0 0.69,0.1 0.87,0.21 0.19,0.14 0.29,0.43 0.29,0.86 v 0.58 h -0.84 c -0.56,0 -1.05,0.1 -1.45,0.15 -0.41,0.1 -0.74,0.24 -1,0.43 -0.26,0.19 -0.45,0.43 -0.56,0.7 -0.12,0.28 -0.17,0.61 -0.17,0.99 v 0.1 c 0,0.45 0.1,0.82 0.19,1.09 0.14,0.28 0.31,0.51 0.53,0.67 0.21,0.16 0.46,0.28 0.72,0.34 0.27,0.1 0.55,0.1 0.82,0.1 0.31,0 0.62,-0.1 0.92,-0.15 0.31,-0.1 0.61,-0.24 0.93,-0.43 v 0.21 c 0,0.1 0,0.14 0.1,0.19 0.1,0.1 0.11,0.1 0.19,0.1 h 1.11 c 0.1,0 0.12,0 0.18,-0.1 0.1,-0.1 0.1,-0.11 0.1,-0.19 v -4.71 c 0,-0.84 -0.26,-1.47 -0.74,-1.88 -0.49,-0.41 -1.21,-0.62 -2.14,-0.62 m -0.74,-0.74 h 1.13 c 0.1,0 0.14,0 0.18,-0.1 0.1,-0.1 0.1,-0.1 0.14,-0.14 l 1.54,-1.62 c 0.1,-0.1 0.1,-0.1 0.1,-0.1 0,-0.1 -0.1,-0.1 -0.15,-0.1 h -1.37 c -0.1,0 -0.15,0 -0.19,0.1 -0.1,0.1 -0.1,0.1 -0.16,0.14 l -1.25,1.6 c -0.1,0 -0.1,0.1 -0.1,0.12 0,0.1 0.1,0.1 0.12,0.1 m -2.9,0.76 c -0.27,0 -0.56,0.1 -0.89,0.12 -0.34,0.1 -0.67,0.25 -0.99,0.51 v -0.28 c 0,-0.1 0,-0.13 -0.1,-0.19 -0.1,-0.1 -0.11,-0.1 -0.18,-0.1 h -1.15 c -0.1,0 -0.12,0.1 -0.18,0.1 -0.1,0.1 -0.1,0.12 -0.1,0.19 v 6.84 c 0,0.1 0,0.14 0.1,0.2 0.1,0.1 0.11,0.1 0.18,0.1 h 1.21 c 0.1,0 0.13,0 0.18,-0.1 0.1,-0.1 0.1,-0.12 0.1,-0.2 v -5.26 c 0.27,-0.15 0.55,-0.26 0.84,-0.35 0.28,-0.1 0.6,-0.11 0.96,-0.11 0.1,0 0.13,-0.1 0.18,-0.1 0.1,-0.1 0.1,-0.11 0.1,-0.18 v -0.94 c 0,-0.1 0,-0.14 -0.1,-0.19 -0.1,-0.1 -0.11,-0.1 -0.18,-0.1 m -5.06,0.16 c -0.15,-0.1 -0.37,-0.1 -0.66,-0.12 -0.28,-0.1 -0.63,-0.1 -1.03,-0.1 -0.42,0 -0.83,0.1 -1.19,0.19 -0.36,0.14 -0.67,0.34 -0.94,0.59 -0.26,0.28 -0.47,0.61 -0.63,1 -0.15,0.39 -0.22,0.86 -0.22,1.4 v 1.22 c 0,0.52 0.1,0.99 0.22,1.38 0.16,0.41 0.37,0.74 0.63,1 0.27,0.27 0.58,0.47 0.94,0.6 0.36,0.13 0.77,0.2 1.19,0.2 0.4,0 0.75,0 1.03,-0.1 0.29,-0.1 0.51,-0.1 0.66,-0.11 0.11,0 0.19,-0.1 0.22,-0.11 0.1,-0.1 0.1,-0.13 0.1,-0.23 v -0.85 c 0,-0.1 0,-0.12 -0.1,-0.15 -0.1,-0.1 -0.1,-0.1 -0.17,-0.1 h -0.1 c -0.13,0 -0.25,0.1 -0.37,0.1 h -0.35 -0.41 -0.56 c -0.15,0 -0.3,0 -0.46,-0.1 -0.14,-0.1 -0.28,-0.15 -0.4,-0.27 -0.11,-0.12 -0.21,-0.3 -0.28,-0.53 -0.1,-0.22 -0.11,-0.5 -0.11,-0.84 v -1.21 c 0,-0.35 0.1,-0.63 0.11,-0.85 0.1,-0.23 0.17,-0.4 0.28,-0.53 0.12,-0.12 0.26,-0.22 0.4,-0.26 0.16,-0.1 0.31,-0.1 0.46,-0.1 h 0.56 0.41 0.35 c 0.12,0 0.24,0 0.37,0.1 h 0.1 c 0.1,0 0.13,0 0.17,-0.1 0.1,-0.1 0.1,-0.1 0.1,-0.14 v -0.86 c 0,-0.1 0,-0.18 -0.1,-0.23 -0.1,-0.1 -0.11,-0.1 -0.22,-0.11 m -7.64,4.25 c 0,0.55 -0.11,0.98 -0.35,1.3 -0.23,0.31 -0.59,0.48 -1.05,0.48 -0.46,0 -0.81,-0.17 -1.04,-0.48 -0.24,-0.32 -0.35,-0.75 -0.35,-1.3 v -1.06 c 0,-0.54 0.11,-0.97 0.35,-1.28 0.23,-0.33 0.58,-0.49 1.04,-0.49 0.46,0 0.82,0.16 1.05,0.49 0.24,0.31 0.35,0.74 0.35,1.28 z m 0.94,-3.39 c -0.27,-0.29 -0.59,-0.52 -0.98,-0.68 -0.39,-0.17 -0.84,-0.25 -1.36,-0.25 -0.51,0 -0.96,0.1 -1.35,0.25 -0.39,0.16 -0.71,0.39 -0.98,0.68 -0.25,0.29 -0.46,0.63 -0.59,1.03 -0.13,0.39 -0.21,0.83 -0.21,1.3 v 1.06 c 0,0.47 0.1,0.91 0.21,1.31 0.13,0.39 0.34,0.73 0.59,1.02 0.27,0.29 0.59,0.52 0.98,0.68 0.39,0.17 0.84,0.25 1.35,0.25 0.52,0 0.97,-0.1 1.36,-0.25 0.39,-0.16 0.71,-0.39 0.98,-0.68 0.25,-0.29 0.46,-0.63 0.59,-1.02 0.13,-0.4 0.2,-0.84 0.2,-1.31 v -1.06 c 0,-0.47 -0.1,-0.91 -0.2,-1.3 -0.13,-0.4 -0.34,-0.74 -0.59,-1.03 m -7.17,-0.13 c -0.16,-0.24 -0.37,-0.44 -0.65,-0.58 -0.3,-0.14 -0.66,-0.22 -1.11,-0.22 -0.45,0 -0.84,0.1 -1.17,0.15 -0.32,0.11 -0.65,0.26 -0.98,0.44 -0.15,-0.18 -0.35,-0.33 -0.6,-0.44 -0.25,-0.1 -0.56,-0.15 -0.93,-0.15 -0.4,0 -0.73,0.1 -1.03,0.19 -0.29,0.12 -0.56,0.27 -0.85,0.45 v -0.28 c 0,-0.1 0,-0.14 -0.1,-0.19 -0.1,-0.1 -0.12,-0.1 -0.19,-0.1 h -1.13 c -0.1,0 -0.14,0.1 -0.19,0.1 -0.1,0.1 -0.1,0.11 -0.1,0.18 v 6.85 c 0,0.1 0,0.14 0.1,0.19 0.1,0.1 0.11,0.1 0.19,0.1 h 1.2 c 0.1,0 0.13,0 0.18,-0.1 0.1,-0.1 0.1,-0.12 0.1,-0.19 v -5.27 c 0.53,-0.3 0.93,-0.44 1.2,-0.44 0.19,0 0.34,0 0.46,0.1 0.12,0.1 0.2,0.1 0.27,0.2 0.1,0.1 0.11,0.22 0.14,0.39 0,0.16 0.1,0.36 0.1,0.61 v 4.45 c 0,0.1 0,0.14 0.1,0.19 0.1,0.1 0.12,0.1 0.19,0.1 h 1.2 c 0.1,0 0.12,0 0.18,-0.1 0.1,-0.1 0.1,-0.12 0.1,-0.19 v -4.45 -0.47 c 0,-0.16 0,-0.32 -0.1,-0.47 0.24,-0.12 0.47,-0.2 0.7,-0.25 0.23,-0.1 0.4,-0.1 0.52,-0.1 0.19,0 0.34,0 0.46,0.1 0.12,0.1 0.22,0.11 0.29,0.2 0.1,0.1 0.12,0.23 0.14,0.39 0.1,0.16 0.1,0.37 0.1,0.62 v 4.44 c 0,0.1 0.1,0.14 0.1,0.2 0.1,0.1 0.11,0.1 0.19,0.1 h 1.2 c 0.1,0 0.13,0 0.18,-0.1 0.1,-0.1 0.1,-0.12 0.1,-0.2 v -4.44 c 0,-0.39 -0.1,-0.75 -0.11,-1.08 -0.1,-0.33 -0.16,-0.62 -0.31,-0.87 m -12.07,2.35 h -2.8 v -0.1 c 0,-0.53 0.14,-0.93 0.4,-1.2 0.27,-0.28 0.6,-0.42 1.02,-0.42 0.4,0 0.73,0.15 0.99,0.43 0.26,0.27 0.39,0.67 0.39,1.19 z m 0.93,-2.23 c -0.27,-0.29 -0.59,-0.52 -0.97,-0.68 -0.39,-0.16 -0.84,-0.24 -1.34,-0.24 -0.5,0 -0.95,0.1 -1.34,0.23 -0.39,0.16 -0.72,0.38 -0.99,0.67 -0.26,0.28 -0.46,0.63 -0.61,1.05 -0.14,0.4 -0.21,0.86 -0.21,1.37 v 0.96 c 0,0.65 0.11,1.19 0.31,1.61 0.21,0.42 0.47,0.76 0.78,1.01 0.31,0.25 0.65,0.43 1.02,0.52 0.37,0.1 0.72,0.15 1.05,0.15 h 0.78 c 0.23,0 0.43,0 0.62,-0.1 0.18,0 0.38,-0.1 0.55,-0.1 0.19,0 0.38,-0.1 0.59,-0.1 0.12,0 0.2,-0.1 0.23,-0.11 0.1,-0.1 0.1,-0.13 0.1,-0.23 v -0.87 c 0,-0.1 0,-0.12 -0.1,-0.15 -0.1,-0.1 -0.1,-0.1 -0.17,-0.1 h -0.1 c -0.27,0 -0.63,0.1 -1.06,0.1 -0.42,0 -0.87,0.1 -1.35,0.1 -0.31,0 -0.57,-0.1 -0.78,-0.16 -0.21,-0.1 -0.37,-0.23 -0.48,-0.39 -0.12,-0.17 -0.2,-0.34 -0.25,-0.54 -0.1,-0.19 -0.1,-0.39 -0.1,-0.58 v -0.1 h 4.28 c 0.17,0 0.26,-0.11 0.26,-0.33 v -0.73 c 0,-0.5 -0.1,-0.94 -0.2,-1.35 -0.14,-0.4 -0.34,-0.75 -0.6,-1.05 m -8.44,2.68 c 0,0.49 -0.1,0.9 -0.17,1.21 -0.12,0.32 -0.28,0.57 -0.48,0.76 -0.21,0.19 -0.46,0.33 -0.74,0.39 -0.28,0.1 -0.59,0.12 -0.91,0.12 h -0.63 c -0.18,0 -0.33,0 -0.47,-0.1 v -6.81 h 0.47 0.63 c 0.32,0 0.63,0.1 0.91,0.11 0.28,0.1 0.53,0.21 0.74,0.39 0.2,0.19 0.36,0.44 0.48,0.77 0.12,0.31 0.17,0.72 0.17,1.21 v 1.93 z m -2.3,-5.94 h -0.74 c -0.25,0 -0.5,0 -0.74,0.1 -0.25,0 -0.47,0.1 -0.66,0.1 -0.19,0 -0.34,0.1 -0.45,0.1 -0.1,0 -0.19,0.1 -0.24,0.12 -0.1,0.1 -0.1,0.16 -0.1,0.29 v 8.81 c 0,0.13 0.1,0.23 0.1,0.29 0.1,0.1 0.15,0.1 0.24,0.11 0.11,0 0.26,0.1 0.45,0.1 0.19,0 0.41,0.1 0.66,0.1 0.24,0 0.49,0.1 0.74,0.1 h 0.74 c 1.32,0 2.34,-0.34 3.06,-1.03 0.7,-0.68 1.06,-1.68 1.06,-2.98 v -1.92 c 0,-1.31 -0.36,-2.29 -1.06,-2.98 -0.72,-0.68 -1.74,-1.03 -3.06,-1.03 m -8.82,-0.17 h -1.22 c -0.1,0 -0.13,0 -0.18,0.1 -0.1,0.1 -0.1,0.12 -0.1,0.19 v 9.42 c 0,0.1 0,0.14 0.1,0.2 0.1,0.1 0.12,0.1 0.18,0.1 h 1.22 c 0.1,0 0.13,0 0.18,-0.1 0.1,-0.1 0.1,-0.12 0.1,-0.2 v -9.42 c 0,-0.1 0,-0.13 -0.1,-0.19 -0.1,-0.1 -0.11,-0.1 -0.18,-0.1 m -4.59,8.33 c -0.19,0.11 -0.4,0.19 -0.64,0.27 -0.23,0.1 -0.46,0.1 -0.7,0.1 -0.34,0 -0.57,-0.1 -0.73,-0.16 -0.14,-0.12 -0.21,-0.33 -0.21,-0.65 v -0.1 c 0,-0.18 0,-0.35 0.1,-0.49 0.1,-0.14 0.11,-0.25 0.23,-0.34 0.11,-0.1 0.25,-0.17 0.45,-0.21 0.19,-0.1 0.43,-0.1 0.73,-0.1 h 0.82 v 1.62 z m -1.15,-5.83 c -0.45,0 -0.87,0 -1.23,0.1 -0.37,0.1 -0.69,0.1 -0.96,0.14 -0.16,0.1 -0.24,0.12 -0.24,0.27 v 0.84 c 0,0.1 0,0.16 0.1,0.18 0.1,0 0.11,0.1 0.18,0.1 h 0.1 c 0.22,0 0.53,-0.1 0.91,-0.1 0.4,0 0.8,-0.1 1.22,-0.1 0.4,0 0.68,0.1 0.87,0.21 0.19,0.14 0.28,0.42 0.28,0.87 v 0.57 h -0.81 c -0.58,0 -1.07,0.1 -1.46,0.15 -0.42,0.1 -0.75,0.24 -1,0.43 -0.26,0.19 -0.45,0.43 -0.57,0.71 -0.11,0.27 -0.17,0.6 -0.17,0.98 v 0.1 c 0,0.45 0.1,0.81 0.2,1.09 0.14,0.28 0.31,0.5 0.52,0.67 0.21,0.16 0.45,0.27 0.73,0.34 0.27,0.1 0.54,0.1 0.81,0.1 0.32,0 0.63,-0.1 0.94,-0.15 0.29,-0.1 0.61,-0.24 0.9,-0.43 v 0.21 c 0,0.1 0.1,0.13 0.1,0.19 0.1,0.1 0.11,0.1 0.18,0.1 h 1.11 c 0.1,0 0.13,0 0.19,-0.1 0.1,-0.1 0.1,-0.11 0.1,-0.19 v -4.71 c 0,-0.85 -0.25,-1.48 -0.75,-1.88 -0.49,-0.41 -1.2,-0.62 -2.14,-0.62 m -4.39,-2.57 h -1.27 c -0.1,0 -0.14,0 -0.19,0.1 -0.1,0.1 -0.1,0.12 -0.1,0.19 v 1.15 c 0,0.1 0,0.13 0.1,0.18 0.1,0.1 0.11,0.1 0.19,0.1 h 1.27 c 0.1,0 0.13,0 0.18,-0.1 0.1,-0.1 0.1,-0.11 0.1,-0.18 v -1.15 c 0,-0.1 0,-0.13 -0.1,-0.19 -0.1,-0.1 -0.12,-0.1 -0.18,-0.1 m -0.1,2.65 h -1.21 c -0.1,0 -0.12,0.1 -0.18,0.1 -0.1,0.1 -0.1,0.11 -0.1,0.19 v 6.84 c 0,0.1 0,0.14 0.1,0.19 0.1,0.1 0.11,0.1 0.18,0.1 h 1.21 c 0.1,0 0.13,0 0.18,-0.1 0.1,-0.1 0.1,-0.11 0.1,-0.19 v -6.84 c 0,-0.1 0,-0.13 -0.1,-0.19 -0.1,-0.1 -0.11,-0.1 -0.18,-0.1 m -2.96,0.1 c -0.14,-0.1 -0.37,-0.1 -0.65,-0.12 -0.28,-0.1 -0.63,-0.1 -1.03,-0.1 -0.43,0 -0.83,0.1 -1.19,0.19 -0.36,0.14 -0.68,0.34 -0.94,0.59 -0.27,0.28 -0.48,0.61 -0.62,1 -0.17,0.39 -0.24,0.86 -0.24,1.4 v 1.22 c 0,0.52 0.1,0.99 0.24,1.38 0.14,0.41 0.35,0.74 0.62,1 0.26,0.27 0.58,0.47 0.94,0.6 0.36,0.13 0.76,0.2 1.19,0.2 0.4,0 0.75,0 1.03,-0.1 0.28,-0.1 0.51,-0.1 0.65,-0.11 0.12,0 0.19,-0.1 0.24,-0.11 0.1,-0.1 0.1,-0.13 0.1,-0.23 v -0.85 c 0,-0.1 0,-0.12 -0.1,-0.15 -0.1,-0.1 -0.1,-0.1 -0.17,-0.1 h -0.1 c -0.13,0 -0.25,0.1 -0.36,0.1 h -0.36 -0.42 -0.54 c -0.16,0 -0.31,0 -0.46,-0.1 -0.15,-0.1 -0.28,-0.15 -0.4,-0.27 -0.12,-0.12 -0.21,-0.3 -0.29,-0.53 -0.1,-0.22 -0.11,-0.5 -0.11,-0.84 v -1.21 c 0,-0.35 0.1,-0.63 0.11,-0.85 0.1,-0.23 0.17,-0.4 0.29,-0.53 0.12,-0.12 0.25,-0.22 0.4,-0.26 0.15,-0.1 0.3,-0.1 0.46,-0.1 h 0.54 0.42 0.36 c 0.11,0 0.23,0 0.36,0.1 h 0.1 c 0.1,0 0.13,0 0.17,-0.1 0.1,-0.1 0.1,-0.1 0.1,-0.14 v -0.86 c 0,-0.1 0,-0.18 -0.1,-0.23 -0.1,-0.1 -0.12,-0.1 -0.24,-0.11 m -7.44,4.25 c 0,0.55 -0.12,0.98 -0.35,1.3 -0.24,0.31 -0.59,0.48 -1.05,0.48 -0.46,0 -0.81,-0.17 -1.05,-0.48 -0.23,-0.32 -0.35,-0.75 -0.35,-1.3 v -1.06 c 0,-0.54 0.12,-0.97 0.35,-1.29 0.24,-0.32 0.59,-0.48 1.05,-0.48 0.46,0 0.81,0.16 1.05,0.48 0.23,0.32 0.35,0.75 0.35,1.29 z m 0.94,-3.39 c -0.27,-0.29 -0.59,-0.52 -0.99,-0.68 -0.38,-0.17 -0.83,-0.25 -1.35,-0.25 -0.52,0 -0.97,0.1 -1.36,0.25 -0.38,0.16 -0.71,0.39 -0.97,0.68 -0.26,0.29 -0.46,0.63 -0.6,1.02 -0.13,0.4 -0.2,0.84 -0.2,1.31 v 1.06 c 0,0.47 0.1,0.91 0.2,1.31 0.14,0.39 0.34,0.73 0.6,1.02 0.26,0.29 0.59,0.52 0.97,0.68 0.39,0.17 0.84,0.25 1.36,0.25 0.52,0 0.97,-0.1 1.35,-0.25 0.4,-0.16 0.72,-0.39 0.99,-0.68 0.25,-0.29 0.45,-0.63 0.59,-1.02 0.13,-0.4 0.2,-0.84 0.2,-1.31 v -1.06 c 0,-0.47 -0.1,-0.91 -0.2,-1.31 -0.14,-0.39 -0.34,-0.73 -0.59,-1.02 m -6.62,2.49 c -0.13,-0.22 -0.32,-0.43 -0.55,-0.64 -0.24,-0.2 -0.54,-0.4 -0.89,-0.61 l -1.57,-0.88 c -0.22,-0.11 -0.39,-0.21 -0.53,-0.31 -0.13,-0.1 -0.25,-0.2 -0.33,-0.28 -0.1,-0.1 -0.14,-0.18 -0.17,-0.27 -0.1,-0.1 -0.1,-0.19 -0.1,-0.3 0,-0.29 0.1,-0.52 0.31,-0.69 0.22,-0.16 0.56,-0.24 1.06,-0.24 0.42,0 0.85,0 1.28,0.1 0.43,0 0.86,0.1 1.3,0.11 h 0.1 c 0.1,0 0.12,0 0.16,-0.1 0.1,-0.1 0.1,-0.1 0.1,-0.17 v -0.96 c 0,-0.1 0,-0.13 -0.1,-0.17 -0.1,-0.1 -0.11,-0.1 -0.17,-0.1 -0.12,0 -0.28,-0.1 -0.46,-0.1 -0.19,-0.1 -0.41,-0.1 -0.64,-0.1 -0.24,0 -0.49,-0.1 -0.73,-0.1 h -0.69 c -0.61,0 -1.12,0.1 -1.54,0.18 -0.42,0.12 -0.76,0.3 -1.01,0.52 -0.25,0.22 -0.45,0.49 -0.55,0.79 -0.11,0.31 -0.18,0.65 -0.18,1 0,0.23 0,0.45 0.1,0.66 0.1,0.22 0.14,0.42 0.26,0.61 0.11,0.21 0.28,0.39 0.46,0.58 0.2,0.18 0.45,0.35 0.76,0.55 l 1.73,1.03 c 0.22,0.13 0.39,0.25 0.54,0.35 0.13,0.1 0.25,0.2 0.33,0.29 0.1,0.1 0.15,0.2 0.19,0.3 0.1,0.1 0.1,0.21 0.1,0.35 0,0.38 -0.1,0.67 -0.32,0.87 -0.21,0.2 -0.6,0.3 -1.19,0.3 h -0.5 c -0.2,0 -0.42,0 -0.64,-0.1 -0.23,0 -0.45,-0.1 -0.67,-0.1 -0.21,0 -0.38,-0.1 -0.51,-0.1 -0.1,0 -0.14,0 -0.19,0.1 -0.1,0.1 -0.1,0.11 -0.1,0.19 v 0.93 c 0,0.1 0,0.13 0.1,0.18 0.1,0.1 0.12,0.1 0.19,0.1 0.3,0.1 0.65,0.12 1.02,0.17 0.37,0.1 0.8,0.1 1.29,0.1 0.66,0 1.21,-0.1 1.64,-0.24 0.45,-0.16 0.8,-0.37 1.06,-0.63 0.27,-0.26 0.46,-0.54 0.58,-0.87 0.12,-0.33 0.17,-0.66 0.17,-0.99 0,-0.26 -0.1,-0.51 -0.1,-0.75 -0.1,-0.23 -0.15,-0.46 -0.29,-0.68 m -11.94,0.91 c 0,0.54 -0.12,0.97 -0.35,1.3 -0.25,0.31 -0.59,0.47 -1.06,0.47 -0.46,0 -0.8,-0.16 -1.04,-0.47 -0.24,-0.33 -0.36,-0.76 -0.36,-1.3 v -1.06 c 0,-0.54 0.12,-0.98 0.36,-1.29 0.24,-0.32 0.58,-0.48 1.04,-0.48 0.47,0 0.81,0.16 1.06,0.48 0.23,0.31 0.35,0.75 0.35,1.29 z m 0.93,-3.39 c -0.27,-0.29 -0.59,-0.52 -0.98,-0.68 -0.38,-0.17 -0.84,-0.25 -1.36,-0.25 -0.5,0 -0.96,0.1 -1.35,0.25 -0.39,0.16 -0.71,0.39 -0.98,0.68 -0.26,0.29 -0.46,0.62 -0.59,1.02 -0.14,0.4 -0.2,0.84 -0.2,1.31 v 1.06 c 0,0.47 0.1,0.91 0.2,1.3 0.13,0.4 0.33,0.74 0.59,1.03 0.27,0.29 0.59,0.51 0.98,0.68 0.39,0.16 0.85,0.24 1.35,0.24 0.52,0 0.98,-0.1 1.36,-0.24 0.39,-0.17 0.71,-0.39 0.98,-0.68 0.26,-0.29 0.46,-0.63 0.59,-1.03 0.14,-0.39 0.21,-0.83 0.21,-1.3 v -1.06 c 0,-0.47 -0.1,-0.91 -0.21,-1.31 -0.13,-0.4 -0.33,-0.73 -0.59,-1.02 m -8.35,5.13 c -0.12,0.1 -0.3,0.1 -0.54,0.1 -0.24,0 -0.47,0.1 -0.71,0.1 -0.29,0 -0.51,-0.1 -0.7,-0.14 -0.18,-0.1 -0.33,-0.23 -0.44,-0.39 -0.1,-0.17 -0.17,-0.37 -0.21,-0.59 -0.1,-0.23 -0.1,-0.47 -0.1,-0.74 v -1.01 c 0,-0.27 0,-0.52 0.1,-0.74 0.1,-0.22 0.12,-0.42 0.21,-0.58 0.11,-0.17 0.26,-0.3 0.44,-0.4 0.19,-0.1 0.41,-0.14 0.7,-0.14 h 0.6 c 0.26,0 0.47,0.1 0.65,0.1 v 4.54 z m 1.47,-8.55 h -1.21 c -0.1,0 -0.13,0 -0.18,0.1 -0.1,0.1 -0.1,0.11 -0.1,0.18 v 2.32 c -0.24,-0.1 -0.47,-0.1 -0.69,-0.1 h -0.56 c -1.06,0 -1.84,0.29 -2.37,0.88 -0.51,0.58 -0.76,1.39 -0.76,2.41 v 1.01 c 0,1.03 0.25,1.83 0.76,2.42 0.53,0.58 1.31,0.86 2.37,0.86 0.41,0 0.86,-0.1 1.32,-0.1 0.46,-0.1 0.9,-0.15 1.31,-0.26 0.15,-0.1 0.24,-0.1 0.28,-0.13 0.1,-0.1 0.1,-0.12 0.1,-0.22 v -9.12 c 0,-0.1 -0.1,-0.13 -0.1,-0.17 -0.1,-0.1 -0.11,-0.1 -0.18,-0.1 m -7.39,-0.1 h -1.27 c -0.1,0 -0.14,0 -0.2,0.1 -0.1,0.1 -0.1,0.12 -0.1,0.18 v 1.15 c 0,0.1 0,0.14 0.1,0.19 0.1,0.1 0.12,0.1 0.2,0.1 h 1.27 c 0.1,0 0.12,0 0.18,-0.1 0.1,-0.1 0.1,-0.11 0.1,-0.19 v -1.15 c 0,-0.1 -0.1,-0.13 -0.1,-0.18 -0.1,-0.1 -0.12,-0.1 -0.18,-0.1 m -0.1,2.66 h -1.2 c -0.1,0 -0.14,0.1 -0.18,0.1 -0.1,0.1 -0.1,0.11 -0.1,0.18 v 6.85 c 0,0.1 0,0.14 0.1,0.19 0.1,0.1 0.11,0.1 0.18,0.1 h 1.2 c 0.1,0 0.13,0 0.18,-0.1 0.1,-0.1 0.1,-0.12 0.1,-0.19 v -6.85 c 0,-0.1 0,-0.13 -0.1,-0.18 -0.1,-0.1 -0.11,-0.1 -0.18,-0.1 m -2.73,6.14 h -0.7 -0.28 c -0.1,0 -0.12,-0.1 -0.15,-0.1 0,-0.1 -0.1,-0.13 -0.1,-0.23 v -0.39 -4.11 h 1.19 c 0.1,0 0.12,0 0.18,-0.1 0.1,-0.1 0.1,-0.12 0.1,-0.2 v -0.76 c 0,-0.1 -0.1,-0.13 -0.1,-0.19 -0.1,-0.1 -0.12,-0.1 -0.18,-0.1 h -1.19 v -1.35 c 0,-0.13 -0.1,-0.19 -0.2,-0.19 h -0.1 l -1.2,0.21 c -0.1,0 -0.14,0.1 -0.2,0.1 -0.1,0.1 -0.1,0.1 -0.1,0.17 v 1.07 h -1.24 c -0.1,0 -0.12,0.1 -0.17,0.1 -0.1,0.1 -0.1,0.11 -0.1,0.19 v 0.59 c 0,0.1 0,0.12 0.1,0.17 0.1,0.1 0.11,0.1 0.17,0.1 l 1.24,0.19 v 4.11 c 0,0.44 0.1,0.79 0.11,1.07 0.1,0.27 0.2,0.49 0.37,0.63 0.16,0.15 0.37,0.25 0.64,0.3 0.26,0.1 0.58,0.1 0.95,0.1 h 0.44 c 0.14,0 0.28,-0.1 0.44,-0.1 0.17,0 0.26,-0.1 0.26,-0.23 v -0.83 c 0,-0.13 -0.1,-0.19 -0.28,-0.19 m -5.27,-6.28 c -0.26,0 -0.56,0.1 -0.89,0.12 -0.33,0.1 -0.66,0.26 -0.97,0.51 v -0.28 c 0,-0.1 0,-0.13 -0.1,-0.18 -0.1,-0.1 -0.11,-0.1 -0.2,-0.1 h -1.13 c -0.1,0 -0.14,0.1 -0.18,0.1 -0.1,0.1 -0.1,0.11 -0.1,0.18 v 6.85 c 0,0.1 0.1,0.14 0.1,0.19 0.1,0.1 0.11,0.1 0.18,0.1 h 1.21 c 0.1,0 0.13,0 0.18,-0.1 0.1,-0.1 0.1,-0.12 0.1,-0.19 v -5.27 c 0.29,-0.14 0.57,-0.26 0.85,-0.35 0.29,-0.1 0.61,-0.11 0.96,-0.11 0.1,0 0.14,-0.1 0.19,-0.1 0.1,-0.1 0.1,-0.11 0.1,-0.18 V 288 c 0,-0.1 -0.1,-0.13 -0.1,-0.19 -0.1,-0.1 -0.12,-0.1 -0.19,-0.1 m -6.56,5.83 c -0.19,0.12 -0.4,0.2 -0.64,0.27 -0.23,0.1 -0.47,0.1 -0.7,0.1 -0.33,0 -0.57,-0.1 -0.73,-0.16 -0.15,-0.11 -0.22,-0.32 -0.22,-0.65 V 293 c 0,-0.18 0,-0.35 0.1,-0.48 0.1,-0.14 0.11,-0.26 0.22,-0.35 0.11,-0.1 0.25,-0.16 0.44,-0.21 0.2,-0.1 0.44,-0.1 0.74,-0.1 h 0.83 v 1.61 z m -1.15,-5.83 c -0.45,0 -0.87,0 -1.24,0.1 -0.37,0.1 -0.69,0.1 -0.95,0.14 -0.16,0.1 -0.25,0.11 -0.25,0.27 v 0.83 c 0,0.1 0,0.16 0.1,0.18 0.1,0 0.1,0.1 0.17,0.1 h 0.1 c 0.22,0 0.53,-0.1 0.92,-0.1 0.39,0 0.8,-0.1 1.21,-0.1 0.4,0 0.69,0.1 0.88,0.21 0.18,0.14 0.28,0.43 0.28,0.87 v 0.57 h -0.83 c -0.56,0 -1.05,0.1 -1.46,0.15 -0.4,0.1 -0.74,0.24 -0.99,0.43 -0.26,0.19 -0.45,0.43 -0.57,0.71 -0.12,0.28 -0.18,0.61 -0.18,0.98 v 0.1 c 0,0.45 0.1,0.81 0.21,1.09 0.14,0.29 0.32,0.5 0.53,0.67 0.21,0.17 0.45,0.28 0.72,0.34 0.28,0.1 0.55,0.1 0.81,0.1 0.32,0 0.62,-0.1 0.93,-0.15 0.31,-0.1 0.61,-0.23 0.92,-0.43 v 0.22 c 0,0.1 0,0.12 0.1,0.18 0.1,0.1 0.11,0.1 0.18,0.1 h 1.11 c 0.1,0 0.14,0 0.19,-0.1 0.1,-0.1 0.1,-0.11 0.1,-0.18 v -4.72 c 0,-0.85 -0.24,-1.47 -0.73,-1.88 -0.5,-0.41 -1.21,-0.62 -2.15,-0.62 m -5.09,0.78 c 0,0.52 -0.16,0.91 -0.45,1.18 -0.31,0.26 -0.81,0.39 -1.51,0.39 h -0.25 -0.334 -0.351 -0.231 V 287 h 0.231 0.324 0.341 0.27 c 0.65,0 1.14,0.12 1.47,0.35 0.32,0.22 0.49,0.63 0.49,1.17 v 0.12 z m 0.68,-2.5 c -0.35,-0.23 -0.74,-0.4 -1.2,-0.5 -0.45,-0.1 -0.93,-0.14 -1.44,-0.14 -0.479,0 -0.948,0 -1.391,0.1 -0.443,0 -0.84,0.1 -1.184,0.11 -0.126,0 -0.232,0.1 -0.305,0.12 -0.08,0.1 -0.112,0.15 -0.112,0.28 v 9.01 c 0,0.1 0,0.13 0.08,0.18 0.07,0.1 0.113,0.1 0.186,0.1 h 1.303 c 0.07,0 0.132,0 0.178,-0.1 0.07,-0.1 0.08,-0.11 0.08,-0.18 v -3.42 c 0.145,0 0.33,0 0.555,0.1 h 0.61 c 0.51,0 0.98,-0.1 1.44,-0.16 0.46,-0.1 0.85,-0.27 1.2,-0.51 0.34,-0.23 0.62,-0.54 0.82,-0.94 0.22,-0.4 0.31,-0.87 0.31,-1.46 v -0.12 c 0,-0.58 -0.1,-1.05 -0.3,-1.44 -0.21,-0.39 -0.48,-0.7 -0.83,-0.94" fill="#171717" id="path18"/>
    </g>
  </g>
</svg>