<?xml version="1.0" encoding="utf-8"?>
<svg viewBox="0 0 500 500" xmlns="http://www.w3.org/2000/svg">
  <g id="g392" transform="matrix(3.076147, 0, 0, -3.076147, 160.284225, 207.993774)" style="">
    <path d="m 0,0 c -0.003,-2.217 0.219,-4.409 0.858,-6.537 1.994,-6.641 6.034,-11.417 12.706,-13.716 5.468,-1.885 10.978,-1.728 16.439,-0.022 4.677,1.462 8.554,4.155 11.237,8.298 2.065,3.19 3.031,6.816 3.312,10.583 0.507,6.818 -1.618,12.69 -6.779,17.258 -5.206,4.608 -11.229,7.237 -18.324,6.738 C 16.576,22.4 13.755,21.977 11.246,20.259 4.101,15.365 0.01,8.83 0,0" style="fill:#f9e206;fill-opacity:1;fill-rule:nonzero;stroke:none" id="path394"/>
  </g>
  <g id="g396" transform="matrix(3.076147, 0, 0, -3.076147, 180.287064, 148.6008)" style="">
    <path d="m 0,0 c -3.26,-1.174 -6.027,-3.152 -8.538,-5.523 -0.05,0.038 -0.099,0.075 -0.148,0.111 0.527,0.782 1.003,1.604 1.589,2.34 2.493,3.13 5.805,5.114 9.461,6.57 1.426,0.569 2.92,0.963 4.361,1.495 0.858,0.317 1.679,0.733 2.504,1.13 0.539,0.259 1.056,0.564 1.692,0.717 -0.216,-0.507 -0.432,-1.014 -0.712,-1.673 0.412,0 0.705,-0.005 0.997,0.001 3.232,0.067 6.451,-0.062 9.609,-0.815 6.534,-1.559 12.052,-4.807 15.77,-10.466 2.939,-4.472 4.483,-9.491 4.09,-14.957 -0.306,-4.249 -1.916,-8.009 -4.215,-11.542 -3.147,-4.837 -7.804,-7.636 -12.995,-9.668 -12.011,-4.699 -25.423,2.071 -30.259,11.932 -2.082,4.244 -2.699,8.683 -2.24,13.335 0.287,2.916 0.858,5.758 2.003,8.467 1.378,3.263 3.501,5.94 6.351,8.042 C -0.452,-0.337 -0.227,-0.168 0,0 m -6.121,-19.164 c -0.002,-2.167 0.215,-4.311 0.839,-6.391 1.951,-6.494 5.901,-11.164 12.424,-13.412 5.347,-1.843 10.734,-1.689 16.074,-0.021 4.573,1.429 8.363,4.062 10.987,8.114 2.019,3.119 2.964,6.664 3.238,10.347 0.496,6.667 -1.582,12.408 -6.629,16.875 C 25.723,0.853 19.833,3.424 12.896,2.935 10.087,2.738 7.328,2.325 4.876,0.645 -2.11,-4.14 -6.111,-10.53 -6.121,-19.164" style="fill:#e41c28;fill-opacity:1;fill-rule:nonzero;stroke:none" id="path398"/>
  </g>
  <g id="g400" transform="matrix(3.076147, 0, 0, -3.076147, 346.329895, 218.831329)" style="">
    <path d="m 0,0 c -2.85,0.255 -5.705,0.46 -8.545,0.793 -0.894,0.104 -1.784,0.474 -2.601,0.874 -0.378,0.184 -0.729,0.7 -0.826,1.126 -0.192,0.84 0.188,1.188 1.059,1.22 C -5.561,4.204 -0.208,4.398 5.145,4.597 5.916,4.625 6.001,4.581 5.798,3.812 5.534,2.81 5.185,1.831 4.871,0.842 4.714,0.348 4.396,0.165 3.858,0.182 2.579,0.222 1.297,0.195 0.018,0.195 0.012,0.13 0.006,0.065 0,0" style="fill:#e41c28;fill-opacity:1;fill-rule:nonzero;stroke:none" id="path402"/>
  </g>
  <g id="g404" transform="matrix(3.076147, 0, 0, -3.076147, 157.410446, 253.86438)" style="">
    <path d="m 0,0 c -0.097,-0.125 -0.236,-0.456 -0.484,-0.605 -4.444,-2.665 -8.901,-5.308 -13.354,-7.957 -0.361,-0.214 -0.624,-0.233 -0.835,0.235 -0.377,0.842 -0.796,1.666 -1.236,2.477 -0.228,0.418 -0.096,0.642 0.262,0.866 4.324,2.713 8.799,5.108 13.727,6.554 C -0.933,1.86 -0.023,1.211 0,0" style="fill:#e41c28;fill-opacity:1;fill-rule:nonzero;stroke:none" id="path406"/>
  </g>
  <g id="g408" transform="matrix(3.076147, 0, 0, -3.076147, 91.309875, 219.009705)" style="">
    <path d="M 0,0 C -0.557,1.548 0.077,3.722 1.38,4.683 1.54,4.801 1.769,4.883 1.966,4.884 6.085,4.917 10.21,4.989 14.274,4.162 15.07,4 15.85,3.662 16.574,3.283 16.903,3.111 17.183,2.674 17.296,2.3 17.488,1.667 17.077,1.276 16.349,1.263 13.603,1.214 10.856,1.206 8.113,1.1 5.445,0.997 2.769,0.869 0.205,-0.009 0.144,-0.03 0.067,-0.004 0,0" style="fill:#e41c28;fill-opacity:1;fill-rule:nonzero;stroke:none" id="path410"/>
  </g>
  <g id="g412" transform="matrix(3.076147, 0, 0, -3.076147, 230.441879, 319.329102)" style="">
    <path d="m 0,0 c 0,-1.848 -0.007,-3.696 0.003,-5.544 0.004,-0.757 -0.549,-1.678 -1.233,-1.991 -0.777,-0.355 -1.753,0.416 -1.805,1.445 -0.054,1.065 -0.08,2.131 -0.124,3.196 -0.11,2.676 -0.221,5.351 -0.335,8.026 -0.069,1.641 0.488,3.037 1.732,4.099 0.337,0.288 1.021,0.601 1.279,0.449 C -0.093,9.451 0.169,8.849 0.288,8.358 0.392,7.924 0.209,7.426 0.18,6.954 0.037,4.638 -0.098,2.322 -0.235,0.006 -0.157,0.004 -0.079,0.002 0,0" style="fill:#e41c28;fill-opacity:1;fill-rule:nonzero;stroke:none" id="path414"/>
  </g>
  <g id="g416" transform="matrix(3.076147, 0, 0, -3.076147, 304.700928, 170.360138)" style="">
    <path d="m 0,0 c -0.352,0.116 -0.818,0.18 -1.179,0.408 -0.774,0.488 -0.758,1.515 -0.022,2.03 3.245,2.272 6.646,4.275 10.25,5.925 0.192,0.088 0.394,0.175 0.6,0.206 0.723,0.111 1.496,-0.231 1.71,-0.731 C 11.638,7.189 11.28,6.079 10.544,5.59 8.632,4.321 6.726,3.036 4.754,1.865 3.663,1.217 2.452,0.767 1.277,0.269 0.917,0.116 0.499,0.1 0,0" style="fill:#e41c28;fill-opacity:1;fill-rule:nonzero;stroke:none" id="path418"/>
  </g>
  <g id="g420" transform="matrix(3.076147, 0, 0, -3.076147, 231.44957, 100.471306)" style="">
    <path d="m 0,0 c -0.044,-2.946 -0.368,-5.308 -1,-7.626 -0.243,-0.89 -0.44,-1.025 -1.205,-0.904 -0.734,0.116 -1.16,0.581 -1.138,1.301 0.036,1.255 0.16,2.509 0.136,3.762 -0.064,3.382 -0.186,6.763 -0.285,10.145 -0.012,0.401 -0.087,0.814 -0.016,1.2 0.106,0.581 0.495,0.976 1.1,1.051 0.596,0.074 0.787,-0.433 0.897,-0.84 C -1.075,6.471 -0.632,4.848 -0.324,3.202 -0.094,1.975 -0.067,0.71 0,0" style="fill:#e41c28;fill-opacity:1;fill-rule:nonzero;stroke:none" id="path422"/>
  </g>
  <g id="g424" transform="matrix(3.076147, 0, 0, -3.076147, 190.895309, 284.484283)" style="">
    <path d="m 0,0 c -0.298,-0.788 -0.554,-1.594 -0.901,-2.359 -1.343,-2.965 -3.202,-5.569 -5.558,-7.818 -0.766,-0.731 -1.298,-0.857 -1.863,-0.426 -0.544,0.416 -0.748,1.447 -0.364,2.149 0.339,0.621 0.771,1.192 1.125,1.806 1.479,2.559 2.948,5.124 4.409,7.693 0.524,0.921 1.053,1.241 1.848,1.055 0.68,-0.158 1.047,-0.707 1.136,-1.693 0.011,-0.118 0.02,-0.237 0.03,-0.355 C -0.092,0.035 -0.046,0.017 0,0" style="fill:#e41c28;fill-opacity:1;fill-rule:nonzero;stroke:none" id="path426"/>
  </g>
  <g id="g428" transform="matrix(3.076147, 0, 0, -3.076147, 295.346436, 93.18705)" style="">
    <path d="m 0,0 c 0.516,-1.223 0.569,-2.353 -0.12,-3.445 -1.73,-2.744 -3.467,-5.484 -5.212,-8.219 -0.483,-0.759 -0.961,-1.527 -1.519,-2.23 -0.277,-0.351 -0.693,-0.664 -1.111,-0.817 -0.862,-0.316 -1.239,0.056 -0.991,0.945 0.196,0.705 0.463,1.392 0.735,2.073 1.716,4.299 3.99,8.222 7.613,11.228 C -0.428,-0.319 -0.241,-0.184 0,0" style="fill:#e41c28;fill-opacity:1;fill-rule:nonzero;stroke:none" id="path430"/>
  </g>
  <g id="g432" transform="matrix(3.076147, 0, 0, -3.076147, 290.31958, 318.155212)" style="">
    <path d="m 0,0 c 0.017,-0.895 -0.29,-1.136 -0.977,-0.996 -1.108,0.227 -1.877,0.976 -2.416,1.857 -1.307,2.135 -2.526,4.325 -3.723,6.524 -0.519,0.953 -0.915,1.975 -1.327,2.982 -0.159,0.387 -0.265,0.814 -0.296,1.231 -0.032,0.437 0.236,0.659 0.691,0.536 1.013,-0.273 1.896,-0.741 2.433,-1.699 C -3.868,7.318 -2.114,4.203 -0.383,1.076 -0.171,0.692 -0.083,0.24 0,0" style="fill:#e41c28;fill-opacity:1;fill-rule:nonzero;stroke:none" id="path434"/>
  </g>
  <g id="g436" transform="matrix(3.076147, 0, 0, -3.076147, 113.139954, 142.02951)" style="">
    <path d="m 0,0 c 1.865,-0.082 3.502,-0.857 5.023,-1.819 2.157,-1.364 4.243,-2.844 6.325,-4.323 0.294,-0.209 0.57,-0.711 0.53,-1.038 -0.031,-0.248 -0.551,-0.518 -0.901,-0.627 -0.863,-0.268 -1.662,-0.19 -2.484,0.35 -2.985,1.961 -6.02,3.848 -9.035,5.763 -0.1,0.064 -0.193,0.138 -0.29,0.206 -0.375,0.261 -0.712,0.63 -0.465,1.055 0.142,0.244 0.613,0.305 0.944,0.427 C -0.249,0.032 -0.118,0 0,0" style="fill:#e41c28;fill-opacity:1;fill-rule:nonzero;stroke:none" id="path438"/>
  </g>
  <g id="g440" transform="matrix(3.076147, 0, 0, -3.076147, 182.64653, 134.135422)" style="">
    <path d="m 0,0 c -1.403,-0.082 -2.234,0.555 -2.855,1.63 -1.409,2.436 -2.85,4.853 -4.289,7.273 -0.216,0.364 -0.489,0.695 -0.735,1.042 -0.537,0.757 -0.483,1.632 0.129,2.276 0.312,0.328 0.573,0.387 0.956,0.046 C -3.372,9.212 -1.039,5.519 -0.121,0.987 -0.061,0.691 -0.046,0.386 0,0" style="fill:#e41c28;fill-opacity:1;fill-rule:nonzero;stroke:none" id="path442"/>
  </g>
  <g id="g444" transform="matrix(3.076147, 0, 0, -3.076147, 302.580811, 252.010071)" style="">
    <path d="m 0,0 c 0.909,-0.187 1.941,-0.365 2.815,-1.162 2.146,-1.959 4.68,-3.276 7.451,-4.124 0.682,-0.209 1.109,-0.506 1.174,-1.281 0.097,-1.178 -0.716,-1.875 -1.834,-1.45 -3.361,1.278 -6.527,2.912 -9.219,5.339 -0.498,0.449 -0.935,1.009 -1.261,1.596 C -1.292,-0.331 -1.023,0.014 0,0" style="fill:#e41c28;fill-opacity:1;fill-rule:nonzero;stroke:none" id="path446"/>
  </g>
  <g id="g448" transform="matrix(3.076147, 0, 0, -3.076147, 233.256821, 213.082626)" style="">
    <path d="m 0,0 c -1.208,0 -2.418,0.045 -3.623,-0.017 -0.702,-0.037 -1.08,0.262 -1.433,0.808 -0.73,1.131 -0.756,2.322 -0.597,3.615 0.475,3.853 0.909,7.714 1.268,11.58 0.113,1.215 -0.014,2.462 -0.125,3.686 -0.057,0.636 0.15,1.024 0.695,1.228 0.37,0.139 0.777,0.237 1.17,0.245 0.952,0.019 1.173,-0.223 1.097,-1.167 C -1.96,14.877 -2.383,9.777 -2.801,4.676 -2.828,4.345 -2.846,4.014 -2.865,3.683 -2.932,2.53 -2.933,2.547 -1.745,2.623 0.383,2.759 2.514,2.859 4.641,3.004 5.221,3.043 5.438,2.847 5.332,2.28 5.302,2.118 5.302,1.95 5.276,1.786 5.025,0.204 4.756,-0.024 3.198,0.011 2.653,0.024 2.108,0.041 1.563,0.047 1.042,0.053 0.521,0.048 0,0.048 0,0.032 0,0.016 0,0" style="fill:#e41c28;fill-opacity:1;fill-rule:nonzero;stroke:none" id="path450"/>
  </g>
  <g id="g452" transform="matrix(3.076147, 0, 0, -3.076147, 228.417343, 231.355194)" style="">
    <path d="m 0,0 c -2.667,-0.031 -5.262,0.293 -7.574,1.759 -1.782,1.131 -2.906,2.762 -3.399,4.808 -0.054,0.222 0.165,0.511 0.257,0.769 0.217,-0.155 0.572,-0.268 0.632,-0.468 1.024,-3.441 3.48,-5.096 6.878,-5.638 2.654,-0.423 5.297,-0.387 7.909,0.23 2.948,0.696 4.946,2.58 6.268,5.244 0.137,0.276 0.212,0.598 0.401,0.827 0.15,0.183 0.433,0.256 0.656,0.377 0.084,-0.255 0.307,-0.567 0.23,-0.759 C 11.476,5.204 10.32,3.524 8.638,2.23 6.484,0.575 3.97,0.121 1.351,0.003 0.902,-0.017 0.45,0 0,0" style="fill:#e41c28;fill-opacity:1;fill-rule:nonzero;stroke:none" id="path454"/>
  </g>
  <g id="g456" transform="matrix(3.076147, 0, 0, -3.076147, 208.392532, 167.779877)" style="">
    <path d="m 0,0 c -0.316,-0.786 -0.523,-1.598 -0.947,-2.273 -0.492,-0.785 -1.38,-0.731 -1.96,-0.011 -0.901,1.119 -0.929,3.472 -0.053,4.618 0.631,0.825 1.562,0.863 2.094,-0.032 C -0.47,1.635 -0.303,0.833 0,0" style="fill:#e41c28;fill-opacity:1;fill-rule:nonzero;stroke:none" id="path458"/>
  </g>
  <g id="g460" transform="matrix(3.076147, 0, 0, -3.076147, 251.592453, 167.611328)" style="">
    <path d="M 0,0 C -0.297,-0.793 -0.498,-1.579 -0.875,-2.269 -1.314,-3.073 -2.214,-3.09 -2.835,-2.408 -3.834,-1.31 -3.856,1.246 -2.877,2.373 -2.212,3.138 -1.314,3.105 -0.838,2.212 -0.479,1.539 -0.286,0.776 0,0" style="fill:#e41c28;fill-opacity:1;fill-rule:nonzero;stroke:none" id="path462"/>
  </g>
  <g id="g464" transform="matrix(3.076147, 0, 0, -3.076147, 310.089783, 367.841461)" style="">
    <path d="m 0,0 c -0.175,-1.084 -0.356,-2.058 -0.483,-3.038 -0.07,-0.538 -0.304,-0.704 -0.848,-0.698 -2.369,0.03 -4.739,0.013 -7.109,0.013 -1.424,10e-4 -1.426,10e-4 -1.506,-1.389 -0.035,-0.603 -0.056,-1.207 -0.09,-1.972 0.728,0.191 1.32,0.394 1.929,0.495 1.2,0.198 2.408,0.451 3.618,0.48 1.695,0.039 3.066,-0.662 3.845,-2.401 0.37,0.802 0.664,1.5 1.006,2.173 1.385,2.724 3.467,4.716 6.363,5.732 4.713,1.654 9.259,-0.807 10.664,-5.704 1.632,-5.691 -1.713,-12.413 -7.237,-14.542 -3.826,-1.474 -7.733,-0.148 -9.879,3.353 -0.141,0.228 -0.293,0.451 -0.518,0.798 -0.143,-0.374 -0.25,-0.623 -0.335,-0.878 -0.618,-1.851 -1.831,-3.011 -3.802,-3.309 -2.207,-0.333 -4.413,-0.494 -6.584,0.187 -2.009,0.629 -3.252,1.998 -3.766,4.043 -0.152,0.604 -0.034,0.946 0.642,1.086 1.265,0.262 2.516,0.596 3.875,0.923 0.128,-0.648 0.264,-1.258 0.366,-1.874 0.069,-0.42 0.26,-0.603 0.707,-0.607 1.095,-0.008 2.19,-0.049 3.284,-0.1 0.535,-0.025 0.72,0.165 0.664,0.719 -0.152,1.52 -0.279,3.044 -0.362,4.57 -0.032,0.59 -0.292,0.796 -0.833,0.846 -0.989,0.091 -1.974,0.221 -2.961,0.328 -0.846,0.092 -0.854,0.083 -1.147,-0.725 -0.926,0.107 -1.858,0.222 -2.792,0.321 -0.542,0.058 -0.545,0.412 -0.515,0.828 0.109,1.499 0.205,2.998 0.302,4.498 0.101,1.575 0.222,3.15 0.287,4.727 0.028,0.688 0.246,0.981 0.991,0.987 3.847,0.031 7.694,0.112 11.541,0.172 C -0.486,0.045 -0.289,0.018 0,0 m 5.851,-10.14 c 0,-1.119 0.014,-2.237 -0.006,-3.354 -0.009,-0.493 0.191,-0.684 0.676,-0.679 1.168,0.016 2.338,0.019 3.506,-0.002 0.526,-0.009 0.727,0.204 0.724,0.722 -0.013,2.211 -0.013,4.422 -0.003,6.632 0.002,0.485 -0.193,0.685 -0.683,0.677 -1.168,-0.018 -2.337,-0.02 -3.506,0 C 6.036,-6.135 5.833,-6.335 5.845,-6.863 5.87,-7.954 5.853,-9.048 5.851,-10.14" style="fill:#e41c28;fill-opacity:1;fill-rule:nonzero;stroke:none" id="path466"/>
  </g>
  <g id="g468" transform="matrix(3.076147, 0, 0, -3.076147, 199.275833, 376.166718)" style="">
    <path d="m 0,0 c 3.029,-0.033 5.11,-1.454 5.673,-4.128 1.2,-5.693 -2.411,-10.842 -7.72,-11.132 -1.081,-0.059 -2.208,-0.086 -3.253,0.145 -2.76,0.612 -4.392,2.714 -4.78,5.65 -0.609,4.614 1.699,7.045 5.7,8.511 0.903,0.331 1.851,0.55 2.79,0.767 C -1.073,-0.068 -0.531,-0.059 0,0 m -4.469,-7.395 c 0,-0.867 0.013,-1.733 -0.005,-2.599 -0.011,-0.473 0.147,-0.707 0.657,-0.697 0.993,0.021 1.987,0.021 2.981,-10e-4 0.518,-0.011 0.66,0.248 0.657,0.706 -0.007,1.732 -0.01,3.464 0,5.197 0.003,0.472 -0.162,0.704 -0.668,0.695 -0.993,-0.02 -1.987,-0.021 -2.98,0 -0.516,0.011 -0.659,-0.233 -0.648,-0.702 0.02,-0.866 0.006,-1.733 0.006,-2.599" style="fill:#e41c28;fill-opacity:1;fill-rule:nonzero;stroke:none" id="path470"/>
  </g>
  <g id="g472" transform="matrix(3.076147, 0, 0, -3.076147, 127.889313, 406.72702)" style="">
    <path d="M 0,0 C 1.344,0 2.556,0.02 3.765,-0.024 3.926,-0.029 4.187,-0.338 4.213,-0.532 4.432,-2.156 4.419,-2.164 6.051,-2.125 8.073,-2.077 7.703,-2.3 7.777,-0.407 7.803,0.256 7.612,0.673 7.023,1.014 5.682,1.791 4.42,2.712 3.054,3.438 0.229,4.94 0.097,8.5 1.017,10.368 c 0.336,0.679 1.113,1.311 1.834,1.597 1.962,0.778 3.99,0.7 5.943,-0.148 1.708,-0.742 2.62,-2.485 2.266,-4.304 C 11.024,7.326 10.722,7.06 10.536,7.053 9.646,7.024 8.752,7.045 7.865,7.115 7.673,7.13 7.496,7.414 7.327,7.59 7.284,7.634 7.302,7.737 7.286,7.811 6.956,9.27 6.59,9.505 5.103,9.191 4.968,9.162 4.747,9.066 4.738,8.982 4.663,8.302 4.535,7.605 4.625,6.941 4.665,6.649 5.146,6.373 5.478,6.175 6.657,5.472 7.816,4.713 9.06,4.147 11.357,3.101 12.059,1.182 12.155,-1.103 12.297,-4.51 10.516,-5.947 7.111,-6.497 6.246,-6.636 5.319,-6.599 4.449,-6.461 2.183,-6.103 0.705,-4.524 0.301,-2.167 0.191,-1.526 0.121,-0.879 0,0" style="fill:#e41c28;fill-opacity:1;fill-rule:nonzero;stroke:none" id="path474"/>
  </g>
  <g id="g476" transform="matrix(3.076147, 0, 0, -3.076147, 90.501465, 410.14743)" style="">
    <path d="m 0,0 c 0,4.148 0.007,8.297 -0.009,12.445 -0.002,0.573 0.133,0.877 0.766,0.974 2.271,0.347 4.536,0.664 6.816,0.088 2.215,-0.56 3.508,-2.164 3.595,-4.443 C 11.221,7.681 11.157,6.315 10.652,5.005 9.86,2.956 8.21,2.032 6.181,1.634 5.61,1.522 5.02,1.469 4.438,1.461 3.867,1.453 3.687,1.199 3.692,0.662 3.702,-0.841 3.659,-2.344 3.683,-3.846 3.694,-4.46 3.522,-4.728 2.865,-4.684 c -0.76,0.05 -1.528,0.04 -2.291,0.001 -0.549,-0.027 -0.698,0.191 -0.687,0.709 0.029,1.324 0.01,2.649 0.01,3.974 z m 4.92,5.664 c 0.535,0 1.07,0.018 1.603,-0.005 C 6.979,5.64 7.171,5.827 7.165,6.283 7.15,7.225 7.152,8.166 7.163,9.107 7.169,9.572 6.947,9.734 6.505,9.721 5.869,9.702 5.233,9.713 4.597,9.715 2.745,9.722 2.745,9.723 2.748,7.869 2.75,5.665 2.75,5.665 4.92,5.664" style="fill:#e41c28;fill-opacity:1;fill-rule:nonzero;stroke:none" id="path478"/>
  </g>
  <g id="g480" transform="matrix(3.076147, 0, 0, -3.076147, 236.990585, 371.01297)" style="">
    <path d="m 0,0 c -0.204,-1.53 -0.396,-2.959 -0.584,-4.389 -0.338,-2.546 -0.661,-5.094 -1.02,-7.636 -0.092,-0.654 0.115,-0.86 0.765,-0.827 1.016,0.054 2.037,0.021 3.055,0.049 0.422,0.012 0.593,-0.148 0.605,-0.571 0.035,-1.196 0.092,-2.391 0.148,-3.587 0.015,-0.344 -0.032,-0.593 -0.475,-0.592 -2.62,0.009 -5.239,0.005 -7.958,0.005 0,0.542 -0.019,1.014 0.003,1.484 0.239,5.06 0.483,10.12 0.727,15.18 0.011,0.229 0.03,0.457 0.038,0.687 0.013,0.372 0.172,0.546 0.573,0.512 C -2.807,0.203 -1.489,0.112 0,0" style="fill:#e41c28;fill-opacity:1;fill-rule:nonzero;stroke:none" id="path482"/>
  </g>
</svg>