<?xml version="1.0" encoding="UTF-8"?>
<!DOCTYPE svg PUBLIC "-//W3C//DTD SVG 1.1//EN" "http://www.w3.org/Graphics/SVG/1.1/DTD/svg11.dtd">
<!-- Creator: CorelDRAW -->
<svg xmlns="http://www.w3.org/2000/svg" xml:space="preserve" width="210mm" height="204mm" style="shape-rendering:geometricPrecision; text-rendering:geometricPrecision; image-rendering:optimizeQuality; fill-rule:evenodd; clip-rule:evenodd"
viewBox="0 0 210 204">
 <defs>
  <style type="text/css">
   <![CDATA[
    .str0 {stroke:#DA251D;stroke-width:0.0762}
    .fil0 {fill:#DA251D;fill-rule:nonzero}
    .fil1 {fill:white;fill-rule:nonzero}
   ]]>
  </style>
 </defs>
 <g id="Camada_x0020_1">
  <metadata id="CorelCorpID_0Corel-Layer"/>
  <g id="_115959744">
   <path id="_116039640" class="fil0 str0" d="M104.215 2.5062l24.151 76.1605 76.7135 0.4897 -61.7874 47.5594 23.2605 76.4632 -62.3376 -46.7671 -62.3378 46.7671 23.2605 -76.4632 -61.7874 -47.5594 76.7136 -0.4897 24.1511 -76.1605zm12.0754 38.0802m50.4324 38.3252m7.4629 24.0245m-19.2634 62.0113m-19.5386 14.848m-62.3376 0m-19.5387 -14.848m-19.2634 -62.0113m7.463 -24.0245m50.4324 -38.3252"/>
   <path id="_115959144" class="fil1" d="M70.7161 140.727l0 -54.7274 14.7235 0c5.5781,0 9.2192,0.2803 10.9129,0.8282 2.6038,0.8155 4.7949,2.5994 6.552,5.3517 1.757,2.7523 2.6355,6.3074 2.6355,10.6525 0,3.3639 -0.5081,6.1926 -1.5242,8.4734 -1.0161,2.2936 -2.2968,4.0903 -3.8634,5.4028 -1.5559,1.2996 -3.1437,2.1661 -4.7526,2.5865 -2.191,0.5224 -5.3665,0.79 -9.5263,0.79l-5.9804 0 0 20.6423 -9.177 0zm9.177 -45.4639l0 15.5199 5.0172 0c3.62,0 6.0439,-0.2803 7.2612,-0.8537 1.2172,-0.5734 2.1698,-1.4654 2.8684,-2.6886 0.688,-1.2232 1.0373,-2.6376 1.0373,-4.2558 0,-1.9878 -0.4869,-3.6316 -1.4606,-4.9312 -0.9633,-1.287 -2.2017,-2.1025 -3.6836,-2.4211 -1.1008,-0.2548 -3.3024,-0.3695 -6.6049,-0.3695l-4.435 0zm43.4082 45.4639l0 -45.4639 -13.485 0 0 -9.2635 36.1259 0 0 9.2635 -13.4534 0 0 45.4639 -9.1875 0z"/>
  </g>
 </g>
</svg>
