<?xml version="1.0" encoding="utf-8"?>
<svg viewBox="0 0 500 500" xmlns="http://www.w3.org/2000/svg">
  <defs>
    <clipPath clipPathUnits="userSpaceOnUse" id="clipPath26">
      <path d="M 0,595.28 H 841.89 V 0 H 0 Z" id="path24"/>
    </clipPath>
  </defs>
  <g id="g18" transform="matrix(0.89359, 0, 0, -0.89359, -81.475327, 507.390198)" style="">
    <g id="g20">
      <g id="g22" clip-path="url(#clipPath26)">
        <g id="g28" transform="translate(595.6826,350.5905)">
          <path d="m 0,0 c 0,0 -12.63,-5.632 -18.604,8.601 0,0 9.376,8.43 18.604,-8.601" style="fill:#1aae48;fill-opacity:1;fill-rule:nonzero;stroke:none" id="path30"/>
        </g>
        <g id="g32" transform="translate(596.6973,302.9524)">
          <path d="m 0,0 c 0,0 -1.946,-13.691 -17.178,-11.182 0,0 -2.153,12.424 17.178,11.182" style="fill:#1aae48;fill-opacity:1;fill-rule:nonzero;stroke:none" id="path34"/>
        </g>
        <g id="g36" transform="translate(605.335,313.8864)">
          <path d="m 0,0 c 0,0 -8.271,-11.083 -20.436,-1.581 0,0 4.066,11.936 20.436,1.581" style="fill:#1aae48;fill-opacity:1;fill-rule:nonzero;stroke:none" id="path38"/>
        </g>
        <g id="g40" transform="translate(575.833,287.1189)">
          <path d="m 0,0 c 0,0 -4.269,-13.153 -18.843,-8.065 0,0 0.013,12.609 18.843,8.065" style="fill:#1aae48;fill-opacity:1;fill-rule:nonzero;stroke:none" id="path42"/>
        </g>
        <g id="g44" transform="translate(562.209,318.3908)">
          <path d="m 0,0 c 0,0 -3.823,-11.905 -17.016,-7.345 0,0 -0.023,11.402 17.016,7.345" style="fill:#1aae48;fill-opacity:1;fill-rule:nonzero;stroke:none" id="path46"/>
        </g>
        <g id="g48" transform="translate(559.4121,343.7927)">
          <path d="m 0,0 c 0,0 -8.281,-10.025 -19.266,-0.537 0,0 4.372,11.022 19.266,0.537" style="fill:#1aae48;fill-opacity:1;fill-rule:nonzero;stroke:none" id="path50"/>
        </g>
        <g id="g52" transform="translate(572.4473,358.2058)">
          <path d="m 0,0 c 0,0 -11.272,-7.186 -19.015,5.571 0,0 7.764,9.397 19.015,-5.571" style="fill:#1aae48;fill-opacity:1;fill-rule:nonzero;stroke:none" id="path54"/>
        </g>
        <g id="g56" transform="translate(546.9678,329.633)">
          <path d="M 0,0 C 0,0 8.104,12.616 21.983,3.263 21.983,3.263 18.493,-9.957 0,0" style="fill:#1aae48;fill-opacity:1;fill-rule:nonzero;stroke:none" id="path58"/>
        </g>
        <g id="g60" transform="translate(566.6074,322.072)">
          <path d="M 0,0 C 0,0 8.135,11.183 20.415,1.83 20.415,1.83 16.495,-10.155 0,0" style="fill:#1aae48;fill-opacity:1;fill-rule:nonzero;stroke:none" id="path62"/>
        </g>
        <g id="g64" transform="translate(601.623,351.3371)">
          <path d="m 0,0 c 0,0 7.777,4.781 12.921,-4.016 0,0 -5.406,-6.33 -12.921,4.016" style="fill:#1aae48;fill-opacity:1;fill-rule:nonzero;stroke:none" id="path66"/>
        </g>
        <g id="g68" transform="translate(608.0869,384.3474)">
          <path d="M 0,0 C 0,0 -13.718,1.749 -11.429,17.014 -11.429,17.014 0.964,19.346 0,0" style="fill:#1aae48;fill-opacity:1;fill-rule:nonzero;stroke:none" id="path70"/>
        </g>
        <g id="g72" transform="translate(604.0107,341.1443)">
          <path d="m 0,0 c 0,0 -7.48,-9.449 -17.841,-0.869 0,0 3.838,10.297 17.841,0.869" style="fill:#1aae48;fill-opacity:1;fill-rule:nonzero;stroke:none" id="path74"/>
        </g>
        <g id="g76" transform="translate(628.0039,359.8249)">
          <path d="M 0,0 C 0,0 -15.243,4.392 -9.967,21.295 -9.967,21.295 4.49,21.762 0,0" style="fill:#fbbc09;fill-opacity:1;fill-rule:nonzero;stroke:none" id="path78"/>
        </g>
        <g id="g80" transform="translate(591.3193,280.0652)">
          <path d="m 0,0 c 0,0 -3.631,-15.747 -21.115,-11.307 0,0 -1.268,14.68 21.115,11.307" style="fill:#1aae48;fill-opacity:1;fill-rule:nonzero;stroke:none" id="path82"/>
        </g>
        <g id="g84" transform="translate(579.9814,306.2131)">
          <path d="m 0,0 c 0,0 -2.454,-17.601 -22.037,-14.428 0,0 -2.809,15.959 22.037,14.428" style="fill:#1aae48;fill-opacity:1;fill-rule:nonzero;stroke:none" id="path86"/>
        </g>
        <g id="g88" transform="translate(637.8662,394.6736)">
          <path d="M 0,0 C 0,0 -9.625,7.129 -1.432,17.694 -1.432,17.694 8.919,14.209 0,0" style="fill:#fbbc09;fill-opacity:1;fill-rule:nonzero;stroke:none" id="path90"/>
        </g>
        <g id="g92" transform="translate(605.6426,330.1926)">
          <path d="m 0,0 c 0,0 -5.319,-9.427 -15.709,-3.259 0,0 1.97,9.672 15.709,3.259" style="fill:#1aae48;fill-opacity:1;fill-rule:nonzero;stroke:none" id="path94"/>
        </g>
        <g id="g96" transform="translate(578.8105,345.5554)">
          <path d="m 0,0 c 0,0 -8.061,-7.225 -15.926,1.948 0,0 4.966,8.531 15.926,-1.948" style="fill:#1aae48;fill-opacity:1;fill-rule:nonzero;stroke:none" id="path98"/>
        </g>
        <g id="g100" transform="translate(697.458,368.8122)">
          <path d="m 0,0 c 0,0 -2.343,-8.803 -12.109,-5.972 0,0 -0.438,8.295 12.109,5.972" style="fill:#1c63b7;fill-opacity:1;fill-rule:nonzero;stroke:none" id="path102"/>
        </g>
        <g id="g104" transform="translate(712.4053,318.4587)">
          <path d="m 0,0 c 0,0 -4.551,-7.892 -13.245,-2.619 0,0 1.733,8.124 13.245,2.619" style="fill:#1c63b7;fill-opacity:1;fill-rule:nonzero;stroke:none" id="path106"/>
        </g>
        <g id="g108" transform="translate(670.4502,354.7649)">
          <path d="m 0,0 c 0,0 -1.062,-12.096 -14.535,-10.614 0,0 -2.473,10.793 14.535,10.614" style="fill:#fbbc09;fill-opacity:1;fill-rule:nonzero;stroke:none" id="path110"/>
        </g>
        <g id="g112" transform="translate(677.6826,329.5862)">
          <path d="m 0,0 c 0,0 -5.707,-8.411 -14.953,-1.834 0,0 2.592,8.899 14.953,1.834" style="fill:#fbbc09;fill-opacity:1;fill-rule:nonzero;stroke:none" id="path114"/>
        </g>
        <g id="g116" transform="translate(642.8389,395.0652)">
          <path d="m 0,0 c 0,0 5.788,-5.354 -0.329,-11.682 0,0 -6.525,3.02 0.329,11.682" style="fill:#fbbc09;fill-opacity:1;fill-rule:nonzero;stroke:none" id="path118"/>
        </g>
        <g id="g120" transform="translate(634.3828,382.8791)">
          <path d="m 0,0 c 0,0 6.903,-3.811 2.481,-11.42 0,0 -7.058,1.368 -2.481,11.42" style="fill:#fbbc09;fill-opacity:1;fill-rule:nonzero;stroke:none" id="path122"/>
        </g>
        <g id="g124" transform="translate(635.4453,364.5266)">
          <path d="m 0,0 c 0,0 7.543,-5.013 1.763,-13.308 0,0 -7.951,2.232 -1.763,13.308" style="fill:#fbbc09;fill-opacity:1;fill-rule:nonzero;stroke:none" id="path126"/>
        </g>
        <g id="g128" transform="translate(700.6309,383.1169)">
          <path d="m 0,0 c 0,0 -0.581,-9.091 -10.713,-8.218 0,0 -2.046,8.051 10.713,8.218" style="fill:#1c63b7;fill-opacity:1;fill-rule:nonzero;stroke:none" id="path130"/>
        </g>
        <g id="g132" transform="translate(661.1924,334.3337)">
          <path d="m 0,0 c 0,0 -1.665,-8.116 -10.681,-6.057 0,0 -0.833,7.508 10.681,6.057" style="fill:#fbbc09;fill-opacity:1;fill-rule:nonzero;stroke:none" id="path134"/>
        </g>
        <g id="g136" transform="translate(586.5039,333.9646)">
          <path d="m 0,0 c 0,0 -5.997,-6.098 -12.654,0.745 0,0 3.492,6.973 12.654,-0.745" style="fill:#1aae48;fill-opacity:1;fill-rule:nonzero;stroke:none" id="path138"/>
        </g>
        <g id="g140" transform="translate(628.04,346.7141)">
          <path d="m 0,0 c 0,0 -10.114,-1.783 -11.856,9.548 0,0 8.275,4.386 11.856,-9.548" style="fill:#fbbc09;fill-opacity:1;fill-rule:nonzero;stroke:none" id="path142"/>
        </g>
        <g id="g144" transform="translate(612.7705,367.26)">
          <path d="m 0,0 c 0,0 -9.759,-0.285 -9.837,10.613 0,0 8.387,2.986 9.837,-10.613" style="fill:#1aae48;fill-opacity:1;fill-rule:nonzero;stroke:none" id="path146"/>
        </g>
        <g id="g148" transform="translate(652.9805,403.4133)">
          <path d="m 0,0 c 0,0 5.882,-6.956 -2.024,-13.349 0,0 -7.056,4.384 2.024,13.349" style="fill:#fbbc09;fill-opacity:1;fill-rule:nonzero;stroke:none" id="path150"/>
        </g>
        <g id="g152" transform="translate(542.7744,300.1609)">
          <path d="M 0,0 C 0,0 3.485,8.417 12.792,4.319 12.792,4.319 12.13,-3.961 0,0" style="fill:#1aae48;fill-opacity:1;fill-rule:nonzero;stroke:none" id="path154"/>
        </g>
        <g id="g156" transform="translate(717.3086,364.2258)">
          <path d="m 0,0 c 0,0 -5.83,-13.659 -20.93,-6.816 0,0 1.226,13.486 20.93,6.816" style="fill:#1c63b7;fill-opacity:1;fill-rule:nonzero;stroke:none" id="path158"/>
        </g>
        <g id="g160" transform="translate(711.5312,348.1911)">
          <path d="m 0,0 c 0,0 -7.304,-11.077 -19.485,-2.653 0,0 3.228,11.659 19.485,2.653" style="fill:#1c63b7;fill-opacity:1;fill-rule:nonzero;stroke:none" id="path162"/>
        </g>
        <g id="g164" transform="translate(696.6943,293.5681)">
          <path d="m 0,0 c 0,0 -12.167,-7.846 -20.623,5.926 0,0 8.354,10.221 20.623,-5.926" style="fill:#1c63b7;fill-opacity:1;fill-rule:nonzero;stroke:none" id="path166"/>
        </g>
        <g id="g168" transform="translate(699.8564,334.822)">
          <path d="m 0,0 c 0,0 -6.321,-6.727 -13.673,0.494 0,0 3.598,7.61 13.673,-0.494" style="fill:#1c63b7;fill-opacity:1;fill-rule:nonzero;stroke:none" id="path170"/>
        </g>
        <g id="g172" transform="translate(661.9473,310.8244)">
          <path d="m 0,0 c 0,0 -2.765,-8.807 -12.524,-5.504 0,0 -0.074,8.416 12.524,5.504" style="fill:#fbbc09;fill-opacity:1;fill-rule:nonzero;stroke:none" id="path174"/>
        </g>
        <g id="g176" transform="translate(666.0557,319.6247)">
          <path d="m 0,0 c 0,0 -5.073,-6.824 -12.563,-0.994 0,0 2.486,7.344 12.563,0.994" style="fill:#fbbc09;fill-opacity:1;fill-rule:nonzero;stroke:none" id="path178"/>
        </g>
        <g id="g180" transform="translate(717.3359,284.4734)">
          <path d="m 0,0 c 0,0 -10.261,-5.715 -16.387,5.877 0,0 7.299,7.838 16.387,-5.877" style="fill:#1c63b7;fill-opacity:1;fill-rule:nonzero;stroke:none" id="path182"/>
        </g>
        <g id="g184" transform="translate(658.2197,291.3161)">
          <path d="m 0,0 c 0,0 -6.395,-9.853 -17.231,-2.474 0,0 2.783,10.343 17.231,2.474" style="fill:#fbbc09;fill-opacity:1;fill-rule:nonzero;stroke:none" id="path186"/>
        </g>
        <g id="g188" transform="translate(720.8359,332.6101)">
          <path d="m 0,0 c 0,0 -5.215,-10.524 -16.831,-4.445 0,0 1.571,10.594 16.831,4.445" style="fill:#1c63b7;fill-opacity:1;fill-rule:nonzero;stroke:none" id="path190"/>
        </g>
        <g id="g192" transform="translate(586.9863,284.946)">
          <path d="M 0,0 C 0,0 4.463,10.864 16.478,5.617 16.478,5.617 15.654,-5.062 0,0" style="fill:#1aae48;fill-opacity:1;fill-rule:nonzero;stroke:none" id="path194"/>
        </g>
        <g id="g196" transform="translate(599.4434,298.7004)">
          <path d="M 0,0 C 0,0 2.035,6.77 9.541,4.332 9.541,4.332 9.675,-2.113 0,0" style="fill:#1aae48;fill-opacity:1;fill-rule:nonzero;stroke:none" id="path198"/>
        </g>
        <g id="g200" transform="translate(562.9492,309.9001)">
          <path d="M 0,0 C 0,0 2.87,7.812 11.517,4.417 11.517,4.417 11.219,-3.166 0,0" style="fill:#1aae48;fill-opacity:1;fill-rule:nonzero;stroke:none" id="path202"/>
        </g>
        <g id="g204" transform="translate(605.3516,319.8991)">
          <path d="M 0,0 C 0,0 4.505,7.315 12.559,2.107 12.559,2.107 10.702,-5.503 0,0" style="fill:#1aae48;fill-opacity:1;fill-rule:nonzero;stroke:none" id="path206"/>
        </g>
        <g id="g208" transform="translate(605.4004,334.4641)">
          <path d="M 0,0 C 0,0 5.599,6.669 12.903,0.257 12.903,0.257 9.918,-7.1 0,0" style="fill:#1aae48;fill-opacity:1;fill-rule:nonzero;stroke:none" id="path210"/>
        </g>
        <g id="g212" transform="translate(619.0322,385.7326)">
          <path d="M 0,0 C 0,0 -10.149,3.205 -6.322,14.453 -6.322,14.453 3.383,14.52 0,0" style="fill:#fbbc09;fill-opacity:1;fill-rule:nonzero;stroke:none" id="path214"/>
        </g>
        <g id="g216" transform="translate(629.9404,385.8488)">
          <path d="M 0,0 C 0,0 -9.581,4.635 -4.172,15.213 -4.172,15.213 5.441,13.88 0,0" style="fill:#fbbc09;fill-opacity:1;fill-rule:nonzero;stroke:none" id="path218"/>
        </g>
        <g id="g220" transform="translate(597.7998,378.5749)">
          <path d="m 0,0 c 0,0 -10.633,0.472 -9.845,12.327 0,0 9.358,2.574 9.845,-12.327" style="fill:#1aae48;fill-opacity:1;fill-rule:nonzero;stroke:none" id="path222"/>
        </g>
        <g id="g224" transform="translate(608.5859,358.3401)">
          <path d="m 0,0 c 0,0 -15.177,-5.382 -20.81,11.688 0,0 11.659,8.928 20.81,-11.688" style="fill:#1aae48;fill-opacity:1;fill-rule:nonzero;stroke:none" id="path226"/>
        </g>
        <g id="g228" transform="translate(586.498,376.3493)">
          <path d="m 0,0 c 0,0 -7.859,-2.475 -10.428,6.356 0,0 6.124,4.353 10.428,-6.356" style="fill:#1aae48;fill-opacity:1;fill-rule:nonzero;stroke:none" id="path230"/>
        </g>
        <g id="g232" transform="translate(582.2471,364.9631)">
          <path d="m 0,0 c 0,0 -7.858,-2.475 -10.427,6.356 0,0 6.123,4.353 10.427,-6.356" style="fill:#1aae48;fill-opacity:1;fill-rule:nonzero;stroke:none" id="path234"/>
        </g>
        <g id="g236" transform="translate(675.9189,273.0427)">
          <path d="m 0,0 c 0,0 -6.108,-4.655 -11.154,2.275 0,0 3.993,5.754 11.154,-2.275" style="fill:#1c63b7;fill-opacity:1;fill-rule:nonzero;stroke:none" id="path238"/>
        </g>
        <g id="g240" transform="translate(718.8184,303.2121)">
          <path d="m 0,0 c 0,0 -12.317,-13.328 -26.888,0.746 0,0 6.948,15.02 26.888,-0.746" style="fill:#1c63b7;fill-opacity:1;fill-rule:nonzero;stroke:none" id="path242"/>
        </g>
        <g id="g244" transform="translate(704.0215,275.8513)">
          <path d="m 0,0 c 0,0 -14.147,-11.366 -26.483,4.702 0,0 9.085,13.831 26.483,-4.702" style="fill:#1c63b7;fill-opacity:1;fill-rule:nonzero;stroke:none" id="path246"/>
        </g>
        <g id="g248" transform="translate(652.3145,356.5373)">
          <path d="m 0,0 c 0,0 2.777,-10.462 -8.967,-13.305 0,0 -5.346,8.298 8.967,13.305" style="fill:#fbbc09;fill-opacity:1;fill-rule:nonzero;stroke:none" id="path250"/>
        </g>
        <g id="g252" transform="translate(663.6582,375.1613)">
          <path d="m 0,0 c 0,0 2.778,-10.462 -8.966,-13.305 0,0 -5.346,8.298 8.966,13.305" style="fill:#fbbc09;fill-opacity:1;fill-rule:nonzero;stroke:none" id="path254"/>
        </g>
        <g id="g256" transform="translate(647.3008,379.135)">
          <path d="m 0,0 c 0,0 7.605,-8.628 -2.211,-16.903 0,0 -9.019,5.351 2.211,16.903" style="fill:#fbbc09;fill-opacity:1;fill-rule:nonzero;stroke:none" id="path258"/>
        </g>
        <g id="g260" transform="translate(670.3408,399.8156)">
          <path d="m 0,0 c 0,0 4.076,-15.355 -13.16,-19.526 0,0 -7.845,12.178 13.16,19.526" style="fill:#fbbc09;fill-opacity:1;fill-rule:nonzero;stroke:none" id="path262"/>
        </g>
        <g id="g264" transform="translate(644.457,328.5647)">
          <path d="m 0,0 5.881,7.992 -9.798,1.175 -3.823,8.945 -5.739,-7.799 -9.644,1.157 3.855,-9.022 -5.881,-7.993 9.8,-1.175 3.823,-8.945 5.738,7.799 9.643,-1.156 z" style="fill:#fbbc09;fill-opacity:1;fill-rule:nonzero;stroke:none" id="path266"/>
        </g>
        <g id="g268" transform="translate(655.834,275.7712)">
          <path d="m 0,0 c -6.777,11.018 -13.913,5.162 -13.913,5.162 2.607,-7.07 7.323,-8.651 10.865,-8.721 C -2.02,-2.402 -1.003,-1.216 0,0" style="fill:#fbbc09;fill-opacity:1;fill-rule:nonzero;stroke:none" id="path270"/>
        </g>
        <g id="g272" transform="translate(659.3447,283.7644)">
          <path d="M 0,0 C 0.57,-0.482 1.129,-0.889 1.678,-1.238 2.827,0.373 3.948,2.031 5.038,3.735 1.273,3.291 0,0 0,0" style="fill:#fbbc09;fill-opacity:1;fill-rule:nonzero;stroke:none" id="path274"/>
        </g>
        <g id="g276" transform="translate(655.9453,299.0559)">
          <path d="m 0,0 c 4.07,-5.34 8.444,-6.274 11.876,-5.822 1.027,1.829 2.017,3.707 2.963,5.635 C 5.104,7.706 0,0 0,0" style="fill:#fbbc09;fill-opacity:1;fill-rule:nonzero;stroke:none" id="path278"/>
        </g>
        <g id="g280" transform="translate(666.9023,308.5857)">
          <path d="M 0,0 C 2.793,-1.428 5.234,-1.971 7.346,-1.957 8.49,0.883 9.541,3.822 10.49,6.861 1.065,7.638 0,0 0,0" style="fill:#fbbc09;fill-opacity:1;fill-rule:nonzero;stroke:none" id="path282"/>
        </g>
        <g id="g284" transform="translate(677.4941,321.0793)">
          <path d="M 0,0 C 0.437,-0.288 0.868,-0.553 1.294,-0.798 1.728,0.83 2.131,2.486 2.504,4.168 0.562,2.223 0,0 0,0" style="fill:#fbbc09;fill-opacity:1;fill-rule:nonzero;stroke:none" id="path286"/>
        </g>
        <g id="g288" transform="translate(664.2852,339.2868)">
          <path d="m 0,0 c 8.15,-5.636 14.32,-3.375 17.925,-0.711 0.193,1.713 0.354,3.452 0.483,5.217 C 3.148,11.36 0,0 0,0" style="fill:#fbbc09;fill-opacity:1;fill-rule:nonzero;stroke:none" id="path290"/>
        </g>
        <g id="g292" transform="translate(683.0254,357.7741)">
          <path d="M 0,0 C -5.693,-1.006 -6.164,-6.146 -6.164,-6.146 -3.811,-7.212 -1.77,-7.592 -0.009,-7.535 0.058,-5.071 0.062,-2.559 0,0" style="fill:#fbbc09;fill-opacity:1;fill-rule:nonzero;stroke:none" id="path294"/>
        </g>
        <g id="g296" transform="translate(681.7314,374.6028)">
          <path d="m 0,0 c -19.404,-1.319 -16.118,-14.241 -16.118,-14.241 9.958,-0.847 14.621,3.819 16.794,8.053 C 0.491,-4.153 0.267,-2.091 0,0" style="fill:#fbbc09;fill-opacity:1;fill-rule:nonzero;stroke:none" id="path298"/>
        </g>
        <g id="g300" transform="translate(679.1182,389.9519)">
          <path d="m 0,0 c -10.604,-3.81 -7.218,-11.606 -7.218,-11.606 4.207,0.32 6.959,1.734 8.76,3.513 C 1.096,-5.439 0.58,-2.741 0,0" style="fill:#fbbc09;fill-opacity:1;fill-rule:nonzero;stroke:none" id="path302"/>
        </g>
        <g id="g304" transform="translate(652.7861,272.2126)">
          <path d="M 0,0 C 2.62,-0.051 4.599,0.725 4.599,0.725 4.086,1.779 3.567,2.713 3.048,3.559 2.045,2.343 1.028,1.156 0,0" style="fill:#1c63b7;fill-opacity:1;fill-rule:nonzero;stroke:none" id="path306"/>
        </g>
        <g id="g308" transform="translate(664.3828,287.4997)">
          <path d="M 0,0 C -1.09,-1.704 -2.211,-3.362 -3.36,-4.974 3.939,-9.636 9.157,-3.197 9.157,-3.197 5.13,-0.422 2.157,0.255 0,0" style="fill:#1c63b7;fill-opacity:1;fill-rule:nonzero;stroke:none" id="path310"/>
        </g>
        <g id="g312" transform="translate(670.7842,298.8689)">
          <path d="m 0,0 c -0.946,-1.928 -1.936,-3.806 -2.963,-5.635 3.658,0.483 6.246,2.541 6.246,2.541 C 2.136,-1.863 1.042,-0.845 0,0" style="fill:#1c63b7;fill-opacity:1;fill-rule:nonzero;stroke:none" id="path314"/>
        </g>
        <g id="g316" transform="translate(677.3926,315.4465)">
          <path d="M 0,0 C -0.949,-3.039 -2,-5.978 -3.145,-8.818 4.222,-8.771 7.542,-1.914 7.542,-1.914 4.565,-0.748 2.082,-0.171 0,0" style="fill:#1c63b7;fill-opacity:1;fill-rule:nonzero;stroke:none" id="path318"/>
        </g>
        <g id="g320" transform="translate(679.998,325.2478)">
          <path d="m 0,0 c -0.373,-1.683 -0.776,-3.339 -1.21,-4.966 13.052,-7.52 20.439,4.287 20.439,4.287 C 8.382,4.997 2.778,2.783 0,0" style="fill:#1c63b7;fill-opacity:1;fill-rule:nonzero;stroke:none" id="path322"/>
        </g>
        <g id="g324" transform="translate(682.6934,343.7927)">
          <path d="M 0,0 C -0.129,-1.765 -0.29,-3.504 -0.483,-5.217 1.868,-3.48 3.131,-1.573 3.131,-1.573 2.034,-0.966 0.992,-0.446 0,0" style="fill:#1c63b7;fill-opacity:1;fill-rule:nonzero;stroke:none" id="path326"/>
        </g>
        <g id="g328" transform="translate(683.0254,357.7741)">
          <path d="m 0,0 c 0.062,-2.559 0.058,-5.071 -0.009,-7.535 6.471,0.208 9.101,6.357 9.101,6.357 C 5.117,0.167 2.179,0.385 0,0" style="fill:#1c63b7;fill-opacity:1;fill-rule:nonzero;stroke:none" id="path330"/>
        </g>
        <g id="g332" transform="translate(681.7314,374.6028)">
          <path d="M 0,0 C 0.267,-2.091 0.491,-4.153 0.676,-6.188 2.359,-2.909 2.55,0.111 2.55,0.111 1.653,0.098 0.814,0.056 0,0" style="fill:#1c63b7;fill-opacity:1;fill-rule:nonzero;stroke:none" id="path334"/>
        </g>
        <g id="g336" transform="translate(680.6602,381.8591)">
          <path d="M 0,0 C 3.876,3.829 3.336,9.355 3.336,9.355 1.443,9.02 -0.162,8.588 -1.542,8.093 -0.962,5.352 -0.446,2.653 0,0" style="fill:#1c63b7;fill-opacity:1;fill-rule:nonzero;stroke:none" id="path338"/>
        </g>
        <g id="g340" transform="translate(647.7432,311.1545)">
          <path d="m 0,0 c -0.143,0.018 -0.224,0.062 -0.187,0.15 0.491,1.068 -0.777,1.064 -0.777,1.064 0,1.144 -0.933,0.884 -1.316,0.731 -0.033,-0.033 -0.056,-0.058 -0.089,-0.091 -0.032,-0.032 -0.076,-0.041 -0.08,0.017 0.267,1.369 1.056,3.52 0.733,3.594 -0.98,0.415 -1.543,-2.01 -2.03,-2.829 -0.187,-0.313 -0.385,-0.528 -0.59,-0.684 -0.875,-1.467 -1.875,-3.108 -2.567,-4.24 -0.1,-0.223 -0.151,-0.463 -0.29,-0.67 -2.636,-3.897 -5.682,-7.515 -7.279,-12.077 -0.29,-0.826 -0.961,-2.39 -1.695,-3.555 -0.103,0.139 -0.176,0.239 -0.176,0.239 l -1.288,-0.661 c -0.642,2.182 -0.392,5.858 -0.392,5.858 -0.174,7.338 -1.448,8.986 -1.448,8.986 -2.393,6.146 -8.007,5.316 -8.007,5.316 -6.685,0.285 -7.261,-8.781 -7.261,-8.781 0.049,-2.056 -0.98,-6.733 -0.98,-6.733 -0.997,-4.644 -3.194,-5.393 -3.194,-5.393 l 0.143,-0.724 -1.437,-0.763 c 0.17,-0.502 0.914,-1.212 0.914,-1.212 l 0.509,-0.557 c -0.578,-0.682 -0.966,-1.276 -1.229,-1.786 -1.341,-0.855 -2.746,-2.729 -3.758,-6.611 l 0.994,-0.736 c -1.337,-2.161 -2.143,-5.084 -2.058,-5.528 -2.493,-3.752 -4.23,-8.06 -6.304,-12.04 -0.831,-2.084 1.4,-1.796 1.968,-2.512 1.172,-1.475 2.289,0.358 2.791,2.179 0.433,1.572 0.679,1.57 0.862,3.211 0.048,0.432 0.586,0.774 0.822,1.005 1.48,1.45 4.09,8.165 5.963,10.689 l 0.609,-0.451 c -0.349,-1.901 -1.252,-5.349 -1.252,-5.349 -0.586,-3.42 -2.228,-7.612 -2.218,-7.991 0.009,-0.38 -1.658,-5.522 -1.797,-5.714 -0.137,-0.193 -1.959,-7.674 -1.959,-7.674 -0.53,-3.508 0.328,-6.693 0.328,-6.693 0,0 0.92,-0.858 2.905,-0.431 1.983,0.427 3.74,0.422 3.74,0.422 1.319,0.031 1.962,-0.859 2.253,-1.494 7.281,3.777 15.923,9.002 24.638,15.96 -0.315,0.803 -0.522,1.32 -0.522,1.32 -0.067,0.165 -0.132,0.337 -0.198,0.506 -1.134,8.442 -3.336,15.124 -3.653,17.669 -0.252,2.015 -0.517,3.432 -0.46,4.74 1.515,1.274 3.821,3.337 4.112,4.354 0.145,0.512 -0.292,1.551 -0.912,2.689 3.011,5.569 6.758,14.102 9.049,18.296 0.459,0.84 1.082,1.692 1.842,2.242 0.491,0.355 1.036,0.633 1.583,0.908 C 0.54,-0.859 0.255,-0.257 0,0" style="fill:#fbbc09;fill-opacity:1;fill-rule:nonzero;stroke:none" id="path342"/>
        </g>
        <g id="g344" transform="translate(636.2568,256.5954)">
          <path d="m 0,0 c -8.715,-6.958 -17.356,-12.183 -24.638,-15.96 0.15,-0.324 0.208,-0.584 0.215,-0.615 0.138,-1.004 0.845,-2.86 1.312,-4.01 -0.044,-0.29 -0.077,-0.503 -0.077,-0.503 l 0.407,-0.296 c 0.053,-0.128 0.085,-0.2 0.085,-0.2 0.504,-1.223 0.538,-6.665 0.538,-6.665 -0.355,-1.054 0.346,-3.917 0.346,-3.917 -0.305,-0.45 0.085,-0.947 0.085,-0.947 0.419,-0.307 0.178,-0.787 0.178,-0.787 -0.683,-0.554 -0.069,-1.11 -0.069,-1.11 0.262,-0.342 0.117,-0.915 0.117,-0.915 -1.711,-2.604 -1.37,-5.964 -1.37,-5.964 -0.289,-6.495 5.992,-4.416 5.992,-4.416 2.326,0.658 0.614,6.123 0.614,6.123 0.327,0.863 -0.472,2.553 -0.472,2.553 0.171,0.827 0.743,9.716 0.771,9.843 0.028,0.128 -0.836,7.228 -0.874,7.48 -0.01,0.068 -0.062,0.461 -0.132,0.99 0.187,0.618 0.331,1.042 0.331,1.042 0.479,-0.179 2.214,0.052 2.214,0.052 -0.229,-0.986 1.634,-4.835 1.634,-4.835 0.504,-1.222 0.538,-6.666 0.538,-6.666 -0.354,-1.052 0.347,-3.916 0.347,-3.916 -0.306,-0.45 0.086,-0.947 0.086,-0.947 0.418,-0.307 0.176,-0.787 0.176,-0.787 -0.683,-0.555 -0.068,-1.109 -0.068,-1.109 0.261,-0.342 0.116,-0.915 0.116,-0.915 -1.711,-2.605 -1.369,-4.97 -1.369,-4.97 -0.289,-6.496 5.991,-4.416 5.991,-4.416 2.327,0.656 0.615,6.123 0.615,6.123 0.328,0.862 -0.472,2.553 -0.472,2.553 0.17,0.827 0.742,8.721 0.771,8.848 0.029,0.127 -0.836,7.228 -0.874,7.481 -0.038,0.252 -0.657,4.985 -0.657,4.985 l 0.937,0.56 c 0.778,0.525 0.01,0.918 0.036,1.14 0.026,0.223 1.061,0.627 1.439,0.698 0.378,0.074 2.925,0.798 2.933,0.482 0.007,-0.316 0.714,-0.775 1.127,-0.828 0.413,-0.053 1.292,0.253 1.858,0.392 0.566,0.141 0.593,0.363 1.412,0.508 0.82,0.147 1.705,0.136 1.705,0.136 C 5.147,-13.484 3.235,-8.94 3.235,-8.94 2.696,-6.961 0.898,-2.293 0,0" style="fill:#1c63b7;fill-opacity:1;fill-rule:nonzero;stroke:none" id="path346"/>
        </g>
        <g id="g348" transform="translate(107.9063,245.7673)">
          <path d="m 0,0 h 14.503 c 5.481,0 8.769,2.53 8.769,7.167 0,4.469 -3.288,7.167 -8.769,7.167 H 0 Z m -12.142,-34.065 v 59.024 h 27.32 c 6.239,0 11.214,-1.603 14.84,-4.891 3.626,-3.204 5.481,-7.421 5.481,-12.563 0,-7.842 -4.554,-13.997 -12.227,-16.359 L 41.486,-34.065 H 27.404 L 10.203,-10.203 H 0 v -23.862 z" style="fill:#1c63b7;fill-opacity:1;fill-rule:nonzero;stroke:none" id="path350"/>
        </g>
        <g id="g352" transform="translate(177.6431,237.0827)">
          <path d="m 0,0 c -0.253,4.638 -3.542,8.432 -8.854,8.432 -5.396,0 -9.022,-3.457 -9.612,-8.432 z m -23.526,-20.406 c -4.469,4.048 -6.745,9.444 -6.745,16.105 0,6.24 2.024,11.468 6.071,15.684 4.048,4.301 9.36,6.408 15.852,6.408 6.156,0 10.962,-2.191 14.587,-6.492 C 9.865,6.998 11.72,1.771 11.72,-4.47 v -3.119 h -30.186 c 1.264,-5.734 6.661,-8.769 14.081,-8.769 4.722,0 9.191,1.264 13.491,3.711 v -9.529 C 5.312,-25.043 0,-26.477 -6.915,-26.477 c -6.576,0 -12.141,2.024 -16.611,6.071" style="fill:#1c63b7;fill-opacity:1;fill-rule:nonzero;stroke:none" id="path354"/>
        </g>
        <g id="g356" transform="translate(205.7241,238.1784)">
          <path d="m 0,0 v -10.962 c 1.939,-3.625 5.818,-6.239 10.456,-6.239 3.288,0 6.07,1.096 8.179,3.373 2.108,2.276 3.204,5.059 3.204,8.347 0,3.374 -1.096,6.156 -3.204,8.432 C 16.526,5.228 13.744,6.324 10.456,6.324 5.818,6.324 1.939,3.626 0,0 m 27.994,10.287 c 3.795,-4.216 5.65,-9.443 5.65,-15.768 0,-6.24 -1.855,-11.467 -5.65,-15.768 -3.71,-4.216 -8.432,-6.323 -14.166,-6.323 -5.986,0 -10.539,2.107 -13.828,6.239 V -43.341 H -11.889 V 15.6 H 0 v -5.144 c 3.12,4.132 7.757,6.239 13.828,6.239 5.734,0 10.456,-2.107 14.166,-6.408" style="fill:#1c63b7;fill-opacity:1;fill-rule:nonzero;stroke:none" id="path358"/>
        </g>
        <g id="g360" transform="translate(272.1714,253.778)">
          <path d="M 0,0 H 11.889 V -42.076 H 0 v 5.059 c -3.794,-4.131 -8.432,-6.155 -14.082,-6.155 -9.781,0 -15.346,6.577 -15.346,17.37 V 0 h 11.889 v -23.357 c 0,-6.493 3.626,-8.938 8.011,-8.938 3.71,0 7.504,2.361 9.528,5.482 z" style="fill:#1c63b7;fill-opacity:1;fill-rule:nonzero;stroke:none" id="path362"/>
        </g>
        <g id="g364" transform="translate(321.5845,224.3503)">
          <path d="m 0,0 c 2.108,2.276 3.204,5.06 3.204,8.432 0,3.289 -1.096,6.071 -3.204,8.347 -2.108,2.277 -4.891,3.373 -8.179,3.373 -4.637,0 -8.516,-2.613 -10.455,-6.24 V 2.95 c 1.939,-3.625 5.818,-6.323 10.455,-6.323 3.288,0 6.071,1.096 8.179,3.373 m -18.634,-7.505 v -5.143 h -11.89 v 59.024 h 11.89 V 24.284 c 3.288,4.132 7.841,6.239 13.828,6.239 5.734,0 10.456,-2.107 14.166,-6.408 3.794,-4.216 5.649,-9.443 5.649,-15.683 0,-6.325 -1.855,-11.552 -5.649,-15.853 -3.71,-4.216 -8.432,-6.323 -14.166,-6.323 -6.071,0 -10.709,2.107 -13.828,6.239" style="fill:#1c63b7;fill-opacity:1;fill-rule:nonzero;stroke:none" id="path366"/>
        </g>
        <g id="g368" transform="translate(340.7275,222.2419)">
          <path d="M 0,0 V 48.484 H 11.89 V 3.12 c 0,-2.782 1.264,-4.216 3.794,-4.216 1.18,0 2.192,0.253 3.036,0.758 v -9.78 c -2.024,-1.013 -4.554,-1.518 -7.505,-1.518 C 4.722,-11.636 0,-8.433 0,0" style="fill:#1c63b7;fill-opacity:1;fill-rule:nonzero;stroke:none" id="path370"/>
        </g>
        <path d="m 363.495,253.778 h 11.889 v -42.076 h -11.889 z m 5.902,18.297 c 3.963,0 7.083,-3.119 7.083,-7.166 0,-3.964 -3.12,-7.084 -7.083,-7.084 -3.962,0 -7.083,3.12 -7.083,7.084 0,4.047 3.121,7.166 7.083,7.166" style="fill:#1c63b7;fill-opacity:1;fill-rule:nonzero;stroke:none" id="path372"/>
        <g id="g374" transform="translate(386.937,216.6765)">
          <path d="m 0,0 c -4.469,4.132 -6.746,9.528 -6.746,16.189 0,6.662 2.277,11.974 6.746,15.937 4.554,4.048 9.95,6.071 16.274,6.071 4.638,0 8.769,-0.926 12.479,-2.782 V 25.297 c -3.626,1.685 -7.251,2.529 -10.708,2.529 -3.711,0 -6.83,-1.097 -9.359,-3.289 C 6.24,22.43 4.975,19.562 4.975,16.105 4.975,12.648 6.24,9.781 8.77,7.59 c 2.529,-2.194 5.649,-3.289 9.275,-3.289 4.3,0 8.095,0.927 11.383,2.867 V -2.951 C 25.465,-5.059 21.08,-6.07 16.105,-6.07 9.866,-6.07 4.469,-4.047 0,0" style="fill:#1c63b7;fill-opacity:1;fill-rule:nonzero;stroke:none" id="path376"/>
        </g>
        <g id="g378" transform="translate(447.1426,228.3132)">
          <path d="m 0,0 c -2.444,1.602 -5.312,2.445 -8.769,2.445 -5.058,0 -8.263,-2.024 -8.263,-5.48 0,-3.71 3.12,-5.482 7.505,-5.482 4.131,0 7.336,1.434 9.527,4.301 z M 17.202,-6.914 V -15.6 c -1.517,-1.18 -3.626,-1.769 -6.409,-1.769 -4.806,0 -7.926,1.769 -9.527,5.396 -3.71,-3.796 -8.517,-5.734 -14.503,-5.734 -9.107,0 -15.515,5.565 -15.515,14.081 0,4.469 1.602,7.926 4.89,10.287 3.289,2.361 7.168,3.541 11.72,3.541 4.723,0 8.77,-0.843 12.142,-2.613 v 1.265 c 0,5.312 -3.709,7.925 -11.129,7.925 -4.47,0 -8.769,-1.18 -12.733,-3.541 v 9.949 c 4.3,2.278 9.444,3.374 15.6,3.374 5.986,0 10.877,-1.434 14.502,-4.385 3.71,-2.951 5.566,-6.999 5.566,-12.142 v -14.25 c 0,-2.108 1.011,-3.204 2.951,-3.204 1.012,0 1.854,0.168 2.445,0.506" style="fill:#1c63b7;fill-opacity:1;fill-rule:nonzero;stroke:none" id="path380"/>
        </g>
        <g id="g382" transform="translate(479.8613,211.7019)">
          <path d="M 0,0 H -11.889 V 42.076 H 0 v -5.058 c 3.794,4.13 8.432,6.154 14.081,6.154 9.781,0 15.347,-6.576 15.347,-17.369 V 0 h -11.89 v 23.357 c 0,6.493 -3.625,8.938 -8.01,8.938 -3.71,0 -7.505,-2.361 -9.528,-5.482 z" style="fill:#1c63b7;fill-opacity:1;fill-rule:nonzero;stroke:none" id="path384"/>
        </g>
        <g id="g386" transform="translate(536.0205,220.9773)">
          <path d="m 0,0 c 3.373,0 6.156,1.096 8.348,3.373 2.193,2.276 3.289,5.06 3.289,8.432 0,3.373 -1.096,6.155 -3.289,8.347 -2.192,2.277 -4.975,3.373 -8.348,3.373 -3.372,0 -6.155,-1.096 -8.347,-3.373 -2.193,-2.192 -3.289,-4.974 -3.289,-8.347 0,-3.372 1.096,-6.156 3.289,-8.432 C -6.155,1.096 -3.372,0 0,0 m -16.779,27.488 c 4.384,4.301 9.95,6.408 16.779,6.408 6.83,0 12.396,-2.107 16.78,-6.408 4.385,-4.3 6.577,-9.528 6.577,-15.683 C 23.357,5.48 21.165,0.253 16.78,-4.048 12.396,-8.264 6.83,-10.371 0,-10.371 c -6.829,0 -12.395,2.107 -16.779,6.323 -4.385,4.301 -6.576,9.528 -6.576,15.853 0,6.24 2.191,11.467 6.576,15.683" style="fill:#1c63b7;fill-opacity:1;fill-rule:nonzero;stroke:none" id="path388"/>
        </g>
        <g id="g390" transform="translate(561.3203,214.5691)">
          <path d="M 0,0 V 10.54 C 3.71,8.095 10.372,5.734 17.201,5.734 c 4.807,0 7.251,1.18 7.251,3.541 0,1.096 -0.505,1.94 -2.107,2.614 -0.759,0.338 -1.518,0.59 -2.193,0.758 l -3.119,0.76 C 15.6,13.829 14.419,14.081 13.659,14.334 3.963,16.948 0,19.983 0,27.404 c 0,8.011 6.998,12.901 18.551,12.901 6.323,0 11.636,-1.265 15.767,-3.878 V 26.308 c -5.058,2.951 -10.119,4.384 -15.262,4.384 -4.469,0 -6.745,-1.095 -6.745,-3.372 0,-1.433 1.095,-2.024 2.36,-2.783 0.929,-0.337 2.614,-0.759 3.627,-1.097 l 4.468,-0.926 C 31.873,20.405 36.511,16.527 36.511,9.19 36.511,5.228 34.824,2.107 31.367,-0.338 27.91,-2.782 23.356,-3.963 17.707,-3.963 10.203,-3.963 4.3,-2.614 0,0" style="fill:#1c63b7;fill-opacity:1;fill-rule:nonzero;stroke:none" id="path392"/>
        </g>
        <g id="g398" transform="translate(709.4053,228.5036)"/>
      </g>
    </g>
  </g>
</svg>