<?xml version="1.0" encoding="utf-8"?>
<svg viewBox="0 0 500 500" xmlns="http://www.w3.org/2000/svg">
  <g transform="matrix(0.111367, 0, 0, -0.111367, -162.312149, 363.646637)" fill="#000000" stroke="none" style="">
    <path d="M 1732.489 1651.533 C 1729.722 1649.69 1699.294 1646.002 1664.255 1644.157 C 1628.295 1641.391 1579.424 1636.781 1553.606 1634.014 C 1512.113 1629.405 1241.948 1617.417 1147.897 1616.495 C 1127.612 1616.495 1078.742 1619.262 1038.17 1623.871 C 968.093 1631.248 965.327 1630.325 948.729 1609.118 C 939.508 1597.132 931.21 1574.079 931.21 1557.482 C 931.21 1541.808 926.6 1525.21 921.067 1521.521 C 908.158 1514.146 917.379 1395.198 931.21 1390.587 C 935.82 1388.743 940.431 1373.069 940.431 1356.472 C 940.431 1339.874 943.197 1318.666 945.963 1310.367 C 953.341 1291.926 998.522 1267.953 1041.859 1258.732 L 1074.13 1252.278 L 1036.325 1251.355 C 1004.975 1250.433 996.678 1246.745 992.066 1230.148 C 983.768 1196.953 985.612 1150.849 995.754 1144.395 C 1001.287 1141.63 1004.975 1130.564 1004.975 1121.345 C 1004.975 1109.356 1012.352 1102.903 1029.871 1101.058 C 1052.923 1098.292 1053.845 1097.37 1039.092 1082.616 C 1020.65 1064.175 1018.807 1023.604 1036.325 1017.149 C 1045.547 1013.461 1047.391 999.631 1043.702 966.436 C 1040.936 935.085 1043.702 913.879 1053.845 899.124 C 1061.222 887.138 1069.52 857.633 1071.365 834.58 C 1075.976 795.853 1074.13 791.243 1052.001 782.945 C 1030.793 773.723 1034.482 772.803 1083.351 770.957 C 1136.832 769.112 1137.754 769.112 1111.936 758.048 C 1097.182 751.594 1088.884 744.218 1093.494 741.451 C 1101.793 736.841 1150.662 723.01 1163.572 721.166 C 1183.857 718.4 1178.324 705.49 1154.351 700.881 C 1129.455 696.27 1127.612 692.582 1136.832 677.829 C 1143.286 667.686 1154.351 662.153 1166.338 664.919 C 1240.103 679.672 2182.457 689.815 2217.496 675.984 C 2227.639 671.373 3146.942 666.764 4259.879 664.919 C 6238.639 662.153 6389.859 663.997 6389.859 689.815 C 6389.859 693.504 6330.846 694.426 6258.925 690.738 C 6186.083 687.971 6128.914 687.971 6131.679 690.738 C 6136.29 695.348 6205.445 702.725 6302.262 707.334 L 6329.924 708.256 L 6302.262 715.633 L 6274.601 723.01 L 6308.717 723.932 C 6329.002 724.853 6346.522 730.386 6351.131 739.608 C 6355.742 746.984 6379.716 757.126 6404.611 760.813 C 6429.508 765.425 6442.417 769.112 6433.196 770.036 C 6421.209 770.957 6417.521 775.568 6422.132 788.478 C 6426.742 805.074 6421.209 807.84 6371.418 813.373 C 6307.795 820.749 6295.808 831.815 6355.742 829.969 C 6380.639 828.126 6385.249 829.048 6366.807 832.736 C 6352.054 834.58 6335.457 841.035 6329.924 846.567 C 6323.47 853.021 6327.159 853.944 6340.988 849.334 C 6367.729 841.957 6457.17 853.944 6433.196 862.242 C 6423.976 865.93 6416.599 870.541 6417.521 872.385 C 6421.209 886.216 6403.69 909.267 6388.937 909.267 C 6369.572 909.267 6366.807 919.41 6381.56 934.164 C 6389.859 942.463 6384.326 947.074 6362.197 952.605 C 6317.015 964.592 6312.404 987.644 6356.665 979.345 C 6392.625 971.968 6402.767 985.8 6369.572 996.863 C 6352.054 1002.397 6351.131 1004.241 6364.041 1007.93 C 6373.262 1009.773 6377.871 1017.149 6374.183 1025.448 C 6370.496 1035.591 6377.871 1038.357 6404.611 1039.28 C 6453.482 1040.201 6481.144 1050.343 6462.702 1061.409 C 6452.56 1067.865 6455.326 1071.552 6472.845 1076.162 C 6492.208 1081.694 6489.442 1082.616 6459.014 1083.538 C 6401.845 1085.384 6389.859 1098.292 6432.275 1113.046 L 6468.235 1125.032 L 6431.352 1136.096 L 6394.468 1147.162 L 6426.742 1149.006 L 6459.014 1150.849 L 6431.352 1160.992 L 6403.69 1171.134 L 6431.352 1177.59 L 6459.014 1184.044 L 6426.742 1185.889 C 6409.223 1186.811 6384.326 1191.42 6371.418 1196.031 C 6354.821 1201.563 6360.353 1202.486 6392.625 1198.799 C 6426.742 1195.11 6435.962 1196.953 6435.962 1208.018 C 6435.962 1222.771 6421.209 1234.758 6400.924 1237.524 C 6384.326 1240.29 6374.183 1250.433 6388.015 1250.433 C 6408.301 1250.433 6399.08 1267.031 6375.106 1272.563 C 6356.665 1277.173 6353.898 1281.783 6361.273 1291.005 C 6372.34 1303.915 6365.884 1314.978 6346.522 1314.978 C 6340.068 1314.978 6334.534 1308.524 6334.534 1301.147 C 6334.534 1283.627 6324.392 1283.627 6301.341 1301.147 C 6285.665 1313.134 6285.665 1314.057 6299.496 1314.978 C 6307.795 1314.978 6317.938 1319.588 6321.626 1326.043 C 6326.237 1333.419 6321.626 1334.342 6308.717 1331.576 C 6297.651 1327.887 6288.431 1330.654 6288.431 1335.263 C 6288.431 1341.718 6303.185 1342.64 6327.159 1339.874 C 6351.131 1337.108 6377.871 1339.874 6397.236 1348.173 C 6414.754 1355.548 6436.885 1361.082 6446.105 1361.082 C 6456.247 1361.082 6463.624 1364.77 6463.624 1368.458 C 6463.624 1387.822 6436.885 1397.965 6381.56 1397.965 C 6325.313 1397.965 6323.47 1398.885 6337.301 1414.562 C 6359.43 1438.536 6356.665 1449.6 6325.313 1462.51 C 6299.496 1473.574 6277.366 1492.015 6294.886 1489.249 C 6298.574 1488.328 6325.313 1489.249 6352.976 1490.172 C 6380.639 1492.015 6392.625 1494.781 6379.716 1496.626 C 6356.665 1500.314 6333.612 1536.275 6353.898 1536.275 C 6358.508 1536.275 6362.197 1539.962 6362.197 1544.574 C 6362.197 1550.106 6348.366 1555.638 6332.689 1557.482 C 6316.093 1559.327 6335.457 1559.327 6376.028 1557.482 C 6444.261 1553.794 6447.948 1554.716 6431.352 1567.626 C 6421.209 1575.001 6404.611 1582.378 6394.468 1582.378 C 6380.639 1582.378 6379.716 1585.145 6388.015 1590.677 C 6396.314 1595.287 6377.871 1605.431 6332.689 1620.183 C 6276.444 1638.624 6246.938 1642.312 6152.888 1642.312 C 6092.031 1642.312 6043.161 1645.078 6045.005 1647.845 C 6048.693 1654.301 1738.021 1657.988 1732.489 1651.533 Z M 6263.534 1612.807 C 6257.081 1610.963 6244.172 1610.963 6235.873 1612.807 C 6226.653 1615.573 6232.185 1617.417 6246.938 1617.417 C 6262.614 1617.417 6269.067 1615.573 6263.534 1612.807 Z M 1752.774 1434.847 L 1777.67 1423.782 L 1755.539 1385.056 L 1734.332 1347.25 L 1671.631 1347.25 C 1613.541 1347.25 1608.93 1345.406 1597.865 1322.355 C 1579.424 1285.472 1595.1 1259.654 1667.943 1198.799 C 1763.838 1120.422 1784.125 1087.227 1784.125 1009.773 C 1784.125 960.903 1779.513 941.54 1764.76 921.255 C 1738.942 886.216 1698.371 864.086 1649.501 857.633 C 1604.32 851.177 1513.958 866.853 1489.984 884.372 C 1475.23 894.515 1476.153 899.124 1495.516 935.085 C 1510.269 961.825 1521.334 971.968 1530.555 968.279 C 1537.932 964.592 1562.827 959.06 1584.957 954.45 C 1634.748 944.306 1669.786 959.06 1681.774 995.02 C 1694.682 1031.903 1671.631 1067.865 1591.413 1135.174 C 1510.269 1204.329 1479.841 1258.732 1488.14 1318.666 C 1496.439 1371.224 1526.867 1416.406 1567.438 1437.613 C 1604.32 1456.977 1710.358 1455.134 1752.774 1434.847 Z M 2095.783 1440.379 C 2170.471 1409.03 2195.366 1349.096 2201.821 1193.265 C 2210.119 962.749 2170.471 878.839 2041.381 857.633 C 1957.473 844.723 1865.266 901.892 1845.902 978.422 C 1816.396 1092.76 1826.539 1303.915 1864.343 1373.069 C 1893.85 1425.626 1943.642 1453.289 2012.797 1453.289 C 2042.304 1453.289 2079.186 1447.755 2095.783 1440.379 Z M 3429.094 1174.824 C 3465.978 1020.838 3498.25 888.06 3501.017 878.839 C 3504.705 864.086 3499.172 862.242 3451.225 865.009 L 3397.745 867.775 L 3389.446 912.034 L 3382.069 955.372 L 3310.148 955.372 L 3238.226 955.372 L 3227.162 909.267 L 3216.097 863.164 L 3166.305 863.164 C 3131.267 863.164 3118.358 866.853 3121.124 875.152 C 3122.968 880.684 3154.318 1008.851 3190.279 1158.227 C 3226.239 1307.602 3256.668 1435.769 3259.434 1442.224 C 3262.2 1448.678 3281.564 1453.289 3312.914 1453.289 L 3361.784 1453.289 L 3429.094 1174.824 Z M 5096.196 1324.2 C 5111.872 1255.966 5144.143 1124.11 5166.273 1031.903 L 5206.845 863.164 L 5154.287 863.164 L 5100.806 863.164 L 5092.508 907.423 L 5085.132 950.761 L 5011.366 950.761 L 4937.601 950.761 L 4930.223 907.423 L 4921.925 863.164 L 4872.133 863.164 C 4844.471 863.164 4822.342 865.009 4822.342 866.853 C 4822.342 868.697 4849.082 979.345 4881.353 1113.046 C 4913.626 1246.745 4944.977 1378.6 4951.43 1405.341 L 4962.497 1454.211 L 5014.132 1451.444 L 5066.69 1448.678 L 5096.196 1324.2 Z M 2369.637 1199.719 L 2369.637 955.372 L 2448.014 955.372 L 2526.389 955.372 L 2526.389 909.267 L 2526.389 863.164 L 2397.3 863.164 L 2268.21 863.164 L 2268.21 1153.616 L 2268.21 1444.068 L 2318.925 1444.068 L 2369.637 1444.068 L 2369.637 1199.719 Z M 2683.141 1153.616 L 2683.141 863.164 L 2632.427 863.164 L 2581.714 863.164 L 2581.714 1153.616 L 2581.714 1444.068 L 2632.427 1444.068 L 2683.141 1444.068 L 2683.141 1153.616 Z M 3008.631 1431.158 C 3087.929 1397.965 3110.982 1325.121 3105.448 1122.265 C 3102.683 999.631 3099.916 983.956 3079.631 946.151 C 3043.669 880.684 2999.411 863.164 2870.322 863.164 L 2766.128 863.164 L 2766.128 1153.616 L 2766.128 1444.068 L 2872.165 1444.068 C 2941.32 1444.068 2989.268 1439.457 3008.631 1431.158 Z M 3799.767 1424.704 C 3852.325 1398.885 3872.61 1350.939 3872.61 1255.044 C 3872.61 1176.668 3850.482 1107.512 3821.897 1097.37 C 3802.532 1089.071 3804.377 1074.318 3839.415 961.825 L 3870.767 862.242 L 3819.13 865.009 L 3767.494 867.775 L 3738.91 959.981 C 3711.249 1050.343 3709.405 1052.189 3680.82 1054.955 L 3651.314 1057.721 L 3651.314 960.903 L 3651.314 863.164 L 3600.6 863.164 L 3549.885 863.164 L 3549.885 1153.616 L 3549.885 1444.068 L 3655.923 1444.068 C 3745.365 1444.068 3768.417 1441.302 3799.767 1424.704 Z M 4047.804 1153.616 L 4047.804 863.164 L 3997.088 863.164 L 3946.376 863.164 L 3946.376 1153.616 L 3946.376 1444.068 L 3997.088 1444.068 L 4047.804 1444.068 L 4047.804 1153.616 Z M 4398.19 1397.965 L 4398.19 1351.861 L 4315.203 1351.861 L 4232.218 1351.861 L 4232.218 1278.096 L 4232.218 1204.329 L 4310.593 1204.329 L 4388.969 1204.329 L 4388.969 1158.227 L 4388.969 1112.123 L 4310.593 1112.123 L 4232.218 1112.123 L 4232.218 1033.747 L 4232.218 955.372 L 4319.814 955.372 L 4407.409 955.372 L 4407.409 909.267 L 4407.409 863.164 L 4269.099 863.164 L 4130.79 863.164 L 4130.79 1153.616 L 4130.79 1444.068 L 4264.49 1444.068 L 4398.19 1444.068 L 4398.19 1397.965 Z M 4721.836 1425.626 C 4768.861 1401.653 4790.991 1364.77 4804.823 1286.393 C 4816.81 1216.316 4811.276 1026.371 4794.678 971.968 C 4781.77 927.708 4738.433 884.372 4695.096 872.385 C 4676.654 867.775 4616.72 863.164 4562.318 863.164 L 4462.735 863.164 L 4462.735 1153.616 L 4462.735 1444.068 L 4573.383 1444.068 C 4667.433 1444.068 4690.486 1441.302 4721.836 1425.626 Z M 5498.218 1431.158 C 5537.866 1414.562 5575.673 1369.381 5588.581 1321.433 C 5594.113 1300.225 5599.645 1226.46 5599.645 1158.227 C 5600.568 912.034 5559.997 863.164 5357.142 863.164 L 5255.714 863.164 L 5255.714 1153.616 L 5255.714 1444.068 L 5361.751 1444.068 C 5430.906 1444.068 5478.855 1439.457 5498.218 1431.158 Z M 5928.824 1397.965 L 5928.824 1351.861 L 5845.838 1351.861 L 5762.852 1351.861 L 5762.852 1278.096 L 5762.852 1204.329 L 5841.227 1204.329 L 5919.604 1204.329 L 5919.604 1158.227 L 5919.604 1112.123 L 5841.227 1112.123 L 5762.852 1112.123 L 5762.852 1033.747 L 5762.852 955.372 L 5850.449 955.372 L 5938.045 955.372 L 5938.045 909.267 L 5938.045 863.164 L 5799.734 863.164 L 5661.425 863.164 L 5661.425 1153.616 L 5661.425 1444.068 L 5795.125 1444.068 L 5928.824 1444.068 L 5928.824 1397.965 Z M 6097.562 690.738 C 6091.109 688.892 6080.044 688.892 6074.511 690.738 C 6068.057 693.504 6072.667 695.348 6085.576 695.348 C 6098.486 695.348 6103.095 693.504 6097.562 690.738 Z" style="fill: rgb(242, 112, 33);"/>
    <path d="M 1964.849 1334.342 C 1940.875 1310.367 1933.499 1255.044 1937.188 1119.499 C 1941.798 978.422 1951.941 955.372 2013.72 955.372 C 2082.875 955.372 2088.406 968.279 2091.174 1143.473 C 2093.017 1279.018 2092.094 1294.692 2074.576 1322.355 C 2058.901 1347.25 2051.523 1351.861 2019.251 1351.861 C 1995.278 1351.861 1975.914 1345.406 1964.849 1334.342 Z" style="fill: rgb(242, 112, 33);"/>
    <path d="M 3280.643 1153.616 L 3257.59 1038.357 L 3306.459 1038.357 C 3337.811 1038.357 3356.251 1042.046 3356.251 1049.422 C 3356.251 1068.786 3316.603 1255.044 3310.148 1262.421 C 3307.382 1266.108 3293.551 1217.239 3280.643 1153.616 Z" style="fill: rgb(242, 112, 33);"/>
    <path d="M 5006.756 1266.108 C 5006.756 1263.342 4996.613 1213.551 4983.704 1154.538 C 4970.796 1095.526 4960.651 1045.733 4960.651 1042.968 C 4960.651 1040.201 4983.704 1038.357 5011.366 1038.357 C 5039.027 1038.357 5062.079 1040.201 5062.079 1042.046 C 5062.079 1054.032 5014.132 1264.265 5010.443 1267.953 C 5008.599 1269.797 5006.756 1269.797 5006.756 1266.108 Z" style="fill: rgb(242, 112, 33);"/>
    <path d="M 2867.554 1153.616 L 2867.554 955.372 L 2908.125 955.372 C 2986.502 955.372 3004.943 995.943 3004.943 1158.227 C 3004.022 1312.212 2982.813 1351.861 2902.593 1351.861 L 2867.554 1351.861 L 2867.554 1153.616 Z" style="fill: rgb(242, 112, 33);"/>
    <path d="M 3651.314 1245.823 L 3651.314 1139.786 L 3688.196 1139.786 C 3715.859 1139.786 3731.534 1146.239 3748.132 1162.836 C 3768.417 1182.201 3771.184 1193.265 3771.184 1247.667 C 3771.184 1333.419 3757.351 1351.861 3696.495 1351.861 L 3651.314 1351.861 L 3651.314 1245.823 Z" style="fill: rgb(242, 112, 33);"/>
    <path d="M 4573.383 1153.616 L 4573.383 955.372 L 4604.733 955.372 C 4692.329 955.372 4705.238 984.877 4700.628 1174.824 C 4697.862 1306.679 4697.862 1307.602 4672.043 1329.73 C 4654.526 1345.406 4635.161 1351.861 4609.344 1351.861 L 4573.383 1351.861 L 4573.383 1153.616 Z" style="fill: rgb(242, 112, 33);"/>
    <path d="M 5357.142 1153.616 L 5357.142 955.372 L 5396.79 955.372 C 5477.01 955.372 5495.453 993.176 5494.529 1158.227 C 5494.529 1314.978 5475.167 1350.939 5392.18 1351.861 L 5357.142 1351.861 L 5357.142 1153.616 Z" style="fill: rgb(242, 112, 33);"/>
    <path d="M 6406.456 699.957 C 6412.91 697.191 6421.209 698.114 6423.976 700.881 C 6427.663 703.647 6422.132 706.413 6411.988 705.49 C 6401.845 705.49 6399.08 702.725 6406.456 699.957 Z" style=""/>
  </g>
</svg>